Picaflor-96 pt.ufo
<glyph name="exclam" format="2">
	<advance width="168"/>
	<unicode hex="0021"/>
	<outline>
		<contour>
			<point x="81" y="123" type="line"/>
			<point x="87" y="123" type="line"/>
			<point x="135" y="672" type="line"/>
			<point x="33" y="672" type="line"/>
		</contour>
		<contour>
			<point x="84" y="621" type="curve" smooth="yes"/>
			<point x="112" y="621"/>
			<point x="135" y="644"/>
			<point x="135" y="672" type="curve" smooth="yes"/>
			<point x="135" y="700"/>
			<point x="112" y="723"/>
			<point x="84" y="723" type="curve" smooth="yes"/>
			<point x="56" y="723"/>
			<point x="33" y="700"/>
			<point x="33" y="672" type="curve" smooth="yes"/>
			<point x="33" y="644"/>
			<point x="56" y="621"/>
		</contour>
		<component base="period" xOffset="20"/>
	</outline>
</glyph>
<glyph name="numbersign" format="2">
	<advance width="313.5"/>
	<unicode hex="0023"/>
	<outline>
		<contour>
			<point x="153.5" y="0" type="line"/>
			<point x="158" y="0" type="line"/>
			<point x="258" y="700" type="line"/>
			<point x="253.5" y="700" type="line"/>
		</contour>
		<contour>
			<point x="23" y="222" type="line"/>
			<point x="251.5" y="222" type="line"/>
			<point x="251.5" y="226" type="line"/>
			<point x="23" y="226" type="line"/>
		</contour>
		<contour>
			<point x="52.5" y="0" type="line"/>
			<point x="57" y="0" type="line"/>
			<point x="157" y="700" type="line"/>
			<point x="152.5" y="700" type="line"/>
		</contour>
		<contour>
			<point x="62" y="494" type="line"/>
			<point x="290.5" y="494" type="line"/>
			<point x="290.5" y="498" type="line"/>
			<point x="62" y="498" type="line"/>
		</contour>
	</outline>
</glyph>
<glyph name="ampersand" format="2">
	<advance width="773"/>
	<unicode hex="0026"/>
	<outline>
		<contour>
			<point x="589.5" y="-8" type="curve" smooth="yes"/>
			<point x="675" y="-7.5"/>
			<point x="760" y="45.5"/>
			<point x="760" y="125" type="curve" smooth="yes"/>
			<point x="760" y="167"/>
			<point x="726.5" y="205"/>
			<point x="652.5" y="205" type="curve"/>
			<point x="651.5" y="200" type="line"/>
			<point x="683" y="197.5"/>
			<point x="695" y="168.5"/>
			<point x="695" y="139" type="curve" smooth="yes"/>
			<point x="695" y="53"/>
			<point x="641" y="-4"/>
			<point x="589.5" y="-4" type="curve" smooth="yes"/>
			<point x="497.5" y="-4"/>
			<point x="409" y="178.5"/>
			<point x="288.5" y="421" type="curve" smooth="yes"/>
			<point x="255.5" y="488"/>
			<point x="229" y="560.5"/>
			<point x="229" y="618.5" type="curve" smooth="yes"/>
			<point x="229" y="676.5"/>
			<point x="276" y="704"/>
			<point x="318.5" y="704" type="curve"/>
			<point x="325" y="708" type="line"/>
			<point x="234" y="708"/>
			<point x="142.5" y="661"/>
			<point x="142.5" y="567.5" type="curve" smooth="yes"/>
			<point x="142.5" y="517"/>
			<point x="156" y="452"/>
			<point x="191.5" y="386.5" type="curve" smooth="yes"/>
			<point x="241.5" y="294.5"/>
			<point x="296" y="197"/>
			<point x="359.5" y="122.5" type="curve" smooth="yes"/>
			<point x="424.5" y="46"/>
			<point x="499.5" y="-8.5"/>
		</contour>
		<contour>
			<point x="239" y="414.5" type="curve"/>
			<point x="213" y="405.5" type="line"/>
			<point x="77.5" y="363"/>
			<point x="13" y="273.5"/>
			<point x="13" y="188" type="curve" smooth="yes"/>
			<point x="13" y="87"/>
			<point x="104.5" y="-8"/>
			<point x="278" y="-8" type="curve" smooth="yes"/>
			<point x="497.5" y="-8"/>
			<point x="650.5" y="162.5"/>
			<point x="650.5" y="286" type="curve" smooth="yes"/>
			<point x="650.5" y="356"/>
			<point x="601.5" y="409"/>
			<point x="487" y="409" type="curve"/>
			<point x="487" y="403" type="line"/>
			<point x="535" y="403"/>
			<point x="555.5" y="368.5"/>
			<point x="555.5" y="319" type="curve" smooth="yes"/>
			<point x="555.5" y="164"/>
			<point x="415.5" y="-4"/>
			<point x="278" y="-4" type="curve" smooth="yes"/>
			<point x="180" y="-4"/>
			<point x="114.5" y="81"/>
			<point x="114.5" y="208.5" type="curve" smooth="yes"/>
			<point x="114.5" y="295"/>
			<point x="155" y="383"/>
		</contour>
		<contour>
			<point x="239" y="397.5" type="curve"/>
			<point x="281.5" y="401.5" type="line"/>
			<point x="410.5" y="415"/>
			<point x="494" y="487.5"/>
			<point x="494" y="570.5" type="curve" smooth="yes"/>
			<point x="494" y="642.5"/>
			<point x="431.5" y="708"/>
			<point x="325" y="708" type="curve"/>
			<point x="318.5" y="704" type="line"/>
			<point x="369.5" y="704"/>
			<point x="404" y="649"/>
			<point x="404" y="588.5" type="curve" smooth="yes"/>
			<point x="404" y="508.5"/>
			<point x="344" y="410"/>
		</contour>
	</outline>
</glyph>
<glyph name="quotesingle" format="2">
	<advance width="144.5"/>
	<unicode hex="0027"/>
	<outline>
		<contour>
			<point x="23" y="450" type="line"/>
			<point x="30" y="450" type="line"/>
			<point x="121.5" y="700" type="line"/>
			<point x="51.5" y="700" type="line"/>
		</contour>
	</outline>
</glyph>
<glyph name="parenleft" format="2">
	<advance width="195.5"/>
	<unicode hex="0028"/>
	<outline>
		<contour>
			<point x="10" y="350" type="curve" smooth="yes"/>
			<point x="10" y="177.5"/>
			<point x="80" y="-2"/>
			<point x="185" y="-53.5" type="curve"/>
			<point x="189.5" y="-50" type="line"/>
			<point x="134" y="-1"/>
			<point x="97.5" y="181"/>
			<point x="97.5" y="350" type="curve" smooth="yes"/>
			<point x="97.5" y="519"/>
			<point x="134" y="701"/>
			<point x="189.5" y="750" type="curve"/>
			<point x="185" y="753.5" type="line"/>
			<point x="80" y="702"/>
			<point x="10" y="522.5"/>
		</contour>
	</outline>
</glyph>
<glyph name="asterisk" format="2">
	<advance width="270"/>
	<unicode hex="002A"/>
	<outline>
		<contour>
			<point x="185.5" y="465" type="line"/>
			<point x="234.5" y="515" type="line"/>
			<point x="138" y="575" type="line"/>
			<point x="135" y="575" type="line"/>
			<point x="133" y="575" type="line"/>
		</contour>
		<contour>
			<point x="84.5" y="465" type="line"/>
			<point x="137" y="575" type="line"/>
			<point x="135" y="575" type="line"/>
			<point x="132" y="575" type="line"/>
			<point x="35.5" y="515" type="line"/>
		</contour>
		<contour>
			<point x="133.5" y="573" type="line"/>
			<point x="135" y="575" type="line"/>
			<point x="48" y="655" type="line"/>
			<point x="18" y="594.5" type="line"/>
		</contour>
		<contour>
			<point x="133.5" y="575" type="line"/>
			<point x="135" y="575" type="line"/>
			<point x="135" y="700" type="line"/>
			<point x="100" y="700" type="line"/>
		</contour>
		<contour>
			<point x="135" y="575" type="line"/>
			<point x="136.5" y="575" type="line"/>
			<point x="170" y="700" type="line"/>
			<point x="135" y="700" type="line"/>
		</contour>
		<contour>
			<point x="136.5" y="573" type="line"/>
			<point x="252" y="594.5" type="line"/>
			<point x="222" y="655" type="line"/>
			<point x="135" y="575" type="line"/>
		</contour>
	</outline>
</glyph>
<glyph name="plus" format="2">
	<advance width="336"/>
	<unicode hex="002B"/>
	<outline>
		<contour>
			<point x="164" y="120" type="line"/>
			<point x="172" y="120" type="line"/>
			<point x="172" y="450" type="line"/>
			<point x="164" y="450" type="line"/>
		</contour>
		<contour>
			<point x="3" y="281" type="line"/>
			<point x="333" y="281" type="line"/>
			<point x="333" y="289" type="line"/>
			<point x="3" y="289" type="line"/>
		</contour>
	</outline>
</glyph>
<glyph name="comma" format="2">
	<advance width="156"/>
	<unicode hex="002C"/>
	<outline>
		<contour>
			<point x="39.5" y="-120.5" type="curve"/>
			<point x="43.5" y="-125.5" type="line"/>
			<point x="95" y="-70.5"/>
			<point x="133" y="0"/>
			<point x="133" y="45.5" type="curve" smooth="yes"/>
			<point x="133" y="76"/>
			<point x="113.5" y="96"/>
			<point x="84" y="96" type="curve" smooth="yes"/>
			<point x="44.5" y="96"/>
			<point x="23" y="60"/>
			<point x="23" y="29.5" type="curve" smooth="yes"/>
			<point x="23" y="3.5"/>
			<point x="39.5" y="-14.5"/>
			<point x="59" y="-14.5" type="curve" smooth="yes"/>
			<point x="65.5" y="-14.5"/>
			<point x="72.5" y="-12.5"/>
			<point x="79" y="-8" type="curve" smooth="yes"/>
			<point x="84.5" y="-4.5"/>
			<point x="88.5" y="0"/>
			<point x="93" y="0" type="curve" smooth="yes"/>
			<point x="95.5" y="0"/>
			<point x="97.5" y="-2.5"/>
			<point x="97.5" y="-6.5" type="curve" smooth="yes"/>
			<point x="97.5" y="-29"/>
			<point x="56.5" y="-102"/>
		</contour>
	</outline>
</glyph>
<glyph name="period" format="2">
	<advance width="128"/>
	<unicode hex="002E"/>
	<outline>
		<contour>
			<point x="64" y="-6" type="curve" smooth="yes"/>
			<point x="92" y="-6"/>
			<point x="115" y="17"/>
			<point x="115" y="45" type="curve" smooth="yes"/>
			<point x="115" y="73"/>
			<point x="92" y="96"/>
			<point x="64" y="96" type="curve" smooth="yes"/>
			<point x="36" y="96"/>
			<point x="13" y="73"/>
			<point x="13" y="45" type="curve" smooth="yes"/>
			<point x="13" y="17"/>
			<point x="36" y="-6"/>
		</contour>
	</outline>
</glyph>
<glyph name="slash" format="2">
	<advance width="150.5"/>
	<unicode hex="002F"/>
	<outline>
		<contour>
			<point x="23" y="-50" type="line"/>
			<point x="27.5" y="-50" type="line"/>
			<point x="127.5" y="750" type="line"/>
			<point x="123" y="750" type="line"/>
		</contour>
	</outline>
</glyph>
<glyph name="zero" format="2">
	<advance width="430"/>
	<unicode hex="0030"/>
	<outline>
		<contour>
			<point x="215" y="-8" type="curve" smooth="yes"/>
			<point x="338" y="-8"/>
			<point x="420" y="132"/>
			<point x="420" y="350" type="curve" smooth="yes"/>
			<point x="420" y="568"/>
			<point x="338" y="708"/>
			<point x="215" y="708" type="curve" smooth="yes"/>
			<point x="92" y="708"/>
			<point x="10" y="568"/>
			<point x="10" y="350" type="curve" smooth="yes"/>
			<point x="10" y="132"/>
			<point x="92" y="-8"/>
		</contour>
		<contour>
			<point x="215" y="-4" type="curve" smooth="yes"/>
			<point x="158" y="-4"/>
			<point x="120" y="137.5"/>
			<point x="120" y="350" type="curve" smooth="yes"/>
			<point x="120" y="562.5"/>
			<point x="158" y="704"/>
			<point x="215" y="704" type="curve" smooth="yes"/>
			<point x="272" y="704"/>
			<point x="310" y="562.5"/>
			<point x="310" y="350" type="curve" smooth="yes"/>
			<point x="310" y="137.5"/>
			<point x="272" y="-4"/>
		</contour>
	</outline>
</glyph>
<glyph name="one" format="2">
	<advance width="292"/>
	<unicode hex="0031"/>
	<outline>
		<contour>
			<point x="121" y="0" type="line"/>
			<point x="221" y="0" type="line"/>
			<point x="221" y="737" type="line"/>
			<point x="195.5" y="688" type="line"/>
			<point x="121" y="585" type="line"/>
		</contour>
		<contour>
			<point x="2" y="500" type="curve"/>
			<point x="30.5" y="314.5" type="line"/>
			<point x="34" y="314.5" type="line"/>
			<point x="23" y="401"/>
			<point x="55" y="510"/>
			<point x="107.5" y="569" type="curve"/>
			<point x="154" y="615"/>
			<point x="196" y="679"/>
			<point x="221" y="737" type="curve"/>
			<point x="213" y="737" type="line"/>
			<point x="169" y="632"/>
			<point x="86.5" y="537"/>
		</contour>
		<component base="_part.longserif" xScale="-1" yScale="-1" xOffset="314" yOffset="700"/>
		<component base="_part.longserif" xScale="-1" yScale="-1" xOffset="289" yOffset="700"/>
	</outline>
</glyph>
<glyph name="two" format="2">
	<advance width="391"/>
	<unicode hex="0032"/>
	<outline>
		<contour>
			<point x="10" y="0" type="curve"/>
			<point x="58" y="0" type="line"/>
			<point x="231.5" y="189.5"/>
			<point x="365.5" y="408.5"/>
			<point x="365.5" y="561.5" type="curve" smooth="yes"/>
			<point x="365.5" y="653.5"/>
			<point x="295.5" y="715"/>
			<point x="212.5" y="715" type="curve" smooth="yes"/>
			<point x="158" y="715"/>
			<point x="119.5" y="698.5"/>
			<point x="82.5" y="673.5" type="curve" smooth="yes"/>
			<point x="71.5" y="666"/>
			<point x="57.5" y="658.5"/>
			<point x="48" y="658.5" type="curve" smooth="yes"/>
			<point x="34" y="658.5"/>
			<point x="27" y="668"/>
			<point x="13" y="705" type="curve"/>
			<point x="7" y="703" type="line"/>
			<point x="74.5" y="477" type="line"/>
			<point x="78" y="477" type="line"/>
			<point x="75" y="510" type="line" smooth="yes"/>
			<point x="66.5" y="606"/>
			<point x="80.5" y="704"/>
			<point x="174.5" y="704" type="curve" smooth="yes"/>
			<point x="231.5" y="704"/>
			<point x="261" y="647"/>
			<point x="261" y="571.5" type="curve" smooth="yes"/>
			<point x="261" y="445"/>
			<point x="157.5" y="217"/>
		</contour>
		<contour>
			<point x="35" y="0" type="line"/>
			<point x="321" y="0" type="line"/>
			<point x="321" y="4" type="line"/>
			<point x="35" y="4" type="line"/>
		</contour>
		<contour>
			<point x="305.5" y="0" type="line"/>
			<point x="356" y="0" type="line"/>
			<point x="378" y="233" type="line"/>
			<point x="369.5" y="233" type="line"/>
		</contour>
	</outline>
</glyph>
<glyph name="three" format="2">
	<advance width="414.5"/>
	<unicode hex="0033"/>
	<outline>
		<contour>
			<point x="56" y="325.5" type="line"/>
			<point x="67" y="325.5" type="line"/>
			<point x="138" y="425" type="line"/>
			<point x="401.5" y="700" type="line"/>
			<point x="259" y="700" type="line"/>
		</contour>
		<contour>
			<point x="190" y="-8" type="curve"/>
			<point x="190" y="-4" type="line"/>
			<point x="109.5" y="-4"/>
			<point x="72.5" y="76"/>
			<point x="83" y="190" type="curve" smooth="yes"/>
			<point x="86" y="223" type="line"/>
			<point x="82.5" y="223" type="line"/>
			<point x="15" y="-3" type="line"/>
			<point x="21" y="-5" type="line"/>
			<point x="31" y="21"/>
			<point x="40" y="33"/>
			<point x="56" y="33" type="curve" smooth="yes"/>
			<point x="79" y="33"/>
			<point x="129" y="-8"/>
		</contour>
		<contour>
			<point x="190" y="-4" type="curve"/>
			<point x="190" y="-8" type="line"/>
			<point x="314" y="-8"/>
			<point x="397" y="89.5"/>
			<point x="397" y="236" type="curve"/>
			<point x="297" y="236" type="line"/>
			<point x="297" y="95.5"/>
			<point x="254" y="-2.5"/>
		</contour>
		<contour>
			<point x="297" y="236" type="curve"/>
			<point x="397" y="236" type="line"/>
			<point x="397" y="396.5"/>
			<point x="323" y="473"/>
			<point x="243" y="473" type="curve" smooth="yes"/>
			<point x="180" y="473"/>
			<point x="149" y="448.5"/>
			<point x="55" y="325.5" type="curve"/>
			<point x="67" y="325.5" type="line"/>
			<point x="131" y="416"/>
			<point x="182.5" y="463.5"/>
			<point x="220.5" y="463.5" type="curve" smooth="yes"/>
			<point x="270.5" y="463.5"/>
			<point x="297" y="383"/>
		</contour>
		<contour>
			<point x="93.5" y="467" type="line"/>
			<point x="102" y="467" type="line"/>
			<point x="80" y="700" type="line"/>
			<point x="29.5" y="700" type="line"/>
		</contour>
		<contour>
			<point x="60" y="696" type="line"/>
			<point x="316" y="696" type="line"/>
			<point x="316" y="700" type="line"/>
			<point x="60" y="700" type="line"/>
		</contour>
	</outline>
</glyph>
<glyph name="four" format="2">
	<advance width="452.5"/>
	<unicode hex="0034"/>
	<outline>
		<contour>
			<point x="5" y="140" type="line"/>
			<point x="10" y="140" type="line"/>
			<point x="338.5" y="717.5" type="line"/>
			<point x="338.5" y="729.5" type="line"/>
		</contour>
		<contour>
			<point x="5" y="140" type="line"/>
			<point x="402" y="140" type="line"/>
			<point x="402" y="144" type="line"/>
			<point x="10.5" y="144" type="line"/>
		</contour>
		<contour>
			<point x="7" y="140" type="line"/>
			<point x="86" y="140" type="line"/>
			<point x="86" y="215"/>
			<point x="115.5" y="322.5"/>
			<point x="163" y="409" type="curve"/>
			<point x="159" y="411.5" type="line"/>
		</contour>
		<contour>
			<point x="238.5" y="0" type="line"/>
			<point x="338.5" y="0" type="line"/>
			<point x="338.5" y="737" type="line"/>
			<point x="238.5" y="551" type="line"/>
		</contour>
		<contour>
			<point x="367" y="140" type="line"/>
			<point x="417.5" y="140" type="line"/>
			<point x="439.5" y="373" type="line"/>
			<point x="431" y="373" type="line"/>
		</contour>
		<component base="_part.longserif" xScale="-1" yScale="-1" xOffset="432" yOffset="700"/>
	</outline>
</glyph>
<glyph name="five" format="2">
	<advance width="408.5"/>
	<unicode hex="0035"/>
	<outline>
		<contour>
			<point x="296" y="236" type="curve"/>
			<point x="396" y="236" type="line"/>
			<point x="396" y="378"/>
			<point x="322" y="472.5"/>
			<point x="210.5" y="472.5" type="curve" smooth="yes"/>
			<point x="167.5" y="472.5"/>
			<point x="134.5" y="453.5"/>
			<point x="117" y="425" type="curve"/>
			<point x="58" y="425" type="line"/>
			<point x="58" y="325.5" type="line"/>
			<point x="64" y="325.5" type="line"/>
			<point x="103" y="409"/>
			<point x="153" y="464.5"/>
			<point x="190" y="464.5" type="curve" smooth="yes"/>
			<point x="253.5" y="464.5"/>
			<point x="296" y="370.5"/>
		</contour>
		<contour>
			<point x="189" y="-8" type="curve"/>
			<point x="189" y="-4" type="line"/>
			<point x="108.5" y="-4"/>
			<point x="71.5" y="76"/>
			<point x="82" y="190" type="curve" smooth="yes"/>
			<point x="85" y="223" type="line"/>
			<point x="81.5" y="223" type="line"/>
			<point x="14" y="-3" type="line"/>
			<point x="20" y="-5" type="line"/>
			<point x="30" y="21"/>
			<point x="39" y="33"/>
			<point x="55" y="33" type="curve" smooth="yes"/>
			<point x="78" y="33"/>
			<point x="128" y="-8"/>
		</contour>
		<contour>
			<point x="189" y="-4" type="curve"/>
			<point x="189" y="-8" type="line"/>
			<point x="313" y="-8"/>
			<point x="396" y="89.5"/>
			<point x="396" y="236" type="curve"/>
			<point x="296" y="236" type="line"/>
			<point x="296" y="96"/>
			<point x="253" y="-2.5"/>
		</contour>
		<contour>
			<point x="58" y="400" type="line"/>
			<point x="92" y="400" type="line"/>
			<point x="157.5" y="453" type="line"/>
			<point x="158" y="700" type="line"/>
			<point x="58" y="700" type="line"/>
		</contour>
		<contour>
			<point x="108" y="696" type="line"/>
			<point x="353" y="696" type="line"/>
			<point x="353" y="700" type="line"/>
			<point x="108" y="700" type="line"/>
		</contour>
		<contour>
			<point x="311" y="467" type="line"/>
			<point x="319.5" y="467" type="line"/>
			<point x="383.5" y="700" type="line"/>
			<point x="333" y="700" type="line"/>
		</contour>
	</outline>
</glyph>
<glyph name="six" format="2">
	<advance width="455.5"/>
	<unicode hex="0036"/>
	<outline>
		<contour>
			<point x="240" y="-8" type="curve" smooth="yes"/>
			<point x="363.5" y="-8"/>
			<point x="445.5" y="83.5"/>
			<point x="445.5" y="221" type="curve"/>
			<point x="350" y="221" type="line"/>
			<point x="350" y="89"/>
			<point x="306" y="-3.5"/>
			<point x="240" y="-4" type="curve" smooth="yes"/>
			<point x="239" y="-4"/>
			<point x="238" y="-4"/>
			<point x="237.5" y="-4" type="curve" smooth="yes"/>
			<point x="175.5" y="-1.5"/>
			<point x="115" y="104.5"/>
			<point x="115" y="221" type="curve"/>
			<point x="110" y="350" type="line"/>
			<point x="10" y="350" type="line"/>
			<point x="10" y="135"/>
			<point x="102" y="-8"/>
		</contour>
		<contour>
			<point x="82.5" y="221" type="curve"/>
			<point x="115" y="221" type="line"/>
			<point x="115" y="350"/>
			<point x="165" y="440.5"/>
			<point x="240" y="441" type="curve"/>
			<point x="240" y="445" type="line"/>
			<point x="142.5" y="445"/>
			<point x="82.5" y="355.5"/>
		</contour>
		<contour>
			<point x="10" y="350" type="curve"/>
			<point x="110" y="350" type="line"/>
			<point x="110" y="558"/>
			<point x="163" y="704"/>
			<point x="270" y="704" type="curve"/>
			<point x="270" y="708" type="line"/>
			<point x="82" y="708"/>
			<point x="10" y="526"/>
		</contour>
		<contour>
			<point x="350" y="221" type="curve"/>
			<point x="445.5" y="221" type="line"/>
			<point x="445.5" y="355.5"/>
			<point x="363.5" y="445"/>
			<point x="240" y="445" type="curve"/>
			<point x="240" y="441" type="line"/>
			<point x="306" y="440.5"/>
			<point x="350" y="350"/>
		</contour>
		<contour>
			<point x="361" y="510" type="curve" smooth="yes"/>
			<point x="358" y="477" type="line"/>
			<point x="361.5" y="477" type="line"/>
			<point x="428.5" y="703" type="line"/>
			<point x="423" y="705" type="line"/>
			<point x="413" y="679"/>
			<point x="404" y="667"/>
			<point x="388" y="667" type="curve" smooth="yes"/>
			<point x="365" y="667"/>
			<point x="326" y="708"/>
			<point x="270" y="708" type="curve"/>
			<point x="270" y="704" type="line"/>
			<point x="355" y="704"/>
			<point x="370" y="609"/>
		</contour>
		<contour>
			<point x="270" y="704" type="line"/>
			<point x="270" y="708" type="line"/>
		</contour>
	</outline>
</glyph>
<glyph name="seven" format="2">
	<advance width="407.5"/>
	<unicode hex="0037"/>
	<outline>
		<contour>
			<point x="88.5" y="-110.5" type="line"/>
			<point x="94.5" y="-110.5" type="line"/>
			<point x="395.5" y="700" type="line"/>
			<point x="289" y="700" type="line"/>
			<point x="180.5" y="408" type="line"/>
		</contour>
		<contour>
			<point x="35.5" y="404" type="line"/>
			<point x="376.5" y="404" type="line"/>
			<point x="376.5" y="408" type="line"/>
			<point x="35.5" y="408" type="line"/>
		</contour>
		<contour>
			<point x="76" y="467" type="line"/>
			<point x="84.5" y="467" type="line"/>
			<point x="62.5" y="700" type="line"/>
			<point x="12" y="700" type="line"/>
		</contour>
		<contour>
			<point x="55.5" y="696" type="line"/>
			<point x="367.5" y="696" type="line"/>
			<point x="367.5" y="700" type="line"/>
			<point x="55.5" y="700" type="line"/>
		</contour>
	</outline>
</glyph>
<glyph name="eight" format="2">
	<advance width="499"/>
	<unicode hex="0038"/>
	<outline>
		<contour>
			<point x="13" y="195.5" type="curve"/>
			<point x="113" y="195.5" type="line"/>
			<point x="113" y="313.5"/>
			<point x="173.5" y="394"/>
			<point x="249.5" y="393.5" type="curve" smooth="yes"/>
			<point x="325.5" y="393"/>
			<point x="386" y="312.5"/>
			<point x="386" y="195.5" type="curve"/>
			<point x="486" y="195.5" type="line"/>
			<point x="486" y="321"/>
			<point x="382.5" y="397.5"/>
			<point x="249.5" y="397.5" type="curve" smooth="yes"/>
			<point x="116.5" y="397.5"/>
			<point x="13" y="321"/>
		</contour>
		<contour>
			<point x="249.5" y="-8" type="curve" smooth="yes"/>
			<point x="382.5" y="-8"/>
			<point x="486" y="70"/>
			<point x="486" y="195.5" type="curve"/>
			<point x="386" y="195.5" type="line"/>
			<point x="386" y="78.5"/>
			<point x="325.5" y="-3.5"/>
			<point x="249.5" y="-4" type="curve" smooth="yes"/>
			<point x="173.5" y="-4.5"/>
			<point x="113" y="77.5"/>
			<point x="113" y="195.5" type="curve"/>
			<point x="13" y="195.5" type="line"/>
			<point x="13" y="70"/>
			<point x="116.5" y="-8"/>
		</contour>
		<contour>
			<point x="249.5" y="393" type="curve"/>
			<point x="249.5" y="397.5" type="line"/>
			<point x="188" y="397.5"/>
			<point x="149.5" y="472.5"/>
			<point x="149.5" y="546" type="curve" smooth="yes"/>
			<point x="149.5" y="619"/>
			<point x="188" y="696"/>
			<point x="249.5" y="696" type="curve"/>
			<point x="249.5" y="700" type="line"/>
			<point x="122.5" y="700"/>
			<point x="54.5" y="623.5"/>
			<point x="54.5" y="546.5" type="curve" smooth="yes"/>
			<point x="54.5" y="470"/>
			<point x="122.5" y="393"/>
		</contour>
		<contour>
			<point x="249.5" y="397.5" type="curve"/>
			<point x="249.5" y="393" type="line"/>
			<point x="376.5" y="393"/>
			<point x="444.5" y="470"/>
			<point x="444.5" y="546.5" type="curve" smooth="yes"/>
			<point x="444.5" y="623.5"/>
			<point x="376.5" y="700"/>
			<point x="249.5" y="700" type="curve"/>
			<point x="249.5" y="696" type="line"/>
			<point x="311" y="696"/>
			<point x="349.5" y="619"/>
			<point x="349.5" y="546" type="curve" smooth="yes"/>
			<point x="349.5" y="472.5"/>
			<point x="311" y="397.5"/>
		</contour>
	</outline>
</glyph>
<glyph name="equal" format="2">
	<advance width="286"/>
	<unicode hex="003D"/>
	<outline>
		<contour>
			<point x="3" y="330" type="line"/>
			<point x="283" y="330" type="line"/>
			<point x="283" y="338" type="line"/>
			<point x="3" y="338" type="line"/>
		</contour>
		<contour>
			<point x="3" y="232" type="line"/>
			<point x="283" y="232" type="line"/>
			<point x="283" y="240" type="line"/>
			<point x="3" y="240" type="line"/>
		</contour>
	</outline>
</glyph>
<glyph name="question" format="2">
	<advance width="382"/>
	<unicode hex="003F"/>
	<outline>
		<contour>
			<point x="204" y="246.5" type="curve" smooth="yes"/>
			<point x="288.5" y="246.5"/>
			<point x="371" y="360"/>
			<point x="371" y="479" type="curve"/>
			<point x="271" y="479" type="line"/>
			<point x="271" y="349.5"/>
			<point x="236.5" y="266.5"/>
			<point x="189" y="266.5" type="curve" smooth="yes"/>
			<point x="137.5" y="266.5"/>
			<point x="91" y="323.5"/>
			<point x="73.5" y="404.5" type="curve"/>
			<point x="67.5" y="404.5" type="line"/>
			<point x="97.5" y="281.5" type="line"/>
			<point x="137.5" y="273" type="line"/>
			<point x="159" y="254.5"/>
			<point x="181.5" y="246.5"/>
		</contour>
		<contour>
			<point x="119" y="122.5" type="line"/>
			<point x="125" y="122.5" type="line"/>
			<point x="156.5" y="272.5" type="line"/>
			<point x="97" y="285" type="line"/>
			<point x="67.5" y="404.5" type="line"/>
		</contour>
		<contour>
			<point x="54.5" y="477" type="line"/>
			<point x="58.5" y="477" type="line"/>
			<point x="55.5" y="510" type="line" smooth="yes"/>
			<point x="45" y="624"/>
			<point x="107.5" y="704"/>
			<point x="188" y="704" type="curve"/>
			<point x="188" y="708" type="line"/>
			<point x="127" y="708"/>
			<point x="77" y="667"/>
			<point x="54" y="667" type="curve" smooth="yes"/>
			<point x="38" y="667"/>
			<point x="29" y="679"/>
			<point x="19" y="705" type="curve"/>
			<point x="13" y="703" type="line"/>
		</contour>
		<contour>
			<point x="271" y="479" type="curve"/>
			<point x="371" y="479" type="line"/>
			<point x="371" y="616.5"/>
			<point x="297" y="708"/>
			<point x="188" y="708" type="curve"/>
			<point x="188" y="704" type="line"/>
			<point x="261" y="702.5"/>
			<point x="271" y="610"/>
		</contour>
		<component base="period" xOffset="58"/>
	</outline>
</glyph>
<glyph name="A" format="2">
	<advance width="454"/>
	<unicode hex="0041"/>
	<unicode hex="0061"/>
	<anchor x="400" y="0" name="ogonek"/>
	<anchor x="229" y="0" name="bottom"/>
	<anchor x="224" y="703" name="top"/>
	<outline>
		<contour>
			<point x="54" y="101" type="line"/>
			<point x="305" y="101" type="line"/>
			<point x="305" y="105" type="line"/>
			<point x="54" y="105" type="line"/>
		</contour>
		<component base="V" xScale="-1" yScale="-1" xOffset="454" yOffset="700"/>
	</outline>
</glyph>
<glyph name="B" format="2">
	<advance width="462"/>
	<unicode hex="0042"/>
	<unicode hex="0062"/>
	<anchor x="223" y="700" name="top"/>
	<anchor x="223" y="0" name="bottom"/>
	<outline>
		<contour>
			<point x="168" y="396" type="curve"/>
			<point x="168" y="393" type="line"/>
			<point x="325" y="393"/>
			<point x="408" y="484"/>
			<point x="408" y="566.5" type="curve" smooth="yes"/>
			<point x="408" y="634"/>
			<point x="352.5" y="700"/>
			<point x="227" y="700" type="curve" smooth="yes"/>
			<point x="168" y="700" type="line"/>
			<point x="168" y="696" type="line"/>
			<point x="190" y="696" type="line" smooth="yes"/>
			<point x="271" y="696"/>
			<point x="313" y="624"/>
			<point x="313" y="553" type="curve" smooth="yes"/>
			<point x="313" y="478"/>
			<point x="266.5" y="396"/>
		</contour>
		<contour>
			<point x="168" y="0" type="line"/>
			<point x="227" y="0" type="line" smooth="yes"/>
			<point x="366" y="0"/>
			<point x="449" y="80.5"/>
			<point x="449" y="201" type="curve"/>
			<point x="349" y="201" type="line"/>
			<point x="349" y="85"/>
			<point x="285.5" y="4"/>
			<point x="190" y="4" type="curve" smooth="yes"/>
			<point x="168" y="4" type="line"/>
		</contour>
		<contour>
			<point x="349" y="201" type="curve"/>
			<point x="449" y="201" type="line"/>
			<point x="449" y="318"/>
			<point x="366" y="396"/>
			<point x="227" y="396" type="curve" smooth="yes"/>
			<point x="168" y="396" type="line"/>
			<point x="168" y="390" type="line"/>
			<point x="190" y="390" type="line" smooth="yes"/>
			<point x="285.5" y="390"/>
			<point x="349" y="313"/>
		</contour>
		<component base="_part.halfstemleft" xOffset="-2"/>
	</outline>
</glyph>
<glyph name="C" format="2">
	<advance width="405"/>
	<unicode hex="0043"/>
	<unicode hex="0063"/>
	<anchor x="235" y="708" name="top"/>
	<anchor x="235" y="-8" name="bottom"/>
	<outline>
		<contour>
			<point x="10" y="350" type="curve"/>
			<point x="120" y="350" type="line"/>
			<point x="120" y="558"/>
			<point x="158" y="704"/>
			<point x="235" y="704" type="curve"/>
			<point x="235" y="708" type="line"/>
			<point x="77" y="708"/>
			<point x="10" y="526"/>
		</contour>
		<contour>
			<point x="235" y="-8" type="curve"/>
			<point x="235" y="-4" type="line"/>
			<point x="158" y="-4"/>
			<point x="120" y="142"/>
			<point x="120" y="350" type="curve"/>
			<point x="10" y="350" type="line"/>
			<point x="10" y="174"/>
			<point x="77" y="-8"/>
		</contour>
		<contour>
			<point x="326" y="510" type="curve" smooth="yes"/>
			<point x="323" y="477" type="line"/>
			<point x="327" y="477" type="line"/>
			<point x="394" y="703" type="line"/>
			<point x="388" y="705" type="line"/>
			<point x="378" y="679"/>
			<point x="369" y="667"/>
			<point x="353" y="667" type="curve" smooth="yes"/>
			<point x="330" y="667"/>
			<point x="291" y="708"/>
			<point x="235" y="708" type="curve"/>
			<point x="235" y="704" type="line"/>
			<point x="320" y="704"/>
			<point x="335" y="609"/>
		</contour>
		<contour>
			<point x="235" y="-4" type="curve"/>
			<point x="235" y="-8" type="line"/>
			<point x="261.5" y="-8"/>
			<point x="292.5" y="11.5"/>
			<point x="317.5" y="57.5" type="curve" smooth="yes"/>
			<point x="329.5" y="78.5"/>
			<point x="344.5" y="87.5"/>
			<point x="358" y="87.5" type="curve" smooth="yes"/>
			<point x="377" y="87.5"/>
			<point x="391" y="69"/>
			<point x="385" y="40" type="curve"/>
			<point x="391" y="40" type="line"/>
			<point x="395.5" y="60.5"/>
			<point x="398" y="85"/>
			<point x="398" y="112" type="curve" smooth="yes"/>
			<point x="398" y="177.5"/>
			<point x="384.5" y="258"/>
			<point x="359.5" y="332" type="curve"/>
			<point x="353.5" y="330" type="line"/>
			<point x="355.5" y="321"/>
			<point x="357" y="301"/>
			<point x="357" y="280" type="curve" smooth="yes"/>
			<point x="357" y="82"/>
			<point x="289" y="-4"/>
		</contour>
	</outline>
</glyph>
<glyph name="D" format="2">
	<advance width="463"/>
	<unicode hex="0044"/>
	<unicode hex="0064"/>
	<anchor x="217" y="350" name="center"/>
	<anchor x="217" y="0" name="bottom"/>
	<anchor x="202" y="700" name="top"/>
	<outline>
		<contour>
			<point x="343" y="350" type="curve"/>
			<point x="453" y="350" type="line"/>
			<point x="453" y="526"/>
			<point x="360" y="700"/>
			<point x="202" y="700" type="curve" smooth="yes"/>
			<point x="151.5" y="700" type="line"/>
			<point x="151.5" y="696" type="line"/>
			<point x="202" y="696" type="line" smooth="yes"/>
			<point x="286.5" y="696"/>
			<point x="343" y="555"/>
		</contour>
		<contour>
			<point x="151.5" y="0" type="line"/>
			<point x="202" y="0" type="line" smooth="yes"/>
			<point x="360" y="0"/>
			<point x="453" y="184"/>
			<point x="453" y="350" type="curve"/>
			<point x="343" y="350" type="line"/>
			<point x="343" y="145"/>
			<point x="286.5" y="4"/>
			<point x="202" y="4" type="curve" smooth="yes"/>
			<point x="151.5" y="4" type="line"/>
		</contour>
		<component base="_part.stem" xOffset="-22"/>
		<component base="_part.shortserif" xOffset="-22"/>
		<component base="_part.shortserif" xOffset="-22" yOffset="-696"/>
	</outline>
</glyph>
<glyph name="E" format="2">
	<advance width="415"/>
	<unicode hex="0045"/>
	<unicode hex="0065"/>
	<anchor x="295" y="0" name="ogonek"/>
	<anchor x="209" y="700" name="top"/>
	<anchor x="-4" y="700" name="topleft"/>
	<anchor x="195" y="0" name="bottom"/>
	<outline>
		<contour>
			<point x="315" y="0" type="line"/>
			<point x="354" y="0" type="line"/>
			<point x="409" y="168" type="line"/>
			<point x="402" y="168" type="line"/>
		</contour>
		<contour>
			<point x="201" y="0" type="line"/>
			<point x="337" y="0" type="line"/>
			<point x="337" y="4" type="line"/>
			<point x="201" y="4" type="line"/>
		</contour>
		<contour>
			<point x="260" y="309" type="line"/>
			<point x="268" y="309" type="line"/>
			<point x="268" y="425" type="line"/>
			<point x="243" y="425" type="line"/>
		</contour>
		<contour>
			<point x="161" y="421" type="line"/>
			<point x="268" y="421" type="line"/>
			<point x="268" y="425" type="line"/>
			<point x="161" y="425" type="line"/>
		</contour>
		<contour>
			<point x="243" y="421" type="line"/>
			<point x="268" y="421" type="line"/>
			<point x="268" y="537" type="line"/>
			<point x="260" y="537" type="line"/>
		</contour>
		<contour>
			<point x="372" y="532" type="line"/>
			<point x="379" y="532" type="line"/>
			<point x="354" y="700" type="line"/>
			<point x="315" y="700" type="line"/>
		</contour>
		<contour>
			<point x="221" y="696" type="line"/>
			<point x="347" y="696" type="line"/>
			<point x="347" y="700" type="line"/>
			<point x="221" y="700" type="line"/>
		</contour>
		<component base="_part.stemserifs" xOffset="-22"/>
	</outline>
</glyph>
<glyph name="F" format="2">
	<advance width="385"/>
	<unicode hex="0046"/>
	<unicode hex="0066"/>
	<anchor x="180" y="700" name="top"/>
	<anchor x="180" y="0" name="bottom"/>
	<outline>
		<contour>
			<point x="372" y="532" type="line"/>
			<point x="379" y="532" type="line"/>
			<point x="354" y="700" type="line"/>
			<point x="315" y="700" type="line"/>
		</contour>
		<contour>
			<point x="260" y="259" type="line"/>
			<point x="268" y="259" type="line"/>
			<point x="268" y="375" type="line"/>
			<point x="243" y="375" type="line"/>
		</contour>
		<contour>
			<point x="161" y="371" type="line"/>
			<point x="268" y="371" type="line"/>
			<point x="268" y="375" type="line"/>
			<point x="161" y="375" type="line"/>
		</contour>
		<contour>
			<point x="243" y="371" type="line"/>
			<point x="268" y="371" type="line"/>
			<point x="268" y="487" type="line"/>
			<point x="260" y="487" type="line"/>
		</contour>
		<contour>
			<point x="221" y="696" type="line"/>
			<point x="347" y="696" type="line"/>
			<point x="347" y="700" type="line"/>
			<point x="221" y="700" type="line"/>
		</contour>
		<component base="_part.stemserifs" xOffset="-22"/>
		<component base="_part.longserif" xScale="-1" yScale="-1" xOffset="270" yOffset="700"/>
	</outline>
</glyph>
<glyph name="G" format="2">
	<advance width="491"/>
	<unicode hex="0047"/>
	<unicode hex="0067"/>
	<anchor x="245" y="708" name="top"/>
	<anchor x="245" y="0" name="bottom"/>
	<outline>
		<contour>
			<point x="254" y="-8" type="curve"/>
			<point x="254" y="-4" type="line"/>
			<point x="177" y="-4"/>
			<point x="120" y="142"/>
			<point x="120" y="350" type="curve"/>
			<point x="10" y="350" type="line"/>
			<point x="10" y="174"/>
			<point x="96" y="-8"/>
		</contour>
		<contour>
			<point x="254" y="-4" type="curve"/>
			<point x="254" y="-8" type="line"/>
			<point x="317" y="-8"/>
			<point x="338" y="30.5"/>
			<point x="386" y="30.5" type="curve" smooth="yes"/>
			<point x="408.5" y="30.5"/>
			<point x="428" y="20.5"/>
			<point x="428" y="0" type="curve"/>
			<point x="434" y="0" type="line"/>
			<point x="434" y="427" type="line"/>
			<point x="334" y="427" type="line"/>
			<point x="334" y="57.5" type="line" smooth="yes"/>
			<point x="334" y="25.5"/>
			<point x="328.5" y="16.5"/>
			<point x="303.5" y="5" type="curve" smooth="yes"/>
			<point x="290.5" y="-0.5"/>
			<point x="270" y="-4"/>
		</contour>
		<contour>
			<point x="10" y="350" type="curve"/>
			<point x="120" y="350" type="line"/>
			<point x="120" y="558"/>
			<point x="168" y="704"/>
			<point x="245" y="704" type="curve"/>
			<point x="245" y="708" type="line"/>
			<point x="87" y="708"/>
			<point x="10" y="526"/>
		</contour>
		<contour>
			<point x="337" y="510" type="curve" smooth="yes"/>
			<point x="334" y="477" type="line"/>
			<point x="338" y="477" type="line"/>
			<point x="405" y="703" type="line"/>
			<point x="399" y="705" type="line"/>
			<point x="389" y="679"/>
			<point x="380" y="667"/>
			<point x="364" y="667" type="curve" smooth="yes"/>
			<point x="341" y="667"/>
			<point x="302" y="708"/>
			<point x="245" y="708" type="curve"/>
			<point x="245" y="704" type="line"/>
			<point x="331" y="704"/>
			<point x="346" y="609"/>
		</contour>
		<component base="_part.longserif" xOffset="242" yOffset="-273"/>
		<component base="_part.longserif" xOffset="182" yOffset="-273"/>
	</outline>
</glyph>
<glyph name="H" format="2">
	<advance width="532"/>
	<unicode hex="0048"/>
	<unicode hex="0068"/>
	<anchor x="266" y="350" name="center"/>
	<anchor x="266" y="700" name="top"/>
	<anchor x="-4" y="700" name="topleft"/>
	<anchor x="266" y="0" name="bottom"/>
	<outline>
		<contour>
			<point x="161" y="421" type="line"/>
			<point x="371" y="421" type="line"/>
			<point x="371" y="425" type="line"/>
			<point x="161" y="425" type="line"/>
		</contour>
		<component base="_part.stemserifs" xOffset="268"/>
		<component base="_part.stemserifs" xOffset="-22"/>
	</outline>
</glyph>
<glyph name="J" format="2">
	<advance width="387"/>
	<unicode hex="004A"/>
	<unicode hex="006A"/>
	<anchor x="206" y="700" name="top"/>
	<anchor x="206" y="0" name="bottom"/>
	<outline>
		<contour>
			<point x="180" y="-8" type="curve" smooth="yes"/>
			<point x="268" y="-8"/>
			<point x="320" y="45"/>
			<point x="320" y="140" type="curve"/>
			<point x="220" y="152" type="line"/>
			<point x="220" y="77"/>
			<point x="184" y="34"/>
			<point x="129" y="34" type="curve" smooth="yes"/>
			<point x="54" y="34"/>
			<point x="37" y="130"/>
			<point x="37" y="257" type="curve"/>
			<point x="33" y="237" type="line"/>
			<point x="33" y="86"/>
			<point x="72" y="-8"/>
		</contour>
		<contour>
			<point x="33" y="237" type="line"/>
			<point x="37" y="237" type="line"/>
			<point x="37" y="500" type="line"/>
			<point x="33" y="500" type="line"/>
		</contour>
		<contour>
			<point x="22" y="532" type="line"/>
			<point x="29" y="532" type="line"/>
			<point x="86" y="700" type="line"/>
			<point x="47" y="700" type="line"/>
		</contour>
		<contour>
			<point x="320" y="140" type="line"/>
			<point x="320" y="700" type="line"/>
			<point x="220" y="700" type="line"/>
			<point x="220" y="152" type="line"/>
		</contour>
		<contour>
			<point x="71" y="696" type="line"/>
			<point x="380" y="696" type="line"/>
			<point x="380" y="700" type="line"/>
			<point x="71" y="700" type="line"/>
		</contour>
	</outline>
</glyph>
<glyph name="K" format="2">
	<advance width="488"/>
	<unicode hex="004B"/>
	<unicode hex="006B"/>
	<anchor x="234" y="700" name="top"/>
	<anchor x="234" y="0" name="bottom"/>
	<outline>
		<contour>
			<point x="336" y="0" type="line"/>
			<point x="437" y="0" type="line"/>
			<point x="249" y="516" type="line"/>
			<point x="187" y="410" type="line"/>
		</contour>
		<contour>
			<point x="142.5" y="333" type="line"/>
			<point x="148" y="333" type="line"/>
			<point x="358" y="697" type="line"/>
			<point x="352.5" y="697" type="line"/>
		</contour>
		<contour>
			<point x="266" y="696" type="line"/>
			<point x="432.5" y="696" type="line"/>
			<point x="432.5" y="700" type="line"/>
			<point x="266" y="700" type="line"/>
		</contour>
		<component base="_part.stemserifs" xOffset="-22"/>
		<component base="_part.longserif" xOffset="234" yOffset="-696"/>
	</outline>
</glyph>
<glyph name="M" format="2">
	<advance width="544"/>
	<unicode hex="004D"/>
	<unicode hex="006D"/>
	<anchor x="272" y="700" name="top"/>
	<anchor x="272" y="0" name="bottom"/>
	<outline>
		<contour>
			<point x="226" y="-58" type="line"/>
			<point x="272" y="178.5" type="line"/>
			<point x="170" y="700" type="line"/>
			<point x="78" y="700" type="line"/>
		</contour>
		<contour>
			<point x="234.5" y="-0.5" type="line"/>
			<point x="238" y="3" type="line"/>
			<point x="374" y="700" type="line"/>
			<point x="370" y="700" type="line"/>
		</contour>
		<component base="_part.shortserif" xOffset="338.500"/>
		<component base="_part.stemthin" xOffset="-2"/>
		<component base="_part.halfstemright" xOffset="280"/>
	</outline>
</glyph>
<glyph name="N" format="2">
	<advance width="472"/>
	<unicode hex="004E"/>
	<unicode hex="006E"/>
	<anchor x="250" y="700" name="top"/>
	<anchor x="236" y="0" name="bottom"/>
	<outline>
		<contour>
			<point x="399" y="-45" type="line"/>
			<point x="399" y="203" type="line"/>
			<point x="158" y="700" type="line"/>
			<point x="73" y="700" type="line"/>
			<point x="73" y="628" type="line"/>
		</contour>
		<component base="_part.shortserif" xOffset="300"/>
		<component base="_part.stemthin" xOffset="-2"/>
		<component base="_part.verticalstrokethin" xOffset="320"/>
	</outline>
</glyph>
<glyph name="O" format="2">
	<advance width="470"/>
	<unicode hex="004F"/>
	<unicode hex="006F"/>
	<anchor x="235" y="350" name="center"/>
	<anchor x="451" y="10" name="ogonek"/>
	<anchor x="235" y="700" name="top"/>
	<anchor x="485" y="700" name="topright"/>
	<anchor x="-15" y="700" name="topleft"/>
	<anchor x="235" y="0" name="bottom"/>
	<outline>
		<contour>
			<point x="350" y="350" type="curve"/>
			<point x="460" y="350" type="line"/>
			<point x="460" y="526"/>
			<point x="393" y="708"/>
			<point x="235" y="708" type="curve"/>
			<point x="235" y="704" type="line"/>
			<point x="312" y="704"/>
			<point x="350" y="558"/>
		</contour>
		<contour>
			<point x="235" y="-8" type="curve"/>
			<point x="235" y="-4" type="line"/>
			<point x="158" y="-4"/>
			<point x="120" y="142"/>
			<point x="120" y="350" type="curve"/>
			<point x="10" y="350" type="line"/>
			<point x="10" y="174"/>
			<point x="77" y="-8"/>
		</contour>
		<contour>
			<point x="235" y="-4" type="curve"/>
			<point x="235" y="-8" type="line"/>
			<point x="393" y="-8"/>
			<point x="460" y="174"/>
			<point x="460" y="350" type="curve"/>
			<point x="350" y="350" type="line"/>
			<point x="350" y="142"/>
			<point x="312" y="-4"/>
		</contour>
		<contour>
			<point x="10" y="350" type="curve"/>
			<point x="120" y="350" type="line"/>
			<point x="120" y="558"/>
			<point x="158" y="704"/>
			<point x="235" y="704" type="curve"/>
			<point x="235" y="708" type="line"/>
			<point x="77" y="708"/>
			<point x="10" y="526"/>
		</contour>
	</outline>
</glyph>
<glyph name="P" format="2">
	<advance width="457"/>
	<unicode hex="0050"/>
	<unicode hex="0070"/>
	<outline>
		<contour>
			<point x="168" y="155" type="line"/>
			<point x="227" y="155" type="line" smooth="yes"/>
			<point x="357" y="155"/>
			<point x="434" y="273"/>
			<point x="434" y="450" type="curve"/>
			<point x="339" y="450" type="line"/>
			<point x="339" y="278"/>
			<point x="285.5" y="159"/>
			<point x="190" y="159" type="curve" smooth="yes"/>
			<point x="168" y="159" type="line"/>
		</contour>
		<contour>
			<point x="339" y="450" type="curve"/>
			<point x="434" y="450" type="line"/>
			<point x="434" y="600"/>
			<point x="357" y="700"/>
			<point x="227" y="700" type="curve" smooth="yes"/>
			<point x="168" y="700" type="line"/>
			<point x="168" y="696" type="line"/>
			<point x="190" y="696" type="line" smooth="yes"/>
			<point x="285.5" y="696"/>
			<point x="339" y="595"/>
		</contour>
		<component base="_part.halfstemleft" xOffset="-2"/>
		<component base="_part.longserif" xScale="-1" yScale="-1" xOffset="270" yOffset="700"/>
	</outline>
</glyph>
<glyph name="Q" format="2">
	<advance width="476"/>
	<unicode hex="0051"/>
	<unicode hex="0071"/>
	<anchor x="238" y="700" name="top"/>
	<anchor x="238" y="0" name="bottom"/>
	<outline>
		<contour>
			<point x="376" y="-94" type="curve" smooth="yes"/>
			<point x="413.5" y="-94"/>
			<point x="451" y="-69"/>
			<point x="487.5" y="-28.5" type="curve"/>
			<point x="483" y="-24" type="line"/>
			<point x="445" y="-64"/>
			<point x="412" y="-78"/>
			<point x="391" y="-78" type="curve" smooth="yes"/>
			<point x="343.5" y="-78"/>
			<point x="320.5" y="-37"/>
			<point x="276" y="126" type="curve" smooth="yes"/>
			<point x="266" y="163.5"/>
			<point x="244" y="189"/>
			<point x="217" y="189" type="curve" smooth="yes"/>
			<point x="196" y="189"/>
			<point x="160.5" y="164.5"/>
			<point x="127.5" y="128" type="curve"/>
			<point x="131.5" y="124" type="line"/>
			<point x="142.5" y="134"/>
			<point x="155.5" y="141"/>
			<point x="164" y="141" type="curve" smooth="yes"/>
			<point x="194" y="141"/>
			<point x="214" y="98"/>
			<point x="237" y="49" type="curve" smooth="yes"/>
			<point x="267.5" y="-17"/>
			<point x="304" y="-94"/>
		</contour>
		<component base="O"/>
	</outline>
</glyph>
<glyph name="R" format="2">
	<advance width="457"/>
	<unicode hex="0052"/>
	<unicode hex="0072"/>
	<anchor x="228" y="700" name="top"/>
	<anchor x="278" y="0" name="bottom"/>
	<outline>
		<contour>
			<point x="453" y="-8" type="curve" smooth="yes"/>
			<point x="476" y="-8"/>
			<point x="496" y="-4"/>
			<point x="504" y="1" type="curve"/>
			<point x="501" y="4" type="line"/>
			<point x="498" y="3"/>
			<point x="493" y="2"/>
			<point x="490" y="2" type="curve" smooth="yes"/>
			<point x="385" y="2"/>
			<point x="411" y="217"/>
			<point x="352" y="317" type="curve" smooth="yes"/>
			<point x="319" y="375"/>
			<point x="245" y="386"/>
			<point x="157" y="386" type="curve"/>
			<point x="157" y="381" type="line"/>
			<point x="373" y="381"/>
			<point x="210" y="-8"/>
		</contour>
		<contour>
			<point x="168" y="384" type="curve"/>
			<point x="168" y="382" type="line"/>
			<point x="343" y="382"/>
			<point x="425" y="468"/>
			<point x="425" y="551" type="curve" smooth="yes"/>
			<point x="425" y="624"/>
			<point x="358" y="700"/>
			<point x="227" y="700" type="curve" smooth="yes"/>
			<point x="168" y="700" type="line"/>
			<point x="168" y="696" type="line"/>
			<point x="190" y="696" type="line" smooth="yes"/>
			<point x="284" y="696"/>
			<point x="330" y="623"/>
			<point x="330" y="550" type="curve" smooth="yes"/>
			<point x="330" y="472.5"/>
			<point x="277" y="384"/>
		</contour>
		<component base="_part.stemserifs" xOffset="-22"/>
	</outline>
</glyph>
<glyph name="S" format="2">
	<advance width="404"/>
	<unicode hex="0053"/>
	<unicode hex="0073"/>
	<anchor x="219" y="708" name="top"/>
	<anchor x="195" y="0" name="bottom"/>
	<outline>
		<contour>
			<point x="199" y="-8" type="curve" smooth="yes"/>
			<point x="310" y="-8"/>
			<point x="392" y="73"/>
			<point x="392" y="194" type="curve" smooth="yes"/>
			<point x="392" y="281"/>
			<point x="326" y="344"/>
			<point x="281" y="389" type="curve" smooth="yes"/>
			<point x="236" y="434"/>
			<point x="133" y="504"/>
			<point x="133" y="612" type="curve" smooth="yes"/>
			<point x="133" y="660"/>
			<point x="168" y="704"/>
			<point x="219" y="704" type="curve" smooth="yes"/>
			<point x="304" y="704"/>
			<point x="320" y="609"/>
			<point x="311" y="510" type="curve" smooth="yes"/>
			<point x="308" y="477" type="line"/>
			<point x="312" y="477" type="line"/>
			<point x="379" y="703" type="line"/>
			<point x="373" y="705" type="line"/>
			<point x="363" y="679"/>
			<point x="354" y="667"/>
			<point x="338" y="667" type="curve" smooth="yes"/>
			<point x="315" y="667"/>
			<point x="276" y="708"/>
			<point x="219" y="708" type="curve" smooth="yes"/>
			<point x="120" y="708"/>
			<point x="51" y="630"/>
			<point x="51" y="538" type="curve" smooth="yes"/>
			<point x="51" y="433"/>
			<point x="154" y="363"/>
			<point x="199" y="318" type="curve" smooth="yes"/>
			<point x="244" y="273"/>
			<point x="310" y="209"/>
			<point x="310" y="122" type="curve" smooth="yes"/>
			<point x="310" y="46"/>
			<point x="266" y="-4"/>
			<point x="199" y="-4" type="curve" smooth="yes"/>
			<point x="65" y="-4"/>
			<point x="69.5" y="153.5"/>
			<point x="97.5" y="330" type="curve"/>
			<point x="91" y="331.5" type="line"/>
			<point x="7" y="23.5" type="line"/>
			<point x="13.5" y="23.5" type="line"/>
			<point x="17.5" y="37.5"/>
			<point x="25.5" y="47.5"/>
			<point x="38.5" y="48" type="curve" smooth="yes"/>
			<point x="51" y="48.5"/>
			<point x="66.5" y="37"/>
			<point x="92.5" y="23.5" type="curve" smooth="yes"/>
			<point x="121.5" y="8.5"/>
			<point x="162" y="-8"/>
		</contour>
	</outline>
</glyph>
<glyph name="T" format="2">
	<advance width="426"/>
	<unicode hex="0054"/>
	<unicode hex="0074"/>
	<anchor x="213" y="350" name="center"/>
	<anchor x="213" y="0" name="bottom"/>
	<anchor x="213" y="700" name="top"/>
	<outline>
		<contour>
			<point x="404.5" y="467" type="line"/>
			<point x="413" y="467" type="line"/>
			<point x="391" y="700" type="line"/>
			<point x="340.5" y="700" type="line"/>
		</contour>
		<contour>
			<point x="13" y="467" type="line"/>
			<point x="21.5" y="467" type="line"/>
			<point x="85.5" y="700" type="line"/>
			<point x="35" y="700" type="line"/>
		</contour>
		<contour>
			<point x="57" y="696" type="line"/>
			<point x="143" y="696" type="line"/>
			<point x="143" y="700" type="line"/>
			<point x="57" y="700" type="line"/>
		</contour>
		<contour>
			<point x="283" y="696" type="line"/>
			<point x="369" y="696" type="line"/>
			<point x="369" y="700" type="line"/>
			<point x="283" y="700" type="line"/>
		</contour>
		<component base="_part.stemserifs" xOffset="70"/>
	</outline>
</glyph>
<glyph name="U" format="2">
	<advance width="450"/>
	<unicode hex="0055"/>
	<unicode hex="0075"/>
	<anchor x="244" y="-8" name="ogonek"/>
	<anchor x="258" y="700" name="top"/>
	<anchor x="457" y="700" name="topright"/>
	<anchor x="228" y="0" name="bottom"/>
	<outline>
		<contour>
			<point x="244" y="-8" type="curve" smooth="yes"/>
			<point x="354" y="-8"/>
			<point x="380" y="61.5"/>
			<point x="380" y="219.5" type="curve"/>
			<point x="376" y="219.5" type="line"/>
			<point x="376" y="82"/>
			<point x="345" y="22.5"/>
			<point x="264.5" y="22.5" type="curve" smooth="yes"/>
			<point x="209.5" y="22.5"/>
			<point x="173" y="50.5"/>
			<point x="173" y="140" type="curve"/>
			<point x="73" y="140" type="line"/>
			<point x="73" y="51"/>
			<point x="136.5" y="-8"/>
		</contour>
		<contour>
			<point x="73" y="140" type="line"/>
			<point x="173" y="140" type="line"/>
			<point x="173" y="700" type="line"/>
			<point x="73" y="700" type="line"/>
		</contour>
		<contour>
			<point x="376" y="219.5" type="line"/>
			<point x="380" y="219.5" type="line"/>
			<point x="380" y="700" type="line"/>
			<point x="376" y="700" type="line"/>
		</contour>
		<component base="_part.longserif" xOffset="-20"/>
		<component base="_part.shortserif" xOffset="281"/>
	</outline>
</glyph>
<glyph name="W" format="2">
	<advance width="622"/>
	<unicode hex="0057"/>
	<unicode hex="0077"/>
	<anchor x="321" y="700" name="top"/>
	<anchor x="316" y="0" name="bottom"/>
	<outline>
		<contour>
			<point x="428.5" y="-37" type="line"/>
			<point x="480" y="187" type="line"/>
			<point x="361" y="700" type="line"/>
			<point x="259" y="700" type="line"/>
		</contour>
		<contour>
			<point x="200.5" y="-37" type="line"/>
			<point x="252" y="187" type="line"/>
			<point x="133" y="700" type="line"/>
			<point x="31" y="700" type="line"/>
		</contour>
		<contour>
			<point x="341" y="595" type="line"/>
			<point x="198" y="-24" type="line"/>
			<point x="200.5" y="-37" type="line"/>
			<point x="346" y="595" type="line"/>
		</contour>
		<contour>
			<point x="428.5" y="-37" type="line"/>
			<point x="598" y="700" type="line"/>
			<point x="593.5" y="700" type="line"/>
			<point x="426" y="-24" type="line"/>
		</contour>
		<component base="_part.longserif" xOffset="-60"/>
		<component base="_part.shortserif" xOffset="488"/>
		<component base="_part.longserif" xOffset="166"/>
	</outline>
</glyph>
<glyph name="X" format="2">
	<advance width="413"/>
	<unicode hex="0058"/>
	<unicode hex="0078"/>
	<anchor x="222" y="700" name="top"/>
	<anchor x="222" y="0" name="bottom"/>
	<outline>
		<contour>
			<point x="279" y="0" type="line"/>
			<point x="380" y="0" type="line"/>
			<point x="125" y="700" type="line"/>
			<point x="24" y="700" type="line"/>
		</contour>
		<contour>
			<point x="31" y="0" type="line"/>
			<point x="36" y="0" type="line"/>
			<point x="206" y="398" type="line"/>
			<point x="201" y="398" type="line"/>
		</contour>
		<contour>
			<point x="180" y="337" type="line"/>
			<point x="185" y="337" type="line"/>
			<point x="340" y="700" type="line"/>
			<point x="335" y="700" type="line"/>
		</contour>
		<component base="_part.shortserif" xOffset="243"/>
		<component base="_part.shortserif" xOffset="-60" yOffset="-696"/>
		<component base="_part.longserif" xOffset="-60"/>
		<component base="_part.longserif" xOffset="187" yOffset="-696"/>
	</outline>
</glyph>
<glyph name="Z" format="2">
	<advance width="400"/>
	<unicode hex="005A"/>
	<unicode hex="007A"/>
	<anchor x="200" y="350" name="center"/>
	<anchor x="200" y="0" name="bottom"/>
	<anchor x="200" y="700" name="top"/>
	<outline>
		<contour>
			<point x="13" y="0" type="line"/>
			<point x="114" y="0" type="line"/>
			<point x="369" y="700" type="line"/>
			<point x="268" y="700" type="line"/>
		</contour>
		<contour>
			<point x="79" y="0" type="line"/>
			<point x="315" y="0" type="line"/>
			<point x="315" y="4" type="line"/>
			<point x="79" y="4" type="line"/>
		</contour>
		<contour>
			<point x="293" y="0" type="line"/>
			<point x="332" y="0" type="line"/>
			<point x="387" y="168" type="line"/>
			<point x="380" y="168" type="line"/>
		</contour>
		<contour>
			<point x="30" y="532" type="line"/>
			<point x="37" y="532" type="line"/>
			<point x="94" y="700" type="line"/>
			<point x="55" y="700" type="line"/>
		</contour>
		<contour>
			<point x="62" y="696" type="line"/>
			<point x="289" y="696" type="line"/>
			<point x="289" y="700" type="line"/>
			<point x="62" y="700" type="line"/>
		</contour>
	</outline>
</glyph>
<glyph name="bracketleft" format="2">
	<advance width="192"/>
	<unicode hex="005B"/>
	<outline>
		<contour>
			<point x="21" y="-50" type="line"/>
			<point x="101" y="-50" type="line"/>
			<point x="101" y="700" type="line"/>
			<point x="21" y="700" type="line"/>
		</contour>
		<contour>
			<point x="21" y="-50" type="line"/>
			<point x="181" y="-50" type="line"/>
			<point x="181" y="-42" type="line"/>
			<point x="21" y="-42" type="line"/>
		</contour>
		<contour>
			<point x="21" y="692" type="line"/>
			<point x="181" y="692" type="line"/>
			<point x="181" y="700" type="line"/>
			<point x="21" y="700" type="line"/>
		</contour>
	</outline>
</glyph>
<glyph name="asciicircum" format="2">
	<advance width="228.5"/>
	<unicode hex="005E"/>
	<outline>
		<contour>
			<point x="29" y="495" type="line"/>
			<point x="122" y="645.5" type="line"/>
			<point x="199.5" y="495" type="line"/>
			<point x="205.5" y="500" type="line"/>
			<point x="122" y="758.5" type="line"/>
			<point x="23" y="500" type="line"/>
		</contour>
	</outline>
</glyph>
<glyph name="underscore" format="2">
	<advance width="366"/>
	<unicode hex="005F"/>
	<outline>
		<contour>
			<point x="33" y="-25" type="line"/>
			<point x="333" y="-25" type="line"/>
			<point x="333" y="-17" type="line"/>
			<point x="33" y="-17" type="line"/>
		</contour>
	</outline>
</glyph>
<glyph name="braceleft" format="2">
	<advance width="251"/>
	<unicode hex="007B"/>
	<outline>
		<contour>
			<point x="68" y="550" type="curve"/>
			<point x="158" y="550" type="line"/>
			<point x="158" y="683.5"/>
			<point x="167.5" y="749"/>
			<point x="243" y="749.5" type="curve"/>
			<point x="243" y="753.5" type="line"/>
			<point x="103" y="754"/>
			<point x="68" y="684"/>
		</contour>
		<contour>
			<point x="243" y="-52.5" type="curve"/>
			<point x="243" y="-48.5" type="line"/>
			<point x="167.5" y="-48"/>
			<point x="158" y="17.5"/>
			<point x="158" y="151" type="curve"/>
			<point x="68" y="151" type="line"/>
			<point x="68" y="17"/>
			<point x="103" y="-53"/>
		</contour>
		<contour>
			<point x="68" y="151" type="curve"/>
			<point x="158" y="151" type="line"/>
			<point x="158" y="314.5"/>
			<point x="83" y="354"/>
			<point x="8" y="353.5" type="curve"/>
			<point x="8" y="347.5" type="line"/>
			<point x="56" y="347"/>
			<point x="68" y="307"/>
		</contour>
		<contour>
			<point x="8" y="353.5" type="curve"/>
			<point x="8" y="347.5" type="line"/>
			<point x="83" y="347"/>
			<point x="158" y="386.5"/>
			<point x="158" y="550" type="curve"/>
			<point x="68" y="550" type="line"/>
			<point x="68" y="394"/>
			<point x="56" y="354"/>
		</contour>
	</outline>
</glyph>
<glyph name="bar" format="2">
	<advance width="117"/>
	<unicode hex="007C"/>
	<outline>
		<contour>
			<point x="47" y="-100" type="line"/>
			<point x="70" y="-100" type="line"/>
			<point x="70" y="700" type="line"/>
			<point x="47" y="700" type="line"/>
		</contour>
	</outline>
</glyph>
<glyph name="yen" format="2">
	<advance width="408"/>
	<unicode hex="00A5"/>
	<outline>
		<contour>
			<point x="156" y="252" type="line"/>
			<point x="255" y="267.5" type="line"/>
			<point x="160.5" y="700" type="line"/>
			<point x="58" y="700" type="line"/>
		</contour>
		<contour>
			<point x="47.5" y="113.5" type="line"/>
			<point x="362.5" y="113.5" type="line"/>
			<point x="362.5" y="117.5" type="line"/>
			<point x="47.5" y="117.5" type="line"/>
		</contour>
		<contour>
			<point x="155" y="0" type="line"/>
			<point x="255" y="0" type="line"/>
			<point x="255" y="267.5" type="line"/>
			<point x="155" y="267.5" type="line"/>
		</contour>
		<contour>
			<point x="47.5" y="190.5" type="line"/>
			<point x="362.5" y="190.5" type="line"/>
			<point x="362.5" y="194.5" type="line"/>
			<point x="47.5" y="194.5" type="line"/>
		</contour>
		<contour>
			<point x="252" y="252" type="line"/>
			<point x="350" y="700" type="line"/>
			<point x="345.5" y="700" type="line"/>
			<point x="251" y="267.5" type="line"/>
		</contour>
		<contour>
			<point x="280" y="696" type="line"/>
			<point x="408" y="696" type="line"/>
			<point x="408" y="700" type="line"/>
			<point x="280" y="700" type="line"/>
		</contour>
		<component base="_part.longserif" xOffset="-33"/>
		<component base="_part.longserif" xScale="-1" yScale="-1" xOffset="348" yOffset="700"/>
	</outline>
</glyph>
<glyph name="copyright" format="2">
	<advance width="801"/>
	<unicode hex="00A9"/>
	<outline>
		<contour>
			<point x="400.5" y="-17.5" type="curve" smooth="yes"/>
			<point x="603.5" y="-17.5"/>
			<point x="768" y="147"/>
			<point x="768" y="350" type="curve" smooth="yes"/>
			<point x="768" y="553"/>
			<point x="603.5" y="717.5"/>
			<point x="400.5" y="717.5" type="curve" smooth="yes"/>
			<point x="197.5" y="717.5"/>
			<point x="33" y="553"/>
			<point x="33" y="350" type="curve" smooth="yes"/>
			<point x="33" y="147"/>
			<point x="197.5" y="-17.5"/>
		</contour>
		<contour>
			<point x="400.5" y="10" type="curve" smooth="yes"/>
			<point x="213" y="10"/>
			<point x="60.5" y="162.5"/>
			<point x="60.5" y="350" type="curve" smooth="yes"/>
			<point x="60.5" y="537.5"/>
			<point x="213" y="690"/>
			<point x="400.5" y="690" type="curve" smooth="yes"/>
			<point x="588" y="690"/>
			<point x="740.5" y="537.5"/>
			<point x="740.5" y="350" type="curve" smooth="yes"/>
			<point x="740.5" y="162.5"/>
			<point x="588" y="10"/>
		</contour>
		<component base="C" xScale="0.7692" yScale="0.7692" xOffset="227" yOffset="81"/>
	</outline>
</glyph>
<glyph name="guillemotleft" format="2">
	<advance width="276.5"/>
	<unicode hex="00AB"/>
	<outline>
		<contour>
			<point x="173" y="319.5" type="line"/>
			<point x="197" y="319.5"/>
			<point x="229" y="356.5"/>
			<point x="253.5" y="412.5" type="curve"/>
			<point x="247.5" y="417.5" type="line"/>
			<point x="219.5" y="374.5"/>
			<point x="176.5" y="337.5"/>
			<point x="121" y="325" type="curve"/>
			<point x="121" y="320" type="line"/>
		</contour>
		<contour>
			<point x="149.5" y="228.5" type="curve"/>
			<point x="155.5" y="233.5" type="line"/>
			<point x="131" y="289.5"/>
			<point x="99" y="326.5"/>
			<point x="75" y="326.5" type="curve"/>
			<point x="23" y="326" type="line"/>
			<point x="23" y="321" type="line"/>
			<point x="79.5" y="308.5"/>
			<point x="122" y="270.5"/>
		</contour>
		<contour>
			<point x="75" y="319.5" type="line"/>
			<point x="99" y="319.5"/>
			<point x="131" y="356.5"/>
			<point x="155.5" y="412.5" type="curve"/>
			<point x="149.5" y="417.5" type="line"/>
			<point x="121.5" y="374.5"/>
			<point x="78.5" y="337.5"/>
			<point x="23" y="325" type="curve"/>
			<point x="23" y="320" type="line"/>
		</contour>
		<contour>
			<point x="247.5" y="228.5" type="curve"/>
			<point x="253.5" y="233.5" type="line"/>
			<point x="229" y="289.5"/>
			<point x="197" y="326.5"/>
			<point x="173" y="326.5" type="curve"/>
			<point x="121" y="326" type="line"/>
			<point x="121" y="321" type="line"/>
			<point x="177.5" y="308.5"/>
			<point x="220" y="270.5"/>
		</contour>
	</outline>
</glyph>
<glyph name="AE" format="2">
	<advance width="579"/>
	<unicode hex="00C6"/>
	<unicode hex="00E6"/>
	<outline>
		<contour>
			<point x="21.5" y="0" type="line"/>
			<point x="26" y="0" type="line"/>
			<point x="281" y="700" type="line"/>
			<point x="276.5" y="700" type="line"/>
		</contour>
		<contour>
			<point x="-27" y="0" type="line"/>
			<point x="101" y="0" type="line"/>
			<point x="101" y="4" type="line"/>
			<point x="-27" y="4" type="line"/>
		</contour>
		<contour>
			<point x="58.5" y="99" type="line"/>
			<point x="142.5" y="99" type="line"/>
			<point x="100.5" y="214.5" type="line"/>
		</contour>
		<contour>
			<point x="65.5" y="101" type="line"/>
			<point x="315.5" y="101" type="line"/>
			<point x="315.5" y="105" type="line"/>
			<point x="65.5" y="105" type="line"/>
		</contour>
		<contour>
			<point x="479" y="0" type="line"/>
			<point x="518" y="0" type="line"/>
			<point x="573" y="168" type="line"/>
			<point x="566" y="168" type="line"/>
		</contour>
		<contour>
			<point x="476.5" y="303" type="line"/>
			<point x="485" y="303" type="line"/>
			<point x="485" y="419" type="line"/>
			<point x="459.5" y="419" type="line"/>
		</contour>
		<contour>
			<point x="285" y="0" type="line"/>
			<point x="385" y="0" type="line"/>
			<point x="385" y="700" type="line"/>
			<point x="285" y="700" type="line"/>
		</contour>
		<contour>
			<point x="375" y="415" type="line"/>
			<point x="485" y="415" type="line"/>
			<point x="485" y="419" type="line"/>
			<point x="375" y="419" type="line"/>
		</contour>
		<contour>
			<point x="459.5" y="415" type="line"/>
			<point x="485" y="415" type="line"/>
			<point x="485" y="531" type="line"/>
			<point x="476.5" y="531" type="line"/>
		</contour>
		<contour>
			<point x="195.5" y="696" type="line"/>
			<point x="355.5" y="696" type="line"/>
			<point x="355.5" y="700" type="line"/>
			<point x="195.5" y="700" type="line"/>
		</contour>
		<contour>
			<point x="535" y="532" type="line"/>
			<point x="542" y="532" type="line"/>
			<point x="517" y="700" type="line"/>
			<point x="478" y="700" type="line"/>
		</contour>
		<contour>
			<point x="385" y="696" type="line"/>
			<point x="511" y="696" type="line"/>
			<point x="511" y="700" type="line"/>
			<point x="385" y="700" type="line"/>
		</contour>
		<contour>
			<point x="225" y="0" type="line"/>
			<point x="501" y="0" type="line"/>
			<point x="501" y="4" type="line"/>
			<point x="225" y="4" type="line"/>
		</contour>
	</outline>
</glyph>
<glyph name="Eth" format="2">
	<advance width="546"/>
	<unicode hex="00D0"/>
	<unicode hex="00F0"/>
	<outline>
		<contour>
			<point x="426" y="350" type="curve"/>
			<point x="536" y="350" type="line"/>
			<point x="536" y="526"/>
			<point x="419" y="700"/>
			<point x="206" y="700" type="curve"/>
			<point x="149.5" y="700" type="line"/>
			<point x="149.5" y="696" type="line"/>
			<point x="206" y="696" type="line"/>
			<point x="338" y="696"/>
			<point x="426" y="558"/>
		</contour>
		<contour>
			<point x="149.5" y="0" type="line"/>
			<point x="206" y="0" type="line"/>
			<point x="419" y="0"/>
			<point x="536" y="184"/>
			<point x="536" y="350" type="curve"/>
			<point x="426" y="350" type="line"/>
			<point x="426" y="152"/>
			<point x="338" y="4"/>
			<point x="206" y="4" type="curve"/>
			<point x="149.5" y="4" type="line"/>
		</contour>
		<component base="_part.stem" xOffset="-22"/>
		<component base="_part.shortserif" xOffset="-22"/>
		<component base="_part.shortserif" xOffset="-22" yOffset="-696"/>
		<component base="_part.wavestrokehorizontal" xOffset="113"/>
	</outline>
</glyph>
<glyph name="Thorn" format="2">
	<advance width="459"/>
	<unicode hex="00DE"/>
	<unicode hex="00FE"/>
	<anchor x="225" y="700" name="top"/>
	<anchor x="225" y="0" name="bottom"/>
	<outline>
		<contour>
			<point x="351" y="350" type="curve"/>
			<point x="446" y="350" type="line"/>
			<point x="446" y="480"/>
			<point x="357" y="550"/>
			<point x="229" y="550" type="curve" smooth="yes"/>
			<point x="170" y="550" type="line"/>
			<point x="170" y="546" type="line"/>
			<point x="192" y="546" type="line" smooth="yes"/>
			<point x="279" y="546"/>
			<point x="351" y="488"/>
		</contour>
		<contour>
			<point x="170" y="155" type="line"/>
			<point x="229" y="155" type="line" smooth="yes"/>
			<point x="357" y="155"/>
			<point x="446" y="227"/>
			<point x="446" y="350" type="curve"/>
			<point x="351" y="350" type="line"/>
			<point x="351" y="232"/>
			<point x="287" y="159"/>
			<point x="192" y="159" type="curve" smooth="yes"/>
			<point x="170" y="159" type="line"/>
		</contour>
		<component base="_part.stemserifs" xOffset="-20"/>
	</outline>
</glyph>
<glyph name="Hbar" format="2">
	<advance width="532"/>
	<unicode hex="0126"/>
	<unicode hex="0127"/>
	<outline>
		<contour>
			<point x="23" y="564" type="line"/>
			<point x="503" y="564" type="line"/>
			<point x="503" y="568" type="line"/>
			<point x="23" y="568" type="line"/>
		</contour>
		<component base="H"/>
	</outline>
</glyph>
<glyph name="IJ" format="2">
	<advance width="625"/>
	<unicode hex="0132"/>
	<unicode hex="0133"/>
	<outline>
		<contour>
			<point x="271.5" y="500" type="line"/>
			<point x="269" y="500" type="line"/>
			<point x="4" y="315" type="line"/>
			<point x="11.5" y="315" type="line"/>
			<point x="271.5" y="496.5" type="line"/>
		</contour>
		<component base="I" xOffset="1"/>
		<component base="J" xOffset="236"/>
	</outline>
</glyph>
<glyph name="Lslash" format="2">
	<advance width="377"/>
	<unicode hex="0141"/>
	<unicode hex="0142"/>
	<outline>
		<contour>
			<point x="30" y="327.5" type="line"/>
			<point x="272.5" y="467.5" type="line"/>
			<point x="270.5" y="471" type="line"/>
			<point x="28" y="331" type="line"/>
		</contour>
		<component base="L"/>
	</outline>
</glyph>
<glyph name="Eng" format="2">
	<advance width="476"/>
	<unicode hex="014A"/>
	<unicode hex="014B"/>
	<anchor x="258" y="700" name="top"/>
	<anchor x="238" y="0" name="bottom"/>
	<outline>
		<contour>
			<point x="401" y="-49" type="line"/>
			<point x="401" y="203" type="line"/>
			<point x="160" y="700" type="line"/>
			<point x="73" y="700" type="line"/>
			<point x="73" y="628" type="line"/>
		</contour>
		<contour>
			<point x="356.5" y="-177.5" type="curve" smooth="yes"/>
			<point x="383.5" y="-177.5"/>
			<point x="401" y="-131.5"/>
			<point x="401" y="-67" type="curve" smooth="yes"/>
			<point x="401" y="0" type="line"/>
			<point x="397" y="0" type="line"/>
			<point x="397" y="-67" type="line" smooth="yes"/>
			<point x="397" y="-103.5"/>
			<point x="383" y="-127.5"/>
			<point x="364.5" y="-127.5" type="curve" smooth="yes"/>
			<point x="343.5" y="-127.5"/>
			<point x="320.5" y="-101.5"/>
			<point x="308.5" y="-63" type="curve"/>
			<point x="305" y="-67.5" type="line"/>
			<point x="308.5" y="-133.5"/>
			<point x="327.5" y="-177.5"/>
		</contour>
		<component base="_part.shortserif" xOffset="302"/>
		<component base="_part.stemthin"/>
		<component base="_part.verticalstrokethin" xOffset="322"/>
	</outline>
</glyph>
<glyph name="OE" format="2">
	<advance width="569"/>
	<unicode hex="0152"/>
	<unicode hex="0153"/>
	<outline>
		<contour>
			<point x="10" y="350" type="curve"/>
			<point x="120" y="350" type="line"/>
			<point x="120" y="558"/>
			<point x="158" y="696"/>
			<point x="285" y="696" type="curve"/>
			<point x="285" y="700" type="line"/>
			<point x="77" y="700"/>
			<point x="10" y="526"/>
		</contour>
		<contour>
			<point x="285" y="0" type="curve"/>
			<point x="285" y="4" type="line"/>
			<point x="158" y="4"/>
			<point x="120" y="142"/>
			<point x="120" y="350" type="curve"/>
			<point x="10" y="350" type="line"/>
			<point x="10" y="174"/>
			<point x="77" y="0"/>
		</contour>
		<contour>
			<point x="355" y="0" type="line"/>
			<point x="491" y="0" type="line"/>
			<point x="491" y="4" type="line"/>
			<point x="355" y="4" type="line"/>
		</contour>
		<contour>
			<point x="469" y="0" type="line"/>
			<point x="508" y="0" type="line"/>
			<point x="563" y="168" type="line"/>
			<point x="556" y="168" type="line"/>
		</contour>
		<contour>
			<point x="275" y="0" type="line"/>
			<point x="375" y="0" type="line"/>
			<point x="375" y="700" type="line"/>
			<point x="275" y="700" type="line"/>
		</contour>
		<contour>
			<point x="465" y="303" type="line"/>
			<point x="473.5" y="303" type="line"/>
			<point x="473.5" y="419" type="line"/>
			<point x="448" y="419" type="line"/>
		</contour>
		<contour>
			<point x="365" y="415" type="line"/>
			<point x="473.5" y="415" type="line"/>
			<point x="473.5" y="419" type="line"/>
			<point x="365" y="419" type="line"/>
		</contour>
		<contour>
			<point x="448" y="415" type="line"/>
			<point x="473.5" y="415" type="line"/>
			<point x="473.5" y="531" type="line"/>
			<point x="465" y="531" type="line"/>
		</contour>
		<contour>
			<point x="525" y="532" type="line"/>
			<point x="532" y="532" type="line"/>
			<point x="507" y="700" type="line"/>
			<point x="468" y="700" type="line"/>
		</contour>
		<contour>
			<point x="375" y="696" type="line"/>
			<point x="501" y="696" type="line"/>
			<point x="501" y="700" type="line"/>
			<point x="375" y="700" type="line"/>
		</contour>
	</outline>
</glyph>
<glyph name="Tbar" format="2">
	<advance width="426"/>
	<unicode hex="0166"/>
	<unicode hex="0167"/>
	<outline>
		<contour>
			<point x="73" y="334" type="line"/>
			<point x="353" y="334" type="line"/>
			<point x="353" y="338" type="line"/>
			<point x="73" y="338" type="line"/>
		</contour>
		<component base="T"/>
	</outline>
</glyph>
<glyph name="uni0302" format="2">
	<advance width="0"/>
	<unicode hex="0302"/>
	<anchor x="-106.5" y="859" name="top"/>
	<anchor x="-113.5" y="700" name="_top"/>
	<outline>
		<contour>
			<point x="-202" y="746" type="line"/>
			<point x="-106.5" y="795.5" type="line"/>
			<point x="-26.5" y="746" type="line"/>
			<point x="-23" y="751" type="line"/>
			<point x="-106.5" y="858.5" type="line"/>
			<point x="-205.5" y="751" type="line"/>
		</contour>
	</outline>
</glyph>
<glyph name="tildecomb" format="2">
	<advance width="0"/>
	<unicode hex="0303"/>
	<anchor x="-153.5" y="829" name="top"/>
	<anchor x="-153.5" y="700" name="_top"/>
	<outline>
		<contour>
			<point x="-123" y="754.5" type="curve" smooth="yes"/>
			<point x="-88" y="754.5"/>
			<point x="-48" y="783"/>
			<point x="-23" y="825.5" type="curve"/>
			<point x="-27.5" y="830.5" type="line"/>
			<point x="-49.5" y="808"/>
			<point x="-70" y="798.5"/>
			<point x="-92" y="798.5" type="curve" smooth="yes"/>
			<point x="-133.5" y="798.5"/>
			<point x="-159.5" y="829"/>
			<point x="-200.5" y="829" type="curve" smooth="yes"/>
			<point x="-227.5" y="829"/>
			<point x="-259" y="806"/>
			<point x="-279.5" y="771" type="curve"/>
			<point x="-274.5" y="766" type="line"/>
			<point x="-258" y="786"/>
			<point x="-244" y="793"/>
			<point x="-230" y="793" type="curve" smooth="yes"/>
			<point x="-201" y="793"/>
			<point x="-163.5" y="754.5"/>
		</contour>
	</outline>
</glyph>
<glyph name="uni0306" format="2">
	<advance width="0"/>
	<unicode hex="0306"/>
	<anchor x="-113.5" y="853" name="top"/>
	<anchor x="-113.5" y="700" name="_top"/>
	<outline>
		<contour>
			<point x="-122" y="750" type="curve" smooth="yes"/>
			<point x="-58.5" y="750"/>
			<point x="-23" y="789"/>
			<point x="-23" y="853" type="curve"/>
			<point x="-26" y="853" type="line"/>
			<point x="-26" y="823.5"/>
			<point x="-66" y="800"/>
			<point x="-122" y="800" type="curve" smooth="yes"/>
			<point x="-169" y="800"/>
			<point x="-202.5" y="823.5"/>
			<point x="-202.5" y="853" type="curve"/>
			<point x="-205.5" y="853" type="line"/>
			<point x="-205.5" y="789"/>
			<point x="-175.5" y="750"/>
		</contour>
	</outline>
</glyph>
<glyph name="uni0307" format="2">
	<advance width="0"/>
	<unicode hex="0307"/>
	<anchor x="-62" y="700" name="_top"/>
	<outline>
		<contour>
			<point x="-63" y="747.5" type="curve" smooth="yes"/>
			<point x="-41" y="747.5"/>
			<point x="-23" y="765.5"/>
			<point x="-23" y="787.5" type="curve" smooth="yes"/>
			<point x="-23" y="809.5"/>
			<point x="-41" y="827.5"/>
			<point x="-63" y="827.5" type="curve" smooth="yes"/>
			<point x="-84.5" y="827.5"/>
			<point x="-103" y="809.5"/>
			<point x="-103" y="787.5" type="curve" smooth="yes"/>
			<point x="-103" y="765.5"/>
			<point x="-84.5" y="747.5"/>
		</contour>
	</outline>
</glyph>
<glyph name="uni0308" format="2">
	<advance width="0"/>
	<unicode hex="0308"/>
	<anchor x="-145" y="825" name="top"/>
	<anchor x="-145" y="700" name="_top"/>
	<outline>
		<contour>
			<point x="-60.5" y="750" type="curve" smooth="yes"/>
			<point x="-40" y="750"/>
			<point x="-23" y="767"/>
			<point x="-23" y="787.5" type="curve" smooth="yes"/>
			<point x="-23" y="808"/>
			<point x="-40" y="825"/>
			<point x="-60.5" y="825" type="curve" smooth="yes"/>
			<point x="-81" y="825"/>
			<point x="-98" y="808"/>
			<point x="-98" y="787.5" type="curve" smooth="yes"/>
			<point x="-98" y="767"/>
			<point x="-81" y="750"/>
		</contour>
		<contour>
			<point x="-230.5" y="750" type="curve" smooth="yes"/>
			<point x="-210" y="750"/>
			<point x="-193" y="767"/>
			<point x="-193" y="787.5" type="curve" smooth="yes"/>
			<point x="-193" y="808"/>
			<point x="-210" y="825"/>
			<point x="-230.5" y="825" type="curve" smooth="yes"/>
			<point x="-251" y="825"/>
			<point x="-268" y="808"/>
			<point x="-268" y="787.5" type="curve" smooth="yes"/>
			<point x="-268" y="767"/>
			<point x="-251" y="750"/>
		</contour>
	</outline>
</glyph>
<glyph name="uni030A" format="2">
	<advance width="0"/>
	<unicode hex="030A"/>
	<anchor x="-73" y="844" name="top"/>
	<anchor x="-73" y="700" name="_top"/>
	<outline>
		<contour>
			<point x="-73" y="744.5" type="curve" smooth="yes"/>
			<point x="-45.5" y="744.5"/>
			<point x="-23.5" y="766.5"/>
			<point x="-23.5" y="794" type="curve" smooth="yes"/>
			<point x="-23.5" y="821.5"/>
			<point x="-45.5" y="843.5"/>
			<point x="-73" y="843.5" type="curve" smooth="yes"/>
			<point x="-100" y="843.5"/>
			<point x="-122.5" y="821.5"/>
			<point x="-122.5" y="794" type="curve" smooth="yes"/>
			<point x="-122.5" y="766.5"/>
			<point x="-100" y="744.5"/>
		</contour>
		<contour>
			<point x="-73" y="768" type="curve" smooth="yes"/>
			<point x="-86.5" y="768"/>
			<point x="-99" y="780"/>
			<point x="-99" y="794" type="curve" smooth="yes"/>
			<point x="-99" y="808"/>
			<point x="-86.5" y="820"/>
			<point x="-73" y="820" type="curve" smooth="yes"/>
			<point x="-59" y="820"/>
			<point x="-47" y="808"/>
			<point x="-47" y="794" type="curve" smooth="yes"/>
			<point x="-47" y="780"/>
			<point x="-59" y="768"/>
		</contour>
	</outline>
</glyph>
<glyph name="uni030B" format="2">
	<advance width="0"/>
	<unicode hex="030B"/>
	<anchor x="-117.5" y="876" name="top"/>
	<anchor x="-134.5" y="700" name="_top"/>
	<outline>
		<contour>
			<point x="-92.5" y="744" type="line"/>
			<point x="-85.5" y="744" type="line"/>
			<point x="-35" y="875.5" type="line"/>
			<point x="-83" y="875.5" type="line"/>
		</contour>
		<contour>
			<point x="-187.5" y="744" type="line"/>
			<point x="-180.5" y="744" type="line"/>
			<point x="-130" y="875.5" type="line"/>
			<point x="-178" y="875.5" type="line"/>
		</contour>
	</outline>
</glyph>
<glyph name="uni030C" format="2">
	<advance width="0"/>
	<unicode hex="030C"/>
	<guideline x="115" y="700" angle="90"/>
	<anchor x="-113.5" y="859" name="top"/>
	<anchor x="-113.5" y="700" name="_top"/>
	<outline>
		<contour>
			<point x="-113.5" y="744" type="line"/>
			<point x="-14.5" y="852.5" type="line"/>
			<point x="-18" y="857.5" type="line"/>
			<point x="-113.5" y="807" type="line"/>
			<point x="-193.5" y="857.5" type="line"/>
			<point x="-197" y="852.5" type="line"/>
		</contour>
	</outline>
</glyph>
<glyph name="uni0327" format="2">
	<advance width="0"/>
	<unicode hex="0327"/>
	<anchor x="-83" y="0" name="_bottom"/>
	<anchor x="-81" y="-180" name="bottom"/>
	<outline>
		<contour>
			<point x="-82" y="-179" type="curve" smooth="yes"/>
			<point x="-42.5" y="-179"/>
			<point x="-23.5" y="-144"/>
			<point x="-23.5" y="-113" type="curve" smooth="yes"/>
			<point x="-23.5" y="-83"/>
			<point x="-41" y="-53.5"/>
			<point x="-75.5" y="-53.5" type="curve" smooth="yes"/>
			<point x="-87" y="-53.5"/>
			<point x="-98" y="-59"/>
			<point x="-107" y="-73" type="curve"/>
			<point x="-105" y="-73" type="line"/>
			<point x="-65" y="5" type="line"/>
			<point x="-98" y="5" type="line"/>
			<point x="-116" y="-87" type="line"/>
			<point x="-110.5" y="-89" type="line"/>
			<point x="-105" y="-78"/>
			<point x="-98" y="-73.5"/>
			<point x="-91" y="-73.5" type="curve" smooth="yes"/>
			<point x="-73.5" y="-73.5"/>
			<point x="-63" y="-95"/>
			<point x="-63" y="-116.5" type="curve" smooth="yes"/>
			<point x="-63" y="-138"/>
			<point x="-73.5" y="-160"/>
			<point x="-97" y="-160" type="curve" smooth="yes"/>
			<point x="-111" y="-160"/>
			<point x="-122" y="-153"/>
			<point x="-127" y="-138" type="curve"/>
			<point x="-132" y="-141.5" type="line"/>
			<point x="-123" y="-168"/>
			<point x="-102" y="-179"/>
		</contour>
	</outline>
</glyph>
<glyph name="uni0328" format="2">
	<advance width="0"/>
	<unicode hex="0328"/>
	<anchor x="-80" y="0" name="_ogonek"/>
	<outline>
		<contour>
			<point x="-90.5" y="-177.5" type="curve" smooth="yes"/>
			<point x="-50.5" y="-177.5"/>
			<point x="-22" y="-133.5"/>
			<point x="-18" y="-67.5" type="curve"/>
			<point x="-22" y="-63" type="line"/>
			<point x="-33.5" y="-107"/>
			<point x="-58" y="-136.5"/>
			<point x="-83" y="-136.5" type="curve" smooth="yes"/>
			<point x="-101" y="-136.5"/>
			<point x="-110" y="-119"/>
			<point x="-110" y="-95" type="curve" smooth="yes"/>
			<point x="-110" y="-65.5"/>
			<point x="-96.5" y="-26"/>
			<point x="-70.5" y="0" type="curve"/>
			<point x="-70.5" y="5" type="line"/>
			<point x="-79" y="5" type="line"/>
			<point x="-79" y="0" type="line"/>
			<point x="-116" y="-29"/>
			<point x="-141" y="-79.5"/>
			<point x="-141" y="-117.5" type="curve" smooth="yes"/>
			<point x="-141" y="-153.5"/>
			<point x="-121" y="-177.5"/>
		</contour>
	</outline>
</glyph>
<glyph name="uni1E9E" format="2">
	<advance width="541.5"/>
	<unicode hex="1E9E"/>
	<unicode hex="00DF"/>
	<outline>
		<contour>
			<point x="379.5" y="-5" type="curve" smooth="yes"/>
			<point x="463.5" y="-5"/>
			<point x="518.5" y="51"/>
			<point x="518.5" y="134.5" type="curve" smooth="yes"/>
			<point x="518.5" y="180.5"/>
			<point x="502" y="223"/>
			<point x="432" y="272.5" type="curve" smooth="yes"/>
			<point x="400.5" y="294.5"/>
			<point x="392.5" y="309"/>
			<point x="392.5" y="344.5" type="curve" smooth="yes"/>
			<point x="392.5" y="402"/>
			<point x="449.5" y="500"/>
			<point x="449.5" y="578" type="curve" smooth="yes"/>
			<point x="449.5" y="656"/>
			<point x="388.5" y="708"/>
			<point x="297" y="708" type="curve" smooth="yes"/>
			<point x="156.5" y="708"/>
			<point x="63" y="636"/>
			<point x="63" y="548.5" type="curve"/>
			<point x="163" y="551.5" type="line"/>
			<point x="164" y="607"/>
			<point x="191.5" y="704"/>
			<point x="297" y="704" type="curve" smooth="yes"/>
			<point x="358" y="704"/>
			<point x="398.5" y="676.5"/>
			<point x="398.5" y="635" type="curve" smooth="yes"/>
			<point x="398.5" y="595.5"/>
			<point x="375.5" y="560.5"/>
			<point x="352" y="525" type="curve" smooth="yes"/>
			<point x="321.5" y="478"/>
			<point x="303.5" y="444"/>
			<point x="303.5" y="415" type="curve" smooth="yes"/>
			<point x="303.5" y="366"/>
			<point x="346.5" y="329.5"/>
			<point x="427" y="271" type="curve" smooth="yes"/>
			<point x="456.5" y="249"/>
			<point x="467" y="169.5"/>
			<point x="436" y="129.5" type="curve" smooth="yes"/>
			<point x="413" y="100"/>
			<point x="373" y="83"/>
			<point x="341.5" y="83" type="curve" smooth="yes"/>
			<point x="263" y="83"/>
			<point x="210.5" y="130"/>
			<point x="210.5" y="198.5" type="curve"/>
			<point x="204.5" y="198.5" type="line"/>
			<point x="205" y="76.5"/>
			<point x="269.5" y="-5"/>
		</contour>
		<contour>
			<point x="63" y="0" type="line"/>
			<point x="163" y="0" type="line"/>
			<point x="163" y="551.5" type="line"/>
			<point x="63" y="548.5" type="line"/>
		</contour>
		<component base="_part.longserif" xScale="-1" yScale="-1" xOffset="316" yOffset="700"/>
		<component base="_part.longserif" xScale="-1" yScale="-1" xOffset="256" yOffset="700"/>
	</outline>
</glyph>
<glyph name="endash" format="2">
	<advance width="336"/>
	<unicode hex="2013"/>
	<outline>
		<contour>
			<point x="3" y="281" type="line"/>
			<point x="333" y="281" type="line"/>
			<point x="333" y="289" type="line"/>
			<point x="3" y="289" type="line"/>
		</contour>
	</outline>
</glyph>
<glyph name="quoteright" format="2">
	<advance width="155.5"/>
	<unicode hex="2019"/>
	<outline>
		<contour>
			<point x="40.5" y="487.5" type="curve"/>
			<point x="43.5" y="482.5" type="line"/>
			<point x="83" y="526"/>
			<point x="132.5" y="596"/>
			<point x="132.5" y="645" type="curve" smooth="yes"/>
			<point x="132.5" y="678"/>
			<point x="110.5" y="700"/>
			<point x="78" y="700" type="curve" smooth="yes"/>
			<point x="47.5" y="700"/>
			<point x="23" y="675.5"/>
			<point x="23" y="645.5" type="curve" smooth="yes"/>
			<point x="23" y="614.5"/>
			<point x="49" y="589.5"/>
			<point x="81" y="589.5" type="curve" smooth="yes"/>
			<point x="85.5" y="589.5"/>
			<point x="90" y="590"/>
			<point x="94" y="591" type="curve" smooth="yes"/>
			<point x="101.5" y="593"/>
			<point x="104.5" y="591"/>
			<point x="104.5" y="586" type="curve" smooth="yes"/>
			<point x="104.5" y="569"/>
			<point x="59.5" y="509.5"/>
		</contour>
	</outline>
</glyph>
<glyph name="dagger" format="2">
	<advance width="231"/>
	<unicode hex="2020"/>
	<outline>
		<contour>
			<point x="113" y="285" type="line"/>
			<point x="117" y="285" type="line"/>
			<point x="140.5" y="536.5" type="line"/>
			<point x="149.5" y="700" type="line"/>
			<point x="113" y="700" type="line"/>
		</contour>
		<contour>
			<point x="23" y="518" type="line"/>
			<point x="29.5" y="518" type="line"/>
			<point x="41.5" y="596.5" type="line"/>
			<point x="23" y="596.5" type="line"/>
		</contour>
		<contour>
			<point x="114" y="285" type="line"/>
			<point x="118" y="285" type="line"/>
			<point x="118" y="700" type="line"/>
			<point x="81.5" y="700" type="line"/>
			<point x="90.5" y="536.5" type="line"/>
		</contour>
		<contour>
			<point x="23" y="591" type="line"/>
			<point x="41.5" y="591" type="line"/>
			<point x="29.5" y="670" type="line"/>
			<point x="23" y="670" type="line"/>
		</contour>
		<contour>
			<point x="104.5" y="582" type="line"/>
			<point x="104.5" y="606" type="line"/>
			<point x="36.5" y="595.5" type="line"/>
			<point x="36.5" y="592" type="line"/>
		</contour>
		<contour>
			<point x="126.5" y="582" type="line"/>
			<point x="194.5" y="592" type="line"/>
			<point x="194.5" y="595.5" type="line"/>
			<point x="126.5" y="606" type="line"/>
		</contour>
		<contour>
			<point x="201.5" y="518" type="line"/>
			<point x="208" y="518" type="line"/>
			<point x="208" y="596.5" type="line"/>
			<point x="189.5" y="596.5" type="line"/>
		</contour>
		<contour>
			<point x="61.5" y="694" type="line"/>
			<point x="147" y="694" type="line"/>
			<point x="147" y="700" type="line"/>
			<point x="61.5" y="700" type="line"/>
		</contour>
		<contour>
			<point x="84" y="694" type="line"/>
			<point x="169.5" y="694" type="line"/>
			<point x="169.5" y="700" type="line"/>
			<point x="84" y="700" type="line"/>
		</contour>
		<contour>
			<point x="189.5" y="591" type="line"/>
			<point x="208" y="591" type="line"/>
			<point x="208" y="670" type="line"/>
			<point x="201.5" y="670" type="line"/>
		</contour>
	</outline>
</glyph>
<glyph name="daggerdbl" format="2">
	<advance width="255"/>
	<unicode hex="2021"/>
	<outline>
		<contour>
			<point x="93.5" y="322.5" type="line"/>
			<point x="161.5" y="322.5" type="line"/>
			<point x="135.5" y="511" type="line"/>
			<point x="161.5" y="700" type="line"/>
			<point x="93.5" y="700" type="line"/>
			<point x="119.5" y="511" type="line"/>
		</contour>
		<contour>
			<point x="35" y="350.5" type="line"/>
			<point x="41.5" y="350.5" type="line"/>
			<point x="53.5" y="429" type="line"/>
			<point x="35" y="429" type="line"/>
		</contour>
		<contour>
			<point x="73.5" y="322.5" type="line"/>
			<point x="159" y="322.5" type="line"/>
			<point x="159" y="328.5" type="line"/>
			<point x="73.5" y="328.5" type="line"/>
		</contour>
		<contour>
			<point x="96" y="322.5" type="line"/>
			<point x="181.5" y="322.5" type="line"/>
			<point x="181.5" y="328.5" type="line"/>
			<point x="96" y="328.5" type="line"/>
		</contour>
		<contour>
			<point x="35" y="424" type="line"/>
			<point x="53.5" y="424" type="line"/>
			<point x="41.5" y="502.5" type="line"/>
			<point x="35" y="502.5" type="line"/>
		</contour>
		<contour>
			<point x="116.5" y="414.5" type="line"/>
			<point x="116.5" y="438.5" type="line"/>
			<point x="48.5" y="428" type="line"/>
			<point x="48.5" y="424.5" type="line"/>
		</contour>
		<contour>
			<point x="138.5" y="414.5" type="line"/>
			<point x="206.5" y="424.5" type="line"/>
			<point x="206.5" y="428" type="line"/>
			<point x="138.5" y="438.5" type="line"/>
		</contour>
		<contour>
			<point x="213.5" y="350.5" type="line"/>
			<point x="220" y="350.5" type="line"/>
			<point x="220" y="429" type="line"/>
			<point x="201.5" y="429" type="line"/>
		</contour>
		<contour>
			<point x="35" y="520" type="line"/>
			<point x="41.5" y="520" type="line"/>
			<point x="53.5" y="598.5" type="line"/>
			<point x="35" y="598.5" type="line"/>
		</contour>
		<contour>
			<point x="201.5" y="424" type="line"/>
			<point x="220" y="424" type="line"/>
			<point x="220" y="502.5" type="line"/>
			<point x="213.5" y="502.5" type="line"/>
		</contour>
		<contour>
			<point x="35" y="593" type="line"/>
			<point x="53.5" y="593" type="line"/>
			<point x="41.5" y="672" type="line"/>
			<point x="35" y="672" type="line"/>
		</contour>
		<contour>
			<point x="116.5" y="584" type="line"/>
			<point x="116.5" y="608" type="line"/>
			<point x="48.5" y="597.5" type="line"/>
			<point x="48.5" y="594" type="line"/>
		</contour>
		<contour>
			<point x="138.5" y="584" type="line"/>
			<point x="206.5" y="594" type="line"/>
			<point x="206.5" y="597.5" type="line"/>
			<point x="138.5" y="608" type="line"/>
		</contour>
		<contour>
			<point x="213.5" y="520" type="line"/>
			<point x="220" y="520" type="line"/>
			<point x="220" y="598.5" type="line"/>
			<point x="201.5" y="598.5" type="line"/>
		</contour>
		<contour>
			<point x="73.5" y="694" type="line"/>
			<point x="159" y="694" type="line"/>
			<point x="159" y="700" type="line"/>
			<point x="73.5" y="700" type="line"/>
		</contour>
		<contour>
			<point x="96" y="694" type="line"/>
			<point x="181.5" y="694" type="line"/>
			<point x="181.5" y="700" type="line"/>
			<point x="96" y="700" type="line"/>
		</contour>
		<contour>
			<point x="201.5" y="593" type="line"/>
			<point x="220" y="593" type="line"/>
			<point x="220" y="672" type="line"/>
			<point x="213.5" y="672" type="line"/>
		</contour>
	</outline>
</glyph>
<glyph name="guilsinglleft" format="2">
	<advance width="228.5"/>
	<unicode hex="2039"/>
	<outline>
		<contour>
			<point x="75" y="319.5" type="line"/>
			<point x="123" y="319.5"/>
			<point x="175" y="356.5"/>
			<point x="205.5" y="412.5" type="curve"/>
			<point x="199.5" y="417.5" type="line"/>
			<point x="175.5" y="378.5"/>
			<point x="100" y="343.5"/>
			<point x="23" y="325" type="curve"/>
			<point x="23" y="320" type="line"/>
		</contour>
		<contour>
			<point x="199.5" y="228.5" type="curve"/>
			<point x="205.5" y="233.5" type="line"/>
			<point x="175" y="289.5"/>
			<point x="123" y="326.5"/>
			<point x="75" y="326.5" type="curve"/>
			<point x="23" y="326" type="line"/>
			<point x="23" y="321" type="line"/>
			<point x="99.5" y="304"/>
			<point x="175" y="267"/>
		</contour>
	</outline>
</glyph>
<glyph name="uni2055" format="2">
	<advance width="571"/>
	<unicode hex="2055"/>
	<outline>
		<contour>
			<point x="280" y="342" type="curve"/>
			<point x="285.5" y="366"/>
			<point x="304.5" y="400"/>
			<point x="355" y="413.5" type="curve" smooth="yes"/>
			<point x="384" y="420.5"/>
			<point x="415" y="417.5"/>
			<point x="442" y="444.5" type="curve" smooth="yes"/>
			<point x="463" y="465.5"/>
			<point x="475" y="500.5"/>
			<point x="472" y="535" type="curve"/>
			<point x="467.5" y="535.5" type="line"/>
			<point x="466" y="519"/>
			<point x="459.5" y="506.5"/>
			<point x="450.5" y="497.5" type="curve" smooth="yes"/>
			<point x="428.5" y="475.5"/>
			<point x="397.5" y="476.5"/>
			<point x="367.5" y="469.5" type="curve" smooth="yes"/>
			<point x="347" y="465"/>
			<point x="329" y="455"/>
			<point x="315" y="440.5" type="curve" smooth="yes"/>
			<point x="291.5" y="417"/>
			<point x="277.5" y="382.5"/>
		</contour>
		<contour>
			<point x="99" y="165" type="curve"/>
			<point x="103.5" y="164.5" type="line"/>
			<point x="105" y="181"/>
			<point x="111.5" y="193.5"/>
			<point x="120.5" y="202.5" type="curve" smooth="yes"/>
			<point x="142.5" y="224.5"/>
			<point x="173.5" y="223.5"/>
			<point x="203.5" y="230.5" type="curve" smooth="yes"/>
			<point x="224" y="235"/>
			<point x="242" y="245"/>
			<point x="256" y="259.5" type="curve" smooth="yes"/>
			<point x="279.5" y="283"/>
			<point x="293.5" y="317.5"/>
			<point x="291" y="358" type="curve"/>
			<point x="285.5" y="334"/>
			<point x="266.5" y="300"/>
			<point x="216" y="286.5" type="curve" smooth="yes"/>
			<point x="187" y="279.5"/>
			<point x="156" y="282.5"/>
			<point x="129" y="255.5" type="curve" smooth="yes"/>
			<point x="108" y="234.5"/>
			<point x="96" y="199.5"/>
		</contour>
		<contour>
			<point x="200" y="307" type="curve" smooth="yes"/>
			<point x="233.5" y="307"/>
			<point x="268" y="321"/>
			<point x="294.5" y="351.5" type="curve"/>
			<point x="274.5" y="338.5"/>
			<point x="236.5" y="328"/>
			<point x="191.5" y="354.5" type="curve" smooth="yes"/>
			<point x="166" y="370"/>
			<point x="146" y="394"/>
			<point x="108" y="394" type="curve" smooth="yes"/>
			<point x="78.5" y="394"/>
			<point x="45" y="378"/>
			<point x="23" y="351" type="curve"/>
			<point x="25.5" y="348" type="line"/>
			<point x="38" y="358.5"/>
			<point x="51.5" y="362.5"/>
			<point x="64.5" y="362.5" type="curve" smooth="yes"/>
			<point x="95" y="362.5"/>
			<point x="116.5" y="340"/>
			<point x="142.5" y="323.5" type="curve" smooth="yes"/>
			<point x="160.5" y="312.5"/>
			<point x="180" y="307"/>
		</contour>
		<contour>
			<point x="284.5" y="87.5" type="curve"/>
			<point x="287.5" y="90" type="line"/>
			<point x="277" y="102.5"/>
			<point x="273" y="116"/>
			<point x="273" y="129" type="curve" smooth="yes"/>
			<point x="273" y="159.5"/>
			<point x="295.5" y="181"/>
			<point x="312" y="207.5" type="curve" smooth="yes"/>
			<point x="323" y="225"/>
			<point x="328.5" y="244.5"/>
			<point x="328.5" y="264.5" type="curve" smooth="yes"/>
			<point x="328.5" y="298"/>
			<point x="314" y="332.5"/>
			<point x="284" y="359.5" type="curve"/>
			<point x="297" y="339.5"/>
			<point x="308" y="301"/>
			<point x="281" y="256" type="curve" smooth="yes"/>
			<point x="266" y="230.5"/>
			<point x="241.5" y="210.5"/>
			<point x="241.5" y="172.5" type="curve" smooth="yes"/>
			<point x="241.5" y="142.5"/>
			<point x="258" y="109.5"/>
		</contour>
		<contour>
			<point x="470.5" y="163.5" type="curve"/>
			<point x="471" y="168" type="line"/>
			<point x="454.5" y="169.5"/>
			<point x="442" y="176"/>
			<point x="433" y="185" type="curve" smooth="yes"/>
			<point x="411" y="207"/>
			<point x="412" y="238"/>
			<point x="405" y="268" type="curve" smooth="yes"/>
			<point x="400.5" y="288.5"/>
			<point x="390.5" y="306.5"/>
			<point x="376" y="320.5" type="curve" smooth="yes"/>
			<point x="352.5" y="344"/>
			<point x="318" y="358"/>
			<point x="277.5" y="355.5" type="curve"/>
			<point x="301" y="350.5"/>
			<point x="336" y="331"/>
			<point x="349" y="280.5" type="curve" smooth="yes"/>
			<point x="356" y="251.5"/>
			<point x="353" y="220.5"/>
			<point x="380" y="193.5" type="curve" smooth="yes"/>
			<point x="401" y="172.5"/>
			<point x="436" y="160.5"/>
		</contour>
		<contour>
			<point x="285" y="344.5" type="curve" smooth="yes"/>
			<point x="288" y="344.5"/>
			<point x="290" y="347"/>
			<point x="290" y="349.5" type="curve" smooth="yes"/>
			<point x="290" y="352.5"/>
			<point x="288" y="354.5"/>
			<point x="285" y="354.5" type="curve" smooth="yes"/>
			<point x="282.5" y="354.5"/>
			<point x="280" y="352.5"/>
			<point x="280" y="349.5" type="curve" smooth="yes"/>
			<point x="280" y="347"/>
			<point x="282.5" y="344.5"/>
		</contour>
		<contour>
			<point x="293.5" y="344.5" type="curve"/>
			<point x="270" y="349.5"/>
			<point x="235" y="369"/>
			<point x="222" y="419.5" type="curve" smooth="yes"/>
			<point x="215" y="448.5"/>
			<point x="218" y="479.5"/>
			<point x="191" y="506.5" type="curve" smooth="yes"/>
			<point x="170" y="527.5"/>
			<point x="135" y="539.5"/>
			<point x="100.5" y="536.5" type="curve"/>
			<point x="100" y="532" type="line"/>
			<point x="116.5" y="530.5"/>
			<point x="129" y="524"/>
			<point x="138" y="515" type="curve" smooth="yes"/>
			<point x="160" y="493"/>
			<point x="159" y="462"/>
			<point x="166" y="432" type="curve" smooth="yes"/>
			<point x="170.5" y="411.5"/>
			<point x="180.5" y="393.5"/>
			<point x="195" y="379.5" type="curve" smooth="yes"/>
			<point x="218.5" y="356"/>
			<point x="253" y="342"/>
		</contour>
		<contour>
			<point x="287" y="340.5" type="curve"/>
			<point x="274" y="360.5"/>
			<point x="263" y="399"/>
			<point x="290" y="444" type="curve" smooth="yes"/>
			<point x="305" y="469.5"/>
			<point x="329.5" y="489.5"/>
			<point x="329.5" y="527.5" type="curve" smooth="yes"/>
			<point x="329.5" y="557.5"/>
			<point x="313" y="590.5"/>
			<point x="286.5" y="612.5" type="curve"/>
			<point x="283.5" y="610" type="line"/>
			<point x="294" y="597.5"/>
			<point x="298" y="584"/>
			<point x="298" y="571" type="curve" smooth="yes"/>
			<point x="298" y="540.5"/>
			<point x="275.5" y="519"/>
			<point x="259" y="492.5" type="curve" smooth="yes"/>
			<point x="248" y="475"/>
			<point x="242.5" y="455.5"/>
			<point x="242.5" y="435.5" type="curve" smooth="yes"/>
			<point x="242.5" y="402"/>
			<point x="257" y="367.5"/>
		</contour>
		<contour>
			<point x="463" y="306" type="curve" smooth="yes"/>
			<point x="492.5" y="306"/>
			<point x="526" y="322"/>
			<point x="548" y="349" type="curve"/>
			<point x="545.5" y="352" type="line"/>
			<point x="533" y="341.5"/>
			<point x="519.5" y="337.5"/>
			<point x="506.5" y="337.5" type="curve" smooth="yes"/>
			<point x="476" y="337.5"/>
			<point x="454.5" y="360"/>
			<point x="428.5" y="376.5" type="curve" smooth="yes"/>
			<point x="410.5" y="387.5"/>
			<point x="391" y="393"/>
			<point x="371" y="393" type="curve" smooth="yes"/>
			<point x="337.5" y="393"/>
			<point x="303" y="379"/>
			<point x="276.5" y="348.5" type="curve"/>
			<point x="296.5" y="361.5"/>
			<point x="334.5" y="372"/>
			<point x="379.5" y="345.5" type="curve" smooth="yes"/>
			<point x="405" y="330"/>
			<point x="425" y="306"/>
		</contour>
	</outline>
</glyph>
<glyph name="Euro" format="2">
	<advance width="442"/>
	<unicode hex="20AC"/>
	<outline>
		<contour>
			<point x="43" y="350" type="curve"/>
			<point x="153" y="350" type="line"/>
			<point x="153" y="558"/>
			<point x="191" y="704"/>
			<point x="268" y="704" type="curve"/>
			<point x="268" y="708" type="line"/>
			<point x="110" y="708"/>
			<point x="43" y="526"/>
		</contour>
		<contour>
			<point x="268" y="-8" type="curve"/>
			<point x="268" y="-4" type="line"/>
			<point x="191" y="-4"/>
			<point x="153" y="142"/>
			<point x="153" y="350" type="curve"/>
			<point x="43" y="350" type="line"/>
			<point x="43" y="174"/>
			<point x="110" y="-8"/>
		</contour>
		<contour>
			<point x="-2" y="310" type="line"/>
			<point x="328" y="310" type="line"/>
			<point x="328" y="314" type="line"/>
			<point x="-2" y="314" type="line"/>
		</contour>
		<contour>
			<point x="-2" y="387" type="line"/>
			<point x="328" y="387" type="line"/>
			<point x="328" y="391" type="line"/>
			<point x="-2" y="391" type="line"/>
		</contour>
		<contour>
			<point x="268" y="-4" type="curve"/>
			<point x="268" y="-8" type="line"/>
			<point x="294.5" y="-8"/>
			<point x="326.5" y="11.5"/>
			<point x="350.5" y="57.5" type="curve" smooth="yes"/>
			<point x="362.5" y="79"/>
			<point x="380" y="87"/>
			<point x="393" y="87" type="curve" smooth="yes"/>
			<point x="411" y="87"/>
			<point x="424" y="69"/>
			<point x="418" y="40" type="curve"/>
			<point x="424" y="40" type="line"/>
			<point x="428.5" y="60.5"/>
			<point x="431" y="85"/>
			<point x="431" y="112" type="curve" smooth="yes"/>
			<point x="431" y="177.5"/>
			<point x="417.5" y="258"/>
			<point x="392.5" y="332" type="curve"/>
			<point x="386.5" y="330" type="line"/>
			<point x="388.5" y="321"/>
			<point x="390" y="301"/>
			<point x="390" y="280" type="curve" smooth="yes"/>
			<point x="390" y="82"/>
			<point x="322" y="-4"/>
		</contour>
		<contour>
			<point x="268" y="708" type="curve"/>
			<point x="268" y="704" type="line"/>
			<point x="322" y="704"/>
			<point x="390" y="643"/>
			<point x="390" y="445" type="curve" smooth="yes"/>
			<point x="390" y="424"/>
			<point x="388.5" y="404"/>
			<point x="386.5" y="395" type="curve"/>
			<point x="392.5" y="393" type="line"/>
			<point x="417.5" y="467"/>
			<point x="431" y="547.5"/>
			<point x="431" y="613" type="curve" smooth="yes"/>
			<point x="431" y="640"/>
			<point x="428.5" y="664.5"/>
			<point x="424" y="685" type="curve"/>
			<point x="418" y="685" type="line"/>
			<point x="424" y="654"/>
			<point x="414" y="636"/>
			<point x="393.5" y="636" type="curve" smooth="yes"/>
			<point x="373" y="636"/>
			<point x="362.5" y="647"/>
			<point x="351.5" y="660.5" type="curve" smooth="yes"/>
			<point x="328" y="687.5"/>
			<point x="309" y="708"/>
		</contour>
	</outline>
</glyph>
<glyph name="uni2698" format="2">
	<advance width="544"/>
	<unicode hex="2698"/>
	<outline>
		<contour>
			<point x="474.5" y="215.5" type="curve"/>
			<point x="475.5" y="219.5" type="line"/>
			<point x="443.5" y="222"/>
			<point x="423.5" y="260.5"/>
			<point x="402.5" y="301" type="curve" smooth="yes"/>
			<point x="377" y="347.5"/>
			<point x="350.5" y="399"/>
			<point x="305" y="394.5" type="curve" smooth="yes"/>
			<point x="290.5" y="393"/>
			<point x="279.5" y="389.5"/>
			<point x="272" y="379" type="curve"/>
			<point x="272" y="372" type="line"/>
			<point x="298" y="372"/>
			<point x="312.5" y="322.5"/>
			<point x="344.5" y="276" type="curve" smooth="yes"/>
			<point x="376.5" y="230"/>
			<point x="428.5" y="215.5"/>
		</contour>
		<contour>
			<point x="68.5" y="219.5" type="curve"/>
			<point x="70" y="215.5" type="line"/>
			<point x="115.5" y="215.5"/>
			<point x="167.5" y="230"/>
			<point x="199.5" y="276" type="curve" smooth="yes"/>
			<point x="232" y="322.5"/>
			<point x="246.5" y="372"/>
			<point x="272" y="372" type="curve"/>
			<point x="272" y="379" type="line"/>
			<point x="265" y="389.5"/>
			<point x="253.5" y="393"/>
			<point x="239" y="394.5" type="curve" smooth="yes"/>
			<point x="193.5" y="399"/>
			<point x="167" y="347.5"/>
			<point x="142" y="301" type="curve" smooth="yes"/>
			<point x="121" y="260.5"/>
			<point x="100.5" y="222"/>
		</contour>
		<contour>
			<point x="266.5" y="119" type="curve"/>
			<point x="272" y="119" type="line"/>
			<point x="272" y="356" type="line"/>
			<point x="265.5" y="355.5" type="line"/>
			<point x="254" y="322.5"/>
			<point x="233" y="298"/>
			<point x="233" y="255" type="curve" smooth="yes"/>
			<point x="233" y="230"/>
			<point x="247.5" y="174.5"/>
		</contour>
		<contour>
			<point x="272" y="119" type="line"/>
			<point x="277.5" y="119" type="line"/>
			<point x="297" y="174.5"/>
			<point x="311" y="230"/>
			<point x="311" y="255" type="curve" smooth="yes"/>
			<point x="311" y="298"/>
			<point x="290" y="322.5"/>
			<point x="278.5" y="355.5" type="curve"/>
			<point x="272" y="356" type="line"/>
		</contour>
		<contour>
			<point x="97" y="354" type="curve" smooth="yes"/>
			<point x="151" y="354"/>
			<point x="188.5" y="407.5"/>
			<point x="241.5" y="407.5" type="curve" smooth="yes"/>
			<point x="263" y="407.5"/>
			<point x="269" y="403"/>
			<point x="272" y="400.5" type="curve"/>
			<point x="272.5" y="409" type="line"/>
			<point x="259.5" y="430"/>
			<point x="232" y="446.5"/>
			<point x="210.5" y="446.5" type="curve" smooth="yes"/>
			<point x="138.5" y="446.5"/>
			<point x="100.5" y="384"/>
			<point x="46" y="384" type="curve" smooth="yes"/>
			<point x="38.5" y="384"/>
			<point x="33.5" y="386"/>
			<point x="26.5" y="389.5" type="curve"/>
			<point x="24" y="385" type="line"/>
			<point x="51" y="365.5"/>
			<point x="73.5" y="354"/>
		</contour>
		<contour>
			<point x="257" y="436.5" type="curve"/>
			<point x="261.5" y="441" type="line"/>
			<point x="254.5" y="462"/>
			<point x="242.5" y="478.5"/>
			<point x="229.5" y="488" type="curve" smooth="yes"/>
			<point x="218.5" y="496"/>
			<point x="206" y="499.5"/>
			<point x="193" y="499.5" type="curve" smooth="yes"/>
			<point x="175.5" y="499.5"/>
			<point x="157.5" y="494"/>
			<point x="139.5" y="485.5" type="curve" smooth="yes"/>
			<point x="116" y="475.5"/>
			<point x="100" y="462"/>
			<point x="83.5" y="468" type="curve"/>
			<point x="81.5" y="463" type="line"/>
			<point x="93" y="456"/>
			<point x="101" y="453"/>
			<point x="110.5" y="453" type="curve" smooth="yes"/>
			<point x="119" y="453"/>
			<point x="128.5" y="455.5"/>
			<point x="140.5" y="458.5" type="curve" smooth="yes"/>
			<point x="156.5" y="462"/>
			<point x="174.5" y="466.5"/>
			<point x="193" y="466.5" type="curve" smooth="yes"/>
			<point x="221" y="466.5"/>
			<point x="239" y="454.5"/>
		</contour>
		<contour>
			<point x="283" y="441" type="curve"/>
			<point x="287" y="436.5" type="line"/>
			<point x="305" y="454.5"/>
			<point x="323" y="466.5"/>
			<point x="351.5" y="466.5" type="curve" smooth="yes"/>
			<point x="370" y="466.5"/>
			<point x="388" y="462"/>
			<point x="403.5" y="458.5" type="curve" smooth="yes"/>
			<point x="415.5" y="455.5"/>
			<point x="425" y="453"/>
			<point x="433.5" y="453" type="curve" smooth="yes"/>
			<point x="443" y="453"/>
			<point x="451" y="456"/>
			<point x="462.5" y="463" type="curve"/>
			<point x="460.5" y="468" type="line"/>
			<point x="445" y="462"/>
			<point x="428" y="475.5"/>
			<point x="404.5" y="485.5" type="curve" smooth="yes"/>
			<point x="386.5" y="494"/>
			<point x="368.5" y="499.5"/>
			<point x="351.5" y="499.5" type="curve" smooth="yes"/>
			<point x="338" y="499.5"/>
			<point x="325.5" y="496"/>
			<point x="314.5" y="488" type="curve" smooth="yes"/>
			<point x="301.5" y="478.5"/>
			<point x="289.5" y="462"/>
		</contour>
		<contour>
			<point x="265.5" y="451.5" type="curve"/>
			<point x="272" y="451.5" type="line"/>
			<point x="272" y="569.5" type="line"/>
			<point x="265.5" y="569.5" type="line"/>
			<point x="254" y="562.5"/>
			<point x="246.5" y="545"/>
			<point x="246.5" y="526.5" type="curve" smooth="yes"/>
			<point x="246.5" y="507"/>
			<point x="254" y="477"/>
		</contour>
		<contour>
			<point x="447.5" y="354" type="curve" smooth="yes"/>
			<point x="470.5" y="354"/>
			<point x="493" y="365.5"/>
			<point x="520" y="385" type="curve"/>
			<point x="517.5" y="389.5" type="line"/>
			<point x="511" y="386"/>
			<point x="505.5" y="384"/>
			<point x="498.5" y="384" type="curve" smooth="yes"/>
			<point x="443.5" y="384"/>
			<point x="406" y="446.5"/>
			<point x="334" y="446.5" type="curve" smooth="yes"/>
			<point x="312.5" y="446.5"/>
			<point x="284.5" y="430"/>
			<point x="271.5" y="409" type="curve"/>
			<point x="272" y="400.5" type="line"/>
			<point x="275" y="403"/>
			<point x="281" y="407.5"/>
			<point x="302.5" y="407.5" type="curve" smooth="yes"/>
			<point x="355.5" y="407.5"/>
			<point x="393.5" y="354"/>
		</contour>
		<contour>
			<point x="272" y="451.5" type="line"/>
			<point x="278.5" y="451.5" type="line"/>
			<point x="290" y="477"/>
			<point x="298" y="507"/>
			<point x="298" y="526.5" type="curve" smooth="yes"/>
			<point x="298" y="545"/>
			<point x="290" y="562.5"/>
			<point x="278.5" y="569.5" type="curve"/>
			<point x="272" y="569.5" type="line"/>
		</contour>
	</outline>
</glyph>
<glyph name="uniA746" format="2">
	<advance width="527"/>
	<unicode hex="A746"/>
	<unicode hex="A747"/>
	<anchor x="333" y="350" name="center"/>
	<anchor x="333" y="700" name="top"/>
	<anchor x="519" y="700" name="topright"/>
	<anchor x="333" y="0" name="bottom"/>
	<outline>
		<contour>
			<point x="221" y="0" type="line"/>
			<point x="321" y="0" type="line"/>
			<point x="321" y="448" type="line"/>
			<point x="171" y="448" type="line"/>
			<point x="171" y="700" type="line"/>
			<point x="71" y="700" type="line"/>
			<point x="71" y="444" type="line"/>
			<point x="221" y="444" type="line"/>
		</contour>
		<contour>
			<point x="161" y="0" type="line"/>
			<point x="381" y="0" type="line"/>
			<point x="381" y="4" type="line"/>
			<point x="161" y="4" type="line"/>
		</contour>
		<contour>
			<point x="371" y="0" type="line"/>
			<point x="457" y="0" type="line"/>
			<point x="457" y="4" type="line"/>
			<point x="371" y="4" type="line"/>
		</contour>
		<contour>
			<point x="441.5" y="0" type="line"/>
			<point x="492" y="0" type="line"/>
			<point x="514" y="233" type="line"/>
			<point x="505.5" y="233" type="line"/>
		</contour>
		<contour>
			<point x="11" y="696" type="line"/>
			<point x="231" y="696" type="line"/>
			<point x="231" y="700" type="line"/>
			<point x="11" y="700" type="line"/>
		</contour>
	</outline>
</glyph>
<glyph name="u1F4AE" format="2">
	<advance width="589"/>
	<unicode hex="1F4AE"/>
	<outline>
		<contour>
			<point x="294.5" y="80" type="curve" smooth="yes"/>
			<point x="294.5" y="40" type="line"/>
			<point x="297.5" y="40" type="line"/>
			<point x="297.5" y="116"/>
			<point x="314" y="107"/>
			<point x="431" y="138" type="curve" smooth="yes"/>
			<point x="543" y="166.5"/>
			<point x="568" y="197"/>
			<point x="568" y="266" type="curve" smooth="yes"/>
			<point x="568" y="295.5"/>
			<point x="560.5" y="348.5"/>
			<point x="560.5" y="385" type="curve" smooth="yes"/>
			<point x="560.5" y="403.5"/>
			<point x="562.5" y="425"/>
			<point x="568" y="456.5" type="curve"/>
			<point x="565" y="456.5" type="line"/>
			<point x="558.5" y="423"/>
			<point x="557" y="407.5"/>
			<point x="557" y="385" type="curve" smooth="yes"/>
			<point x="557" y="348.5"/>
			<point x="562.5" y="321.5"/>
			<point x="562.5" y="283" type="curve" smooth="yes"/>
			<point x="562.5" y="240.5"/>
			<point x="508" y="222"/>
			<point x="394" y="176" type="curve" smooth="yes"/>
			<point x="334.5" y="151.5"/>
			<point x="294.5" y="113.5"/>
		</contour>
		<contour>
			<point x="291.5" y="40" type="curve"/>
			<point x="294.5" y="40" type="line"/>
			<point x="294.5" y="80" type="line" smooth="yes"/>
			<point x="294.5" y="113.5"/>
			<point x="254.5" y="151.5"/>
			<point x="195" y="176" type="curve" smooth="yes"/>
			<point x="81" y="222"/>
			<point x="26.5" y="240.5"/>
			<point x="26.5" y="283" type="curve" smooth="yes"/>
			<point x="26.5" y="321.5"/>
			<point x="32" y="348.5"/>
			<point x="32" y="385" type="curve" smooth="yes"/>
			<point x="32" y="407.5"/>
			<point x="30.5" y="423"/>
			<point x="24" y="456.5" type="curve"/>
			<point x="21" y="456.5" type="line"/>
			<point x="26.5" y="425"/>
			<point x="28.5" y="403.5"/>
			<point x="28.5" y="385" type="curve" smooth="yes"/>
			<point x="28.5" y="348.5"/>
			<point x="21" y="295.5"/>
			<point x="21" y="266" type="curve" smooth="yes"/>
			<point x="21" y="197"/>
			<point x="46" y="166.5"/>
			<point x="158" y="138" type="curve" smooth="yes"/>
			<point x="275" y="107"/>
			<point x="291.5" y="116"/>
		</contour>
		<contour>
			<point x="291.5" y="102" type="curve"/>
			<point x="294.5" y="102" type="line"/>
			<point x="294.5" y="198"/>
			<point x="75" y="316"/>
			<point x="75" y="379" type="curve" smooth="yes"/>
			<point x="75" y="402"/>
			<point x="94.5" y="437"/>
			<point x="112" y="469" type="curve" smooth="yes"/>
			<point x="130.5" y="504"/>
			<point x="142.5" y="547.5"/>
			<point x="142.5" y="578" type="curve"/>
			<point x="139" y="578" type="line"/>
			<point x="139" y="546.5"/>
			<point x="126" y="502.5"/>
			<point x="107.5" y="469.5" type="curve" smooth="yes"/>
			<point x="86.5" y="430.5"/>
			<point x="63" y="384.5"/>
			<point x="62.5" y="349" type="curve" smooth="yes"/>
			<point x="63" y="296"/>
			<point x="77" y="262"/>
			<point x="116" y="238" type="curve" smooth="yes"/>
			<point x="177" y="201"/>
			<point x="291.5" y="137.5"/>
		</contour>
		<contour>
			<point x="291.5" y="121" type="curve"/>
			<point x="294.5" y="121" type="line"/>
			<point x="294.5" y="281.5"/>
			<point x="166" y="369"/>
			<point x="166" y="433.5" type="curve" smooth="yes"/>
			<point x="166" y="472"/>
			<point x="215.5" y="559"/>
			<point x="215.5" y="637" type="curve"/>
			<point x="212" y="637" type="line"/>
			<point x="212" y="543"/>
			<point x="139" y="472.5"/>
			<point x="139" y="393.5" type="curve" smooth="yes"/>
			<point x="139" y="277.5"/>
			<point x="291.5" y="198.5"/>
		</contour>
		<contour>
			<point x="291.5" y="199" type="curve" smooth="yes"/>
			<point x="291.5" y="25" type="line"/>
			<point x="294.5" y="25" type="line"/>
			<point x="294.5" y="663" type="line"/>
			<point x="291.5" y="663" type="line"/>
			<point x="289.5" y="563"/>
			<point x="249" y="527.5"/>
			<point x="249" y="442" type="curve" smooth="yes"/>
			<point x="249" y="346"/>
			<point x="291.5" y="292.5"/>
		</contour>
		<contour>
			<point x="294.5" y="25" type="line"/>
			<point x="297.5" y="25" type="line"/>
			<point x="297.5" y="199" type="line" smooth="yes"/>
			<point x="297.5" y="292.5"/>
			<point x="340" y="346"/>
			<point x="340" y="442" type="curve" smooth="yes"/>
			<point x="340" y="527.5"/>
			<point x="299.5" y="563"/>
			<point x="297.5" y="663" type="curve"/>
			<point x="294.5" y="663" type="line"/>
		</contour>
		<contour>
			<point x="294.5" y="102" type="curve"/>
			<point x="297.5" y="102" type="line"/>
			<point x="297.5" y="137.5"/>
			<point x="412" y="201"/>
			<point x="473" y="238" type="curve" smooth="yes"/>
			<point x="512" y="262"/>
			<point x="526" y="296"/>
			<point x="526" y="349" type="curve" smooth="yes"/>
			<point x="526" y="384.5"/>
			<point x="502.5" y="430.5"/>
			<point x="481" y="469" type="curve" smooth="yes"/>
			<point x="463" y="503"/>
			<point x="450" y="546.5"/>
			<point x="450" y="578" type="curve"/>
			<point x="446.5" y="578" type="line"/>
			<point x="446.5" y="547"/>
			<point x="458.5" y="504"/>
			<point x="477" y="469" type="curve" smooth="yes"/>
			<point x="494.5" y="437"/>
			<point x="514" y="402"/>
			<point x="514" y="379" type="curve" smooth="yes"/>
			<point x="514" y="316"/>
			<point x="294.5" y="198"/>
		</contour>
		<contour>
			<point x="294.5" y="121" type="curve"/>
			<point x="297.5" y="121" type="line"/>
			<point x="297.5" y="198.5"/>
			<point x="450" y="277.5"/>
			<point x="450" y="393.5" type="curve" smooth="yes"/>
			<point x="450" y="472.5"/>
			<point x="377" y="543"/>
			<point x="377" y="637" type="curve"/>
			<point x="373.5" y="637" type="line"/>
			<point x="373.5" y="559"/>
			<point x="423" y="472"/>
			<point x="423" y="433.5" type="curve" smooth="yes"/>
			<point x="423" y="369"/>
			<point x="294.5" y="281.5"/>
		</contour>
	</outline>
</glyph>
<glyph name="A.ss01" format="2">
	<advance width="501"/>
	<anchor x="447" y="0" name="ogonek"/>
	<anchor x="251" y="0" name="bottom"/>
	<anchor x="251" y="700" name="top"/>
	<outline>
		<contour>
			<point x="366" y="0" type="line"/>
			<point x="470" y="0" type="line"/>
			<point x="308" y="700" type="line"/>
			<point x="216.5" y="700" type="line"/>
			<point x="212" y="677" type="line"/>
		</contour>
		<contour>
			<point x="224" y="162" type="curve" smooth="yes"/>
			<point x="258.5" y="162"/>
			<point x="297" y="194"/>
			<point x="320" y="242" type="curve"/>
			<point x="310" y="250" type="line"/>
			<point x="310" y="240.5"/>
			<point x="302.5" y="234"/>
			<point x="291" y="234" type="curve" smooth="yes"/>
			<point x="262" y="234"/>
			<point x="224" y="279"/>
			<point x="186" y="279" type="curve" smooth="yes"/>
			<point x="142.5" y="279"/>
			<point x="98.5" y="247"/>
			<point x="75.5" y="199" type="curve"/>
			<point x="80.5" y="191" type="line"/>
			<point x="83.5" y="201"/>
			<point x="89" y="207"/>
			<point x="100" y="207" type="curve" smooth="yes"/>
			<point x="129" y="207"/>
			<point x="186" y="162"/>
		</contour>
		<contour>
			<point x="24.5" y="0" type="line"/>
			<point x="35" y="0" type="line"/>
			<point x="218.5" y="700" type="line"/>
			<point x="207.5" y="700" type="line"/>
		</contour>
		<component base="_part.shortserif" xOffset="89"/>
		<component base="_part.longserif" xOffset="275" yOffset="-696"/>
		<component base="_part.shortserif" xOffset="-60" yOffset="-696"/>
	</outline>
</glyph>
<glyph name="A.ss02" format="2">
	<advance width="454"/>
	<anchor x="400" y="0" name="ogonek"/>
	<anchor x="229" y="0" name="bottom"/>
	<anchor x="224" y="703" name="top"/>
	<outline>
		<contour>
			<point x="172.5" y="52" type="curve"/>
			<point x="178.5" y="52" type="line"/>
			<point x="179" y="122" type="line"/>
			<point x="179" y="160.5"/>
			<point x="119" y="203"/>
			<point x="86" y="217.5" type="curve"/>
			<point x="86" y="211.5" type="line"/>
			<point x="123.5" y="188"/>
			<point x="159.5" y="134.5"/>
		</contour>
		<contour>
			<point x="172" y="122" type="curve"/>
			<point x="172.5" y="52" type="line"/>
			<point x="178.5" y="52" type="line"/>
			<point x="191.5" y="134.5"/>
			<point x="227.5" y="188"/>
			<point x="265" y="211.5" type="curve"/>
			<point x="265" y="217.5" type="line"/>
			<point x="234" y="204"/>
			<point x="172" y="160.5"/>
		</contour>
		<component base="V" xScale="-1" yScale="-1" xOffset="454" yOffset="700"/>
	</outline>
</glyph>
<glyph name="A.ss03" format="2">
	<advance width="480"/>
	<anchor x="395" y="0" name="ogonek"/>
	<anchor x="249" y="0" name="bottom"/>
	<anchor x="249" y="700" name="top"/>
	<outline>
		<contour>
			<point x="311.5" y="118" type="curve"/>
			<point x="326" y="135" type="line"/>
			<point x="273" y="189.5"/>
			<point x="180.5" y="220.5"/>
			<point x="93.5" y="220.5" type="curve" smooth="yes"/>
			<point x="-1.5" y="220.5"/>
			<point x="-141" y="159.5"/>
			<point x="-212" y="159.5" type="curve" smooth="yes"/>
			<point x="-236.5" y="159.5"/>
			<point x="-271.5" y="172"/>
			<point x="-299.5" y="191" type="curve"/>
			<point x="-304" y="186.5" type="line"/>
			<point x="-258" y="150"/>
			<point x="-170" y="125.5"/>
			<point x="-82.5" y="125.5" type="curve" smooth="yes"/>
			<point x="22" y="125.5"/>
			<point x="141.5" y="157.5"/>
			<point x="218" y="157.5" type="curve" smooth="yes"/>
			<point x="274" y="157.5"/>
			<point x="305.5" y="141"/>
		</contour>
		<component base="V" xScale="-1" yScale="-1" xOffset="480" yOffset="700"/>
	</outline>
</glyph>
<glyph name="A.ss04" format="2">
	<advance width="454"/>
	<anchor x="400" y="0" name="ogonek"/>
	<anchor x="229" y="0" name="bottom"/>
	<anchor x="225" y="703" name="top"/>
	<outline>
		<contour>
			<point x="106" y="289" type="line"/>
			<point x="306" y="289" type="line"/>
			<point x="306" y="379" type="line"/>
			<point x="130" y="379" type="line"/>
		</contour>
		<component base="V" xScale="-1" yScale="-1" xOffset="454" yOffset="700"/>
	</outline>
</glyph>
<glyph name="A.ss05" format="2">
	<advance width="496"/>
	<anchor x="447" y="0" name="ogonek"/>
	<anchor x="251" y="0" name="bottom"/>
	<anchor x="251" y="700" name="top"/>
	<outline>
		<contour>
			<point x="366" y="0" type="line"/>
			<point x="470" y="0" type="line"/>
			<point x="308" y="700" type="line"/>
			<point x="216.5" y="700" type="line"/>
			<point x="210" y="685" type="line"/>
		</contour>
		<contour>
			<point x="24" y="0" type="line"/>
			<point x="28" y="0" type="line"/>
			<point x="216" y="700" type="line"/>
			<point x="212" y="700" type="line"/>
		</contour>
		<contour>
			<point x="241.5" y="100" type="curve" smooth="yes"/>
			<point x="287" y="100"/>
			<point x="331.5" y="124.5"/>
			<point x="352.5" y="161" type="curve"/>
			<point x="348" y="164.5" type="line"/>
			<point x="340" y="159"/>
			<point x="324.5" y="155.5"/>
			<point x="310" y="155.5" type="curve" smooth="yes"/>
			<point x="211" y="155"/>
			<point x="147" y="319"/>
			<point x="28.5" y="319" type="curve" smooth="yes"/>
			<point x="-10" y="319"/>
			<point x="-59" y="302"/>
			<point x="-95" y="276.5" type="curve"/>
			<point x="-91.5" y="272" type="line"/>
			<point x="-79" y="280"/>
			<point x="-67" y="283.5"/>
			<point x="-54" y="283.5" type="curve" smooth="yes"/>
			<point x="39.5" y="283.5"/>
			<point x="111" y="100"/>
		</contour>
		<component base="_part.shortserif" xOffset="89"/>
		<component base="_part.longserif" xOffset="270" yOffset="-696"/>
		<component base="_part.shortserif" xOffset="-70" yOffset="-696"/>
	</outline>
</glyph>
<glyph name="A.ss06" format="2">
	<advance width="451"/>
	<anchor x="397" y="0" name="ogonek"/>
	<anchor x="226" y="0" name="bottom"/>
	<anchor x="222" y="703" name="top"/>
	<outline>
		<contour>
			<point x="78" y="201" type="line"/>
			<point x="305" y="201" type="line"/>
			<point x="305" y="205" type="line"/>
			<point x="78" y="205" type="line"/>
		</contour>
		<component base="V" xScale="-1" yScale="-1" xOffset="451" yOffset="700"/>
	</outline>
</glyph>
<glyph name="AE.ss04" format="2">
	<advance width="579.5"/>
	<outline>
		<contour>
			<point x="22" y="0" type="line"/>
			<point x="26.5" y="0" type="line"/>
			<point x="281.5" y="700" type="line"/>
			<point x="277" y="700" type="line"/>
		</contour>
		<contour>
			<point x="225.5" y="0" type="line"/>
			<point x="445.5" y="0" type="line"/>
			<point x="445.5" y="4" type="line"/>
			<point x="225.5" y="4" type="line"/>
		</contour>
		<contour>
			<point x="365.5" y="0" type="line"/>
			<point x="501.5" y="0" type="line"/>
			<point x="501.5" y="4" type="line"/>
			<point x="365.5" y="4" type="line"/>
		</contour>
		<contour>
			<point x="-27" y="0" type="line"/>
			<point x="101" y="0" type="line"/>
			<point x="101" y="4" type="line"/>
			<point x="-27" y="4" type="line"/>
		</contour>
		<contour>
			<point x="285.5" y="0" type="line"/>
			<point x="385.5" y="0" type="line"/>
			<point x="385.5" y="700" type="line"/>
			<point x="285.5" y="700" type="line"/>
		</contour>
		<contour>
			<point x="535.5" y="532" type="line"/>
			<point x="542.5" y="532" type="line"/>
			<point x="517.5" y="700" type="line"/>
			<point x="478.5" y="700" type="line"/>
		</contour>
		<contour>
			<point x="460.5" y="415" type="line"/>
			<point x="485.5" y="415" type="line"/>
			<point x="485.5" y="531" type="line"/>
			<point x="477.5" y="531" type="line"/>
		</contour>
		<contour>
			<point x="477.5" y="303" type="line"/>
			<point x="485.5" y="303" type="line"/>
			<point x="485.5" y="419" type="line"/>
			<point x="460.5" y="419" type="line"/>
		</contour>
		<contour>
			<point x="375.5" y="415" type="line"/>
			<point x="485.5" y="415" type="line"/>
			<point x="485.5" y="419" type="line"/>
			<point x="375.5" y="419" type="line"/>
		</contour>
		<contour>
			<point x="196" y="696" type="line"/>
			<point x="356" y="696" type="line"/>
			<point x="356" y="700" type="line"/>
			<point x="196" y="700" type="line"/>
		</contour>
		<contour>
			<point x="479.5" y="0" type="line"/>
			<point x="518.5" y="0" type="line"/>
			<point x="573.5" y="168" type="line"/>
			<point x="566.5" y="168" type="line"/>
		</contour>
		<contour>
			<point x="385.5" y="696" type="line"/>
			<point x="511.5" y="696" type="line"/>
			<point x="511.5" y="700" type="line"/>
			<point x="385.5" y="700" type="line"/>
		</contour>
		<contour>
			<point x="128" y="279" type="line"/>
			<point x="328" y="279" type="line"/>
			<point x="328" y="369" type="line"/>
			<point x="161" y="369" type="line"/>
		</contour>
	</outline>
</glyph>
<glyph name="A_A.dlig" format="2">
	<advance width="808"/>
	<outline>
		<contour>
			<point x="54" y="101" type="line"/>
			<point x="305" y="101" type="line"/>
			<point x="305" y="105" type="line"/>
			<point x="54" y="105" type="line"/>
		</contour>
		<contour>
			<point x="223.5" y="737" type="line"/>
			<point x="171.5" y="544" type="line"/>
			<point x="317.5" y="0" type="line"/>
			<point x="421.5" y="0" type="line"/>
		</contour>
		<contour>
			<point x="223.5" y="737" type="line"/>
			<point x="25.5" y="0" type="line"/>
			<point x="29" y="0" type="line"/>
			<point x="225.5" y="731" type="line"/>
		</contour>
		<contour>
			<point x="481" y="4" type="line"/>
			<point x="261" y="4" type="line"/>
			<point x="261" y="0" type="line"/>
			<point x="481" y="0" type="line"/>
		</contour>
		<contour>
			<point x="101" y="4" type="line"/>
			<point x="-27" y="4" type="line"/>
			<point x="-27" y="0" type="line"/>
			<point x="101" y="0" type="line"/>
		</contour>
		<contour>
			<point x="408" y="101" type="line"/>
			<point x="659" y="101" type="line"/>
			<point x="659" y="105" type="line"/>
			<point x="408" y="105" type="line"/>
		</contour>
		<contour>
			<point x="577.5" y="737" type="line"/>
			<point x="525.5" y="544" type="line"/>
			<point x="671.5" y="0" type="line"/>
			<point x="775.5" y="0" type="line"/>
		</contour>
		<contour>
			<point x="577.5" y="737" type="line"/>
			<point x="379.5" y="0" type="line"/>
			<point x="383" y="0" type="line"/>
			<point x="579.5" y="731" type="line"/>
		</contour>
		<contour>
			<point x="835" y="4" type="line"/>
			<point x="615" y="4" type="line"/>
			<point x="615" y="0" type="line"/>
			<point x="835" y="0" type="line"/>
		</contour>
	</outline>
</glyph>
<glyph name="B.ss01" format="2">
	<advance width="484"/>
	<anchor x="235" y="700" name="top"/>
	<anchor x="235" y="0" name="bottom"/>
	<outline>
		<contour>
			<point x="180" y="395" type="curve"/>
			<point x="180" y="393" type="line"/>
			<point x="324" y="393"/>
			<point x="420" y="424.5"/>
			<point x="420" y="551.5" type="curve" smooth="yes"/>
			<point x="420" y="646.5"/>
			<point x="355" y="700"/>
			<point x="239" y="700" type="curve" smooth="yes"/>
			<point x="180" y="700" type="line"/>
			<point x="180" y="696" type="line"/>
			<point x="202" y="696" type="line" smooth="yes"/>
			<point x="276" y="696"/>
			<point x="325" y="664"/>
			<point x="325" y="538" type="curve" smooth="yes"/>
			<point x="325" y="452"/>
			<point x="296" y="395"/>
		</contour>
		<contour>
			<point x="170" y="0" type="line"/>
			<point x="229" y="0" type="line" smooth="yes"/>
			<point x="378" y="0"/>
			<point x="461" y="39"/>
			<point x="461" y="195" type="curve"/>
			<point x="366" y="195" type="line"/>
			<point x="366" y="83"/>
			<point x="336" y="4"/>
			<point x="192" y="4" type="curve" smooth="yes"/>
			<point x="170" y="4" type="line"/>
		</contour>
		<contour>
			<point x="366" y="195" type="curve"/>
			<point x="461" y="195" type="line"/>
			<point x="461" y="315"/>
			<point x="419.5" y="395"/>
			<point x="229" y="395" type="curve" smooth="yes"/>
			<point x="170" y="395" type="line"/>
			<point x="170" y="389" type="line"/>
			<point x="192" y="389" type="line" smooth="yes"/>
			<point x="306.5" y="389"/>
			<point x="366" y="348.5"/>
		</contour>
		<component base="_part.stemserifs" xOffset="-10"/>
	</outline>
</glyph>
<glyph name="C.ss04" format="2">
	<advance width="397"/>
	<anchor x="321" y="350" name="center"/>
	<anchor x="321" y="0" name="bottom"/>
	<anchor x="321" y="700" name="top"/>
	<outline>
		<contour>
			<point x="358" y="0" type="curve"/>
			<point x="358" y="4" type="line"/>
			<point x="215" y="4"/>
			<point x="120" y="140"/>
			<point x="120" y="350" type="curve"/>
			<point x="10" y="350" type="line"/>
			<point x="10" y="135"/>
			<point x="149" y="0"/>
		</contour>
		<contour>
			<point x="10" y="350" type="curve"/>
			<point x="120" y="350" type="line"/>
			<point x="120" y="560"/>
			<point x="215" y="704"/>
			<point x="358" y="704" type="curve"/>
			<point x="358" y="708" type="line"/>
			<point x="149" y="708"/>
			<point x="10" y="565"/>
		</contour>
		<contour>
			<point x="355" y="168" type="line"/>
			<point x="345.5" y="6" type="line"/>
			<point x="358" y="0" type="line"/>
			<point x="384" y="0" type="line"/>
			<point x="362" y="168" type="line"/>
		</contour>
		<contour>
			<point x="355" y="540" type="line"/>
			<point x="362" y="540" type="line"/>
			<point x="384" y="708" type="line"/>
			<point x="358" y="708" type="line"/>
			<point x="345.5" y="701.5" type="line"/>
		</contour>
	</outline>
</glyph>
<glyph name="C.ss06" format="2">
	<advance width="425"/>
	<anchor x="245" y="708" name="top"/>
	<anchor x="245" y="-10" name="bottom"/>
	<outline>
		<contour>
			<point x="10" y="350" type="curve"/>
			<point x="120" y="350" type="line"/>
			<point x="120" y="558"/>
			<point x="168" y="704"/>
			<point x="245" y="704" type="curve"/>
			<point x="245" y="708" type="line"/>
			<point x="87" y="708"/>
			<point x="10" y="526"/>
		</contour>
		<contour>
			<point x="245" y="-8" type="curve"/>
			<point x="245" y="-4" type="line"/>
			<point x="168" y="-4"/>
			<point x="120" y="142"/>
			<point x="120" y="350" type="curve"/>
			<point x="10" y="350" type="line"/>
			<point x="10" y="174"/>
			<point x="87" y="-8"/>
		</contour>
		<contour>
			<point x="245" y="-4" type="curve"/>
			<point x="245" y="-8" type="line"/>
			<point x="298" y="-8"/>
			<point x="306.5" y="32"/>
			<point x="360.5" y="32" type="curve" smooth="yes"/>
			<point x="374.5" y="32"/>
			<point x="388.5" y="26"/>
			<point x="393.5" y="18" type="curve"/>
			<point x="399.5" y="20" type="line"/>
			<point x="350.5" y="233" type="line"/>
			<point x="344.5" y="231" type="line"/>
			<point x="359.5" y="120"/>
			<point x="326" y="-4"/>
		</contour>
		<contour>
			<point x="337" y="510" type="curve" smooth="yes"/>
			<point x="334" y="477" type="line"/>
			<point x="338" y="477" type="line"/>
			<point x="405" y="703" type="line"/>
			<point x="399" y="705" type="line"/>
			<point x="389" y="679"/>
			<point x="380" y="667"/>
			<point x="364" y="667" type="curve" smooth="yes"/>
			<point x="341" y="667"/>
			<point x="302" y="708"/>
			<point x="245" y="708" type="curve"/>
			<point x="245" y="704" type="line"/>
			<point x="331" y="704"/>
			<point x="346" y="609"/>
		</contour>
	</outline>
</glyph>
<glyph name="Ccedilla.ss01" format="2">
	<advance width="411"/>
	<outline>
		<contour>
			<point x="222.5" y="-217" type="curve"/>
			<point x="227.5" y="-223.5" type="line"/>
			<point x="258" y="-195.5"/>
			<point x="273" y="-170.5"/>
			<point x="273" y="-141.5" type="curve" smooth="yes"/>
			<point x="273" y="-123"/>
			<point x="266.5" y="-104"/>
			<point x="253.5" y="-82.5" type="curve" smooth="yes"/>
			<point x="239.5" y="-59"/>
			<point x="230.5" y="-46.5"/>
			<point x="230.5" y="-32.5" type="curve" smooth="yes"/>
			<point x="230.5" y="-24.5"/>
			<point x="232.5" y="-16"/>
			<point x="240.5" y="-5" type="curve"/>
			<point x="234" y="-1" type="line"/>
			<point x="207.5" y="-35"/>
			<point x="195" y="-54"/>
			<point x="195" y="-75.5" type="curve" smooth="yes"/>
			<point x="195" y="-94"/>
			<point x="205.5" y="-112"/>
			<point x="225.5" y="-136" type="curve" smooth="yes"/>
			<point x="239" y="-152"/>
			<point x="246" y="-164"/>
			<point x="246" y="-176" type="curve" smooth="yes"/>
			<point x="246" y="-189"/>
			<point x="238" y="-201"/>
		</contour>
		<component base="C"/>
	</outline>
</glyph>
<glyph name="E.ss01" format="2">
	<advance width="443"/>
	<anchor x="280" y="0" name="ogonek"/>
	<anchor x="209" y="700" name="top"/>
	<anchor x="-4" y="700" name="topleft"/>
	<anchor x="209" y="0" name="bottom"/>
	<outline>
		<contour>
			<point x="303" y="0" type="line"/>
			<point x="375" y="1" type="line"/>
			<point x="437" y="263" type="line"/>
			<point x="427" y="263" type="line"/>
		</contour>
		<contour>
			<point x="201" y="0" type="line"/>
			<point x="337" y="0" type="line"/>
			<point x="337" y="4" type="line"/>
			<point x="201" y="4" type="line"/>
		</contour>
		<contour>
			<point x="221" y="696" type="line"/>
			<point x="347" y="696" type="line"/>
			<point x="347" y="700" type="line"/>
			<point x="221" y="700" type="line"/>
		</contour>
		<contour>
			<point x="412" y="557" type="line"/>
			<point x="419" y="564" type="line"/>
			<point x="354" y="700" type="line"/>
			<point x="303" y="700" type="line"/>
			<point x="339" y="625" type="line"/>
		</contour>
		<component base="_part.stemserifs" xOffset="-22"/>
		<component base="_part.wavestrokehorizontal" xOffset="113" yOffset="80"/>
	</outline>
</glyph>
<glyph name="E.ss03" format="2">
	<advance width="443"/>
	<anchor x="280" y="0" name="ogonek"/>
	<anchor x="217" y="700" name="top"/>
	<anchor x="-4" y="700" name="topleft"/>
	<anchor x="217" y="0" name="bottom"/>
	<outline>
		<contour>
			<point x="201" y="0" type="line"/>
			<point x="337" y="0" type="line"/>
			<point x="337" y="4" type="line"/>
			<point x="201" y="4" type="line"/>
		</contour>
		<contour>
			<point x="303" y="0" type="line"/>
			<point x="375" y="1" type="line"/>
			<point x="437" y="263" type="line"/>
			<point x="428.5" y="263" type="line"/>
		</contour>
		<contour>
			<point x="221" y="696" type="line"/>
			<point x="347" y="696" type="line"/>
			<point x="347" y="700" type="line"/>
			<point x="221" y="700" type="line"/>
		</contour>
		<contour>
			<point x="413" y="558" type="line"/>
			<point x="419" y="564" type="line"/>
			<point x="354" y="700" type="line"/>
			<point x="303" y="700" type="line"/>
			<point x="339" y="625" type="line"/>
		</contour>
		<contour>
			<point x="158" y="333" type="curve"/>
			<point x="171" y="317" type="line"/>
			<point x="171" y="340"/>
			<point x="209.5" y="355.5"/>
			<point x="265.5" y="355.5" type="curve"/>
			<point x="342" y="355.5"/>
			<point x="463" y="323.5"/>
			<point x="567.5" y="323.5" type="curve" smooth="yes"/>
			<point x="655" y="323.5"/>
			<point x="743" y="347.5"/>
			<point x="789" y="384" type="curve"/>
			<point x="784.5" y="389" type="line"/>
			<point x="756.5" y="370"/>
			<point x="721.5" y="357.5"/>
			<point x="697" y="357.5" type="curve" smooth="yes"/>
			<point x="626" y="357.5"/>
			<point x="485" y="418.5"/>
			<point x="390" y="418.5" type="curve" smooth="yes"/>
			<point x="304" y="418.5"/>
			<point x="211.5" y="388"/>
		</contour>
		<component base="_part.stemserifs" xOffset="-22"/>
	</outline>
</glyph>
<glyph name="F.ss01" format="2">
	<advance width="393"/>
	<outline>
		<contour>
			<point x="71" y="0" type="line"/>
			<point x="291" y="0" type="line"/>
			<point x="291" y="4" type="line"/>
			<point x="71" y="4" type="line"/>
		</contour>
		<contour>
			<point x="378.5" y="417" type="line"/>
			<point x="387" y="417" type="line"/>
			<point x="375" y="700" type="line"/>
			<point x="314.5" y="700" type="line"/>
		</contour>
		<contour>
			<point x="221" y="696" type="line"/>
			<point x="367" y="696" type="line"/>
			<point x="367" y="700" type="line"/>
			<point x="221" y="700" type="line"/>
		</contour>
		<component base="_part.stemserifs" xOffset="-22"/>
		<component base="_part.wavestrokehorizontal" xOffset="115" yOffset="-70"/>
	</outline>
</glyph>
<glyph name="G.ss04" format="2">
	<advance width="489"/>
	<anchor x="321" y="350" name="center"/>
	<anchor x="321" y="0" name="bottom"/>
	<anchor x="321" y="700" name="top"/>
	<outline>
		<contour>
			<point x="334" y="-4" type="line"/>
			<point x="358" y="-4" type="line"/>
			<point x="434" y="0" type="line"/>
			<point x="434" y="427" type="line"/>
			<point x="334" y="427" type="line"/>
		</contour>
		<contour>
			<point x="358" y="-8" type="curve"/>
			<point x="358" y="-4" type="line"/>
			<point x="215" y="-4"/>
			<point x="120" y="140"/>
			<point x="120" y="350" type="curve"/>
			<point x="10" y="350" type="line"/>
			<point x="10" y="135"/>
			<point x="149" y="-8"/>
		</contour>
		<contour>
			<point x="10" y="350" type="curve"/>
			<point x="120" y="350" type="line"/>
			<point x="120" y="560"/>
			<point x="215" y="704"/>
			<point x="358" y="704" type="curve"/>
			<point x="358" y="708" type="line"/>
			<point x="149" y="708"/>
			<point x="10" y="565"/>
		</contour>
		<contour>
			<point x="358" y="10" type="line"/>
			<point x="358" y="-8" type="line"/>
			<point x="382.5" y="-8"/>
			<point x="413" y="-5"/>
			<point x="434" y="0" type="curve"/>
			<point x="434" y="9" type="line"/>
		</contour>
		<contour>
			<point x="355" y="540" type="line"/>
			<point x="362" y="540" type="line"/>
			<point x="384" y="708" type="line"/>
			<point x="358" y="708" type="line"/>
			<point x="345.5" y="701.5" type="line"/>
		</contour>
		<component base="_part.longserif" xOffset="240" yOffset="-273"/>
		<component base="_part.longserif" xOffset="180" yOffset="-273"/>
	</outline>
</glyph>
<glyph name="G.ss06" format="2">
	<advance width="475"/>
	<anchor x="245" y="700" name="top"/>
	<anchor x="245" y="0" name="bottom"/>
	<outline>
		<contour>
			<point x="254" y="-8" type="curve"/>
			<point x="254" y="-4" type="line"/>
			<point x="177" y="-4"/>
			<point x="120" y="142"/>
			<point x="120" y="350" type="curve"/>
			<point x="10" y="350" type="line"/>
			<point x="10" y="174"/>
			<point x="96" y="-8"/>
		</contour>
		<contour>
			<point x="10" y="350" type="curve"/>
			<point x="120" y="350" type="line"/>
			<point x="120" y="558"/>
			<point x="168" y="704"/>
			<point x="245" y="704" type="curve"/>
			<point x="245" y="708" type="line"/>
			<point x="87" y="708"/>
			<point x="10" y="526"/>
		</contour>
		<contour>
			<point x="254" y="-4" type="curve"/>
			<point x="254" y="-8" type="line"/>
			<point x="339.5" y="-8"/>
			<point x="388.5" y="46"/>
			<point x="452" y="46" type="curve"/>
			<point x="452" y="50" type="line"/>
			<point x="437.5" y="51.5"/>
			<point x="434" y="72.5"/>
			<point x="434" y="156.5" type="curve" smooth="yes"/>
			<point x="434" y="266" type="line" smooth="yes"/>
			<point x="434" y="351.5"/>
			<point x="441" y="373"/>
			<point x="452" y="373" type="curve"/>
			<point x="452" y="377" type="line"/>
			<point x="334" y="377" type="line"/>
			<point x="334" y="57.5" type="line" smooth="yes"/>
			<point x="334" y="27.5"/>
			<point x="328" y="17.5"/>
			<point x="304.5" y="6" type="curve" smooth="yes"/>
			<point x="291.5" y="-0.5"/>
			<point x="274.5" y="-4"/>
		</contour>
		<contour>
			<point x="337" y="510" type="curve" smooth="yes"/>
			<point x="334" y="477" type="line"/>
			<point x="338" y="477" type="line"/>
			<point x="405" y="703" type="line"/>
			<point x="399" y="705" type="line"/>
			<point x="389" y="679"/>
			<point x="380" y="667"/>
			<point x="364" y="667" type="curve" smooth="yes"/>
			<point x="341" y="667"/>
			<point x="302" y="708"/>
			<point x="245" y="708" type="curve"/>
			<point x="245" y="704" type="line"/>
			<point x="331" y="704"/>
			<point x="346" y="609"/>
		</contour>
		<component base="_part.longserif" xOffset="182" yOffset="-323"/>
	</outline>
</glyph>
<glyph name="H.ss01" format="2">
	<advance width="532"/>
	<outline>
		<contour>
			<point x="275" y="296" type="curve" smooth="yes"/>
			<point x="312.5" y="296"/>
			<point x="353" y="334"/>
			<point x="376.5" y="382.5" type="curve"/>
			<point x="361" y="398" type="line"/>
			<point x="361" y="388"/>
			<point x="353" y="382"/>
			<point x="342" y="382" type="curve" smooth="yes"/>
			<point x="313" y="382"/>
			<point x="295" y="427"/>
			<point x="257" y="427" type="curve" smooth="yes"/>
			<point x="219.5" y="427"/>
			<point x="179" y="389"/>
			<point x="155.5" y="340.5" type="curve"/>
			<point x="171" y="325" type="line"/>
			<point x="171" y="335"/>
			<point x="179" y="341"/>
			<point x="190" y="341" type="curve" smooth="yes"/>
			<point x="219" y="341"/>
			<point x="237" y="296"/>
		</contour>
		<component base="_part.stemserifs" xOffset="-22"/>
		<component base="_part.stemserifs" xOffset="268"/>
	</outline>
</glyph>
<glyph name="H.ss03" format="2">
	<advance width="554"/>
	<anchor x="278" y="350" name="center"/>
	<anchor x="278" y="700" name="top"/>
	<anchor x="8" y="700" name="topleft"/>
	<anchor x="278" y="0" name="bottom"/>
	<outline>
		<contour>
			<point x="383" y="450.5" type="curve"/>
			<point x="391" y="454" type="line"/>
			<point x="390.5" y="519.5"/>
			<point x="345.5" y="561.5"/>
			<point x="278" y="561.5" type="curve" smooth="yes"/>
			<point x="194.5" y="561.5"/>
			<point x="124.5" y="498"/>
			<point x="44" y="498" type="curve" smooth="yes"/>
			<point x="4.5" y="498"/>
			<point x="-41.5" y="510.5"/>
			<point x="-69.5" y="529.5" type="curve"/>
			<point x="-74.5" y="525" type="line"/>
			<point x="-31" y="491"/>
			<point x="44.5" y="468"/>
			<point x="113.5" y="468" type="curve" smooth="yes"/>
			<point x="198" y="468"/>
			<point x="239.5" y="500"/>
			<point x="301" y="500" type="curve"/>
			<point x="350" y="500"/>
			<point x="383" y="480"/>
		</contour>
		<component base="_part.stemserifs"/>
		<component base="_part.stemserifs" xOffset="290"/>
	</outline>
</glyph>
<glyph name="H_E.dlig" format="2">
	<advance width="705"/>
	<anchor x="266" y="350" name="center"/>
	<outline>
		<contour>
			<point x="71" y="0" type="line"/>
			<point x="171" y="0" type="line"/>
			<point x="171" y="700" type="line"/>
			<point x="71" y="700" type="line"/>
		</contour>
		<contour>
			<point x="161" y="421" type="line"/>
			<point x="371" y="421" type="line"/>
			<point x="371" y="425" type="line"/>
			<point x="161" y="425" type="line"/>
		</contour>
		<contour>
			<point x="361" y="0" type="line"/>
			<point x="461" y="0" type="line"/>
			<point x="461" y="700" type="line"/>
			<point x="361" y="700" type="line"/>
		</contour>
		<contour>
			<point x="621" y="4" type="line"/>
			<point x="301" y="4" type="line"/>
			<point x="301" y="0" type="line"/>
			<point x="621" y="0" type="line"/>
		</contour>
		<contour>
			<point x="231" y="4" type="line"/>
			<point x="11" y="4" type="line"/>
			<point x="11" y="0" type="line"/>
			<point x="231" y="0" type="line"/>
		</contour>
		<contour>
			<point x="605" y="0" type="line"/>
			<point x="644" y="0" type="line"/>
			<point x="699" y="168" type="line"/>
			<point x="692" y="168" type="line"/>
		</contour>
		<contour>
			<point x="550" y="309" type="line"/>
			<point x="558" y="309" type="line"/>
			<point x="558" y="425" type="line"/>
			<point x="533" y="425" type="line"/>
		</contour>
		<contour>
			<point x="451" y="421" type="line"/>
			<point x="558" y="421" type="line"/>
			<point x="558" y="425" type="line"/>
			<point x="451" y="425" type="line"/>
		</contour>
		<contour>
			<point x="533" y="421" type="line"/>
			<point x="558" y="421" type="line"/>
			<point x="558" y="537" type="line"/>
			<point x="550" y="537" type="line"/>
		</contour>
		<contour>
			<point x="662" y="532" type="line"/>
			<point x="669" y="532" type="line"/>
			<point x="644" y="700" type="line"/>
			<point x="605" y="700" type="line"/>
		</contour>
		<contour>
			<point x="511" y="696" type="line"/>
			<point x="637" y="696" type="line"/>
			<point x="637" y="700" type="line"/>
			<point x="511" y="700" type="line"/>
		</contour>
		<contour>
			<point x="361" y="0" type="line"/>
			<point x="461" y="0" type="line"/>
			<point x="461" y="700" type="line"/>
			<point x="361" y="700" type="line"/>
		</contour>
		<contour>
			<point x="301" y="696" type="line"/>
			<point x="521" y="696" type="line"/>
			<point x="521" y="700" type="line"/>
			<point x="301" y="700" type="line"/>
		</contour>
		<contour>
			<point x="231" y="700" type="line"/>
			<point x="11" y="700" type="line"/>
			<point x="11" y="696" type="line"/>
			<point x="231" y="696" type="line"/>
		</contour>
	</outline>
</glyph>
<glyph name="J.ss01" format="2">
	<advance width="452"/>
	<anchor x="333" y="700" name="top"/>
	<anchor x="333" y="0" name="bottom"/>
	<outline>
		<contour>
			<point x="191" y="-8" type="curve" smooth="yes"/>
			<point x="323.5" y="-8"/>
			<point x="380" y="63.5"/>
			<point x="380" y="181.5" type="curve"/>
			<point x="280" y="178.5" type="line"/>
			<point x="278" y="67.5"/>
			<point x="260.5" y="-4"/>
			<point x="191" y="-4" type="curve" smooth="yes"/>
			<point x="138" y="-4"/>
			<point x="89.5" y="18.5"/>
			<point x="89.5" y="65" type="curve" smooth="yes"/>
			<point x="89.5" y="156.5"/>
			<point x="185.5" y="210.5"/>
			<point x="185.5" y="304" type="curve" smooth="yes"/>
			<point x="185.5" y="391.5"/>
			<point x="99.5" y="470"/>
			<point x="5.5" y="533.5" type="curve"/>
			<point x="2" y="528.5" type="line"/>
			<point x="60.5" y="481"/>
			<point x="99.5" y="412.5"/>
			<point x="99.5" y="365" type="curve" smooth="yes"/>
			<point x="99.5" y="291.5"/>
			<point x="38.5" y="239"/>
			<point x="38.5" y="122" type="curve" smooth="yes"/>
			<point x="38.5" y="44.5"/>
			<point x="107.5" y="-8"/>
		</contour>
		<contour>
			<point x="57" y="532" type="line"/>
			<point x="64" y="532" type="line"/>
			<point x="121" y="700" type="line"/>
			<point x="82" y="700" type="line"/>
		</contour>
		<contour>
			<point x="280" y="178.5" type="line"/>
			<point x="380" y="181.5" type="line"/>
			<point x="380" y="700" type="line"/>
			<point x="280" y="700" type="line"/>
		</contour>
		<contour>
			<point x="106" y="696" type="line"/>
			<point x="440" y="696" type="line"/>
			<point x="440" y="700" type="line"/>
			<point x="106" y="700" type="line"/>
		</contour>
	</outline>
</glyph>
<glyph name="J.ss04" format="2">
	<advance width="390"/>
	<anchor x="209" y="700" name="top"/>
	<anchor x="209" y="0" name="bottom"/>
	<outline>
		<contour>
			<point x="25" y="532" type="line"/>
			<point x="32" y="532" type="line"/>
			<point x="89" y="700" type="line"/>
			<point x="50" y="700" type="line"/>
		</contour>
		<contour>
			<point x="323" y="350" type="line"/>
			<point x="323" y="700" type="line"/>
			<point x="223" y="700" type="line"/>
			<point x="223" y="350" type="line"/>
		</contour>
		<contour>
			<point x="74" y="696" type="line"/>
			<point x="383" y="696" type="line"/>
			<point x="383" y="700" type="line"/>
			<point x="74" y="700" type="line"/>
		</contour>
		<contour>
			<point x="85" y="0" type="line"/>
			<point x="97" y="7" type="line"/>
			<point x="78.5" y="233" type="line"/>
			<point x="70" y="233" type="line"/>
			<point x="47" y="0" type="line"/>
		</contour>
		<contour>
			<point x="85" y="4" type="curve"/>
			<point x="85" y="0" type="line"/>
			<point x="294" y="0"/>
			<point x="323" y="135"/>
			<point x="323" y="350" type="curve"/>
			<point x="223" y="350" type="line"/>
			<point x="223" y="140"/>
			<point x="228" y="4"/>
		</contour>
	</outline>
</glyph>
<glyph name="J.ss06" format="2">
	<advance width="257.5"/>
	<anchor x="137" y="700" name="top"/>
	<anchor x="137" y="0" name="bottom"/>
	<outline>
		<contour>
			<point x="184.5" y="70" type="line"/>
			<point x="184.5" y="700" type="line"/>
			<point x="84.5" y="700" type="line"/>
			<point x="84.5" y="79" type="line"/>
		</contour>
		<contour>
			<point x="-46" y="-19.5" type="curve"/>
			<point x="-52" y="-19.5" type="line"/>
			<point x="-52" y="-62.5"/>
			<point x="-9.5" y="-93"/>
			<point x="32" y="-93" type="curve" smooth="yes"/>
			<point x="123.5" y="-93"/>
			<point x="184.5" y="-54"/>
			<point x="184.5" y="70" type="curve"/>
			<point x="84.5" y="79" type="line"/>
			<point x="84.5" y="-54.5"/>
			<point x="77.5" y="-89"/>
			<point x="35.5" y="-89" type="curve" smooth="yes"/>
			<point x="-4" y="-89"/>
			<point x="-46" y="-61"/>
		</contour>
		<component base="_part.longserif" xScale="-1" xOffset="278"/>
	</outline>
</glyph>
<glyph name="J.ss09" format="2">
	<advance width="764"/>
	<anchor x="644" y="700" name="top"/>
	<anchor x="644" y="0" name="bottom"/>
	<outline>
		<contour>
			<point x="366" y="532" type="line"/>
			<point x="373" y="532" type="line"/>
			<point x="430" y="700" type="line"/>
			<point x="391" y="700" type="line"/>
		</contour>
		<contour>
			<point x="591" y="178.5" type="line"/>
			<point x="691" y="181.5" type="line"/>
			<point x="691" y="700" type="line"/>
			<point x="591" y="700" type="line"/>
		</contour>
		<contour>
			<point x="417" y="696" type="line"/>
			<point x="751" y="696" type="line"/>
			<point x="751" y="700" type="line"/>
			<point x="417" y="700" type="line"/>
		</contour>
		<contour>
			<point x="13" y="90.5" type="curve" smooth="yes"/>
			<point x="13" y="22.5"/>
			<point x="52" y="-8"/>
			<point x="101.5" y="-8" type="curve" smooth="yes"/>
			<point x="174.5" y="-8"/>
			<point x="272.5" y="61"/>
			<point x="272.5" y="200.5" type="curve" smooth="yes"/>
			<point x="272.5" y="252.5"/>
			<point x="252" y="305.5"/>
			<point x="217" y="339.5" type="curve" smooth="yes"/>
			<point x="185" y="370.5"/>
			<point x="106" y="426"/>
			<point x="106" y="500" type="curve" smooth="yes"/>
			<point x="106" y="597"/>
			<point x="201.5" y="595"/>
			<point x="285.5" y="545" type="curve" smooth="yes"/>
			<point x="351.5" y="506"/>
			<point x="410.5" y="437.5"/>
			<point x="410.5" y="365" type="curve" smooth="yes"/>
			<point x="410.5" y="301.5"/>
			<point x="349.5" y="194"/>
			<point x="349.5" y="122" type="curve" smooth="yes"/>
			<point x="349.5" y="44"/>
			<point x="418.5" y="-8"/>
			<point x="502" y="-8" type="curve" smooth="yes"/>
			<point x="634.5" y="-8"/>
			<point x="691" y="63.5"/>
			<point x="691" y="181.5" type="curve"/>
			<point x="591" y="178.5" type="line"/>
			<point x="589" y="71.5"/>
			<point x="571.5" y="-4"/>
			<point x="502" y="-4" type="curve" smooth="yes"/>
			<point x="452" y="-4"/>
			<point x="400.5" y="18.5"/>
			<point x="400.5" y="67" type="curve" smooth="yes"/>
			<point x="400.5" y="154.5"/>
			<point x="496.5" y="224"/>
			<point x="496.5" y="304" type="curve" smooth="yes"/>
			<point x="496.5" y="381.5"/>
			<point x="396" y="487.5"/>
			<point x="289.5" y="548" type="curve" smooth="yes"/>
			<point x="237.5" y="577.5"/>
			<point x="184" y="597"/>
			<point x="141" y="597" type="curve" smooth="yes"/>
			<point x="64" y="597"/>
			<point x="13" y="557.5"/>
			<point x="13" y="498" type="curve" smooth="yes"/>
			<point x="13" y="402"/>
			<point x="141.5" y="346.5"/>
			<point x="198" y="310" type="curve" smooth="yes"/>
			<point x="242" y="281"/>
			<point x="266.5" y="249.5"/>
			<point x="266.5" y="211" type="curve" smooth="yes"/>
			<point x="266.5" y="145"/>
			<point x="194.5" y="108"/>
			<point x="139" y="108" type="curve" smooth="yes"/>
			<point x="96.5" y="108"/>
			<point x="60.5" y="130"/>
			<point x="60.5" y="168.5" type="curve" smooth="yes"/>
			<point x="60.5" y="191.5"/>
			<point x="73.5" y="216"/>
			<point x="100" y="231" type="curve"/>
			<point x="96" y="236" type="line"/>
			<point x="46" y="201.5"/>
			<point x="13" y="151"/>
		</contour>
	</outline>
</glyph>
<glyph name="K.ss04" format="2">
	<advance width="488"/>
	<anchor x="234" y="700" name="top"/>
	<anchor x="234" y="0" name="bottom"/>
	<outline>
		<contour>
			<point x="336" y="0" type="line"/>
			<point x="437" y="0" type="line"/>
			<point x="269.5" y="596" type="line"/>
			<point x="192.5" y="538.5" type="line"/>
		</contour>
		<contour>
			<point x="267" y="0" type="line"/>
			<point x="487" y="0" type="line"/>
			<point x="487" y="4" type="line"/>
			<point x="267" y="4" type="line"/>
		</contour>
		<contour>
			<point x="138" y="497" type="line"/>
			<point x="145.5" y="497" type="line"/>
			<point x="410.5" y="700" type="line"/>
			<point x="403" y="700" type="line"/>
		</contour>
		<contour>
			<point x="267" y="696" type="line"/>
			<point x="425" y="696" type="line"/>
			<point x="425" y="700" type="line"/>
			<point x="267" y="700" type="line"/>
		</contour>
		<component base="_part.stemserifs" xOffset="-22"/>
	</outline>
</glyph>
<glyph name="L.ss01" format="2">
	<advance width="385"/>
	<outline>
		<contour>
			<point x="281" y="0" type="curve"/>
			<point x="287" y="0" type="line"/>
			<point x="339" y="59"/>
			<point x="367" y="106.5"/>
			<point x="367" y="167" type="curve" smooth="yes"/>
			<point x="367" y="208"/>
			<point x="354" y="243"/>
			<point x="343" y="275" type="curve" smooth="yes"/>
			<point x="336" y="297"/>
			<point x="333" y="322"/>
			<point x="333" y="346" type="curve" smooth="yes"/>
			<point x="333" y="394"/>
			<point x="346" y="441"/>
			<point x="374" y="471" type="curve"/>
			<point x="370" y="475" type="line"/>
			<point x="307" y="407"/>
			<point x="255" y="340"/>
			<point x="255" y="260" type="curve" smooth="yes"/>
			<point x="255" y="223"/>
			<point x="266" y="197"/>
			<point x="277" y="171" type="curve" smooth="yes"/>
			<point x="290" y="140"/>
			<point x="297" y="112"/>
			<point x="297" y="83" type="curve" smooth="yes"/>
			<point x="297" y="58"/>
			<point x="292" y="31"/>
		</contour>
		<contour>
			<point x="201" y="0" type="line"/>
			<point x="287" y="0" type="line"/>
			<point x="287" y="4" type="line"/>
			<point x="201" y="4" type="line"/>
		</contour>
		<component base="_part.stemserifs" xOffset="-22"/>
	</outline>
</glyph>
<glyph name="L.ss02" format="2">
	<advance width="365"/>
	<anchor x="183" y="350" name="center"/>
	<anchor x="183" y="700" name="top"/>
	<anchor x="369" y="700" name="topright"/>
	<anchor x="183" y="0" name="bottom"/>
	<outline>
		<contour>
			<point x="291.5" y="0" type="line"/>
			<point x="342" y="0" type="line"/>
			<point x="364" y="383" type="line"/>
			<point x="355.5" y="383" type="line"/>
		</contour>
		<contour>
			<point x="221" y="0" type="line"/>
			<point x="307" y="0" type="line"/>
			<point x="307" y="4" type="line"/>
			<point x="221" y="4" type="line"/>
		</contour>
		<component base="_part.stemserifs" xOffset="-22"/>
	</outline>
</glyph>
<glyph name="L.ss07" format="2">
	<advance width="395"/>
	<outline>
		<contour>
			<point x="231.5" y="0" type="line"/>
			<point x="292" y="0" type="line"/>
			<point x="324" y="283" type="line"/>
			<point x="315.5" y="283" type="line"/>
		</contour>
		<contour>
			<point x="221" y="0" type="line"/>
			<point x="322" y="0" type="line"/>
			<point x="322" y="4" type="line"/>
			<point x="221" y="4" type="line"/>
		</contour>
		<contour>
			<point x="305" y="0" type="line"/>
			<point x="344" y="0" type="line"/>
			<point x="399" y="168" type="line"/>
			<point x="392" y="168" type="line"/>
		</contour>
		<component base="_part.stemserifs" xOffset="-22"/>
	</outline>
</glyph>
<glyph name="L_L.dlig" format="2">
	<advance width="648.5"/>
	<outline>
		<contour>
			<point x="71" y="0" type="line"/>
			<point x="171" y="0" type="line"/>
			<point x="171" y="700" type="line"/>
			<point x="71" y="700" type="line"/>
		</contour>
		<contour>
			<point x="11" y="0" type="line"/>
			<point x="552.5" y="0" type="line"/>
			<point x="552.5" y="4" type="line"/>
			<point x="11" y="4" type="line"/>
		</contour>
		<contour>
			<point x="280.5" y="283" type="line"/>
			<point x="550.5" y="283" type="line"/>
			<point x="550.5" y="287" type="line"/>
			<point x="280.5" y="287" type="line"/>
		</contour>
		<contour>
			<point x="513" y="0" type="line"/>
			<point x="563.5" y="0" type="line"/>
			<point x="635.5" y="233" type="line"/>
			<point x="627" y="233" type="line"/>
		</contour>
		<contour>
			<point x="11" y="696" type="line"/>
			<point x="231" y="696" type="line"/>
			<point x="231" y="700" type="line"/>
			<point x="11" y="700" type="line"/>
		</contour>
		<contour>
			<point x="340.5" y="283" type="line"/>
			<point x="440.5" y="283" type="line"/>
			<point x="440.5" y="700" type="line"/>
			<point x="340.5" y="700" type="line"/>
		</contour>
		<contour>
			<point x="513" y="283" type="line"/>
			<point x="563.5" y="283" type="line"/>
			<point x="635.5" y="516" type="line"/>
			<point x="627" y="516" type="line"/>
		</contour>
		<contour>
			<point x="280.5" y="696" type="line"/>
			<point x="500.5" y="696" type="line"/>
			<point x="500.5" y="700" type="line"/>
			<point x="280.5" y="700" type="line"/>
		</contour>
	</outline>
</glyph>
<glyph name="M.ss03" format="2">
	<advance width="557"/>
	<outline>
		<contour>
			<point x="424" y="0" type="line"/>
			<point x="526" y="0" type="line"/>
			<point x="356.5" y="737" type="line"/>
			<point x="307" y="504" type="line"/>
		</contour>
		<contour>
			<point x="24" y="0" type="line"/>
			<point x="28.5" y="0" type="line"/>
			<point x="196" y="726" type="line"/>
			<point x="193.5" y="737" type="line"/>
		</contour>
		<contour>
			<point x="195.5" y="-49" type="line"/>
			<point x="254.5" y="243" type="line"/>
			<point x="193.5" y="737" type="line"/>
			<point x="126" y="443" type="line"/>
		</contour>
		<contour>
			<point x="195.5" y="-49" type="line"/>
			<point x="359.5" y="729" type="line"/>
			<point x="356.5" y="737" type="line"/>
			<point x="195" y="-22.5" type="line"/>
		</contour>
		<component base="_part.longserif" xOffset="331" yOffset="-696"/>
		<component base="_part.shortserif" xOffset="-60" yOffset="-696"/>
	</outline>
</glyph>
<glyph name="M.ss04" format="2">
	<advance width="504.5"/>
	<outline>
		<contour>
			<point x="333.5" y="0" type="line"/>
			<point x="433.5" y="0" type="line"/>
			<point x="433.5" y="700" type="line"/>
			<point x="348" y="700" type="line"/>
			<point x="333.5" y="680" type="line"/>
		</contour>
		<contour>
			<point x="199" y="484" type="line"/>
			<point x="255.5" y="561.5" type="line"/>
			<point x="158.5" y="700" type="line"/>
			<point x="48.5" y="700" type="line"/>
		</contour>
		<contour>
			<point x="200" y="482.5" type="line"/>
			<point x="353" y="700" type="line"/>
			<point x="348" y="700" type="line"/>
			<point x="198" y="485.5" type="line"/>
		</contour>
		<component base="_part.stemthin" xOffset="-2"/>
		<component base="_part.longserif" xScale="-1" yScale="-1" xOffset="527" yOffset="700"/>
		<component base="_part.shortserif" xOffset="333"/>
	</outline>
</glyph>
<glyph name="M.ss06" format="2">
	<advance width="558"/>
	<anchor x="279" y="700" name="top"/>
	<anchor x="279" y="0" name="bottom"/>
	<outline>
		<contour>
			<point x="233" y="-58" type="line"/>
			<point x="276" y="199.5" type="line"/>
			<point x="192" y="700" type="line"/>
			<point x="100" y="700" type="line"/>
		</contour>
		<contour>
			<point x="238.5" y="-7" type="line"/>
			<point x="233" y="-58" type="line"/>
			<point x="366" y="700" type="line"/>
			<point x="362" y="700" type="line"/>
		</contour>
		<contour>
			<point x="65" y="0" type="line"/>
			<point x="69" y="0" type="line"/>
			<point x="101" y="700" type="line"/>
			<point x="97" y="700" type="line"/>
		</contour>
		<contour>
			<point x="395" y="0" type="line"/>
			<point x="495" y="0" type="line"/>
			<point x="463" y="700" type="line"/>
			<point x="363" y="700" type="line"/>
		</contour>
		<component base="_part.longserif" xScale="-1" yScale="-1" xOffset="588" yOffset="700"/>
		<component base="_part.shortserif" xOffset="364"/>
		<component base="_part.shortserif"/>
		<component base="_part.shortserif" xOffset="-30" yOffset="-696"/>
	</outline>
</glyph>
<glyph name="O.ss03" format="2">
	<advance width="500"/>
	<anchor x="250" y="350" name="center"/>
	<anchor x="466" y="10" name="ogonek"/>
	<anchor x="250" y="700" name="top"/>
	<anchor x="500" y="700" name="topright"/>
	<anchor x="0" y="700" name="topleft"/>
	<anchor x="250" y="0" name="bottom"/>
	<outline>
		<contour>
			<point x="380" y="350" type="curve"/>
			<point x="490" y="350" type="line"/>
			<point x="490" y="526"/>
			<point x="423" y="708"/>
			<point x="250" y="708" type="curve"/>
			<point x="250" y="704" type="line"/>
			<point x="342" y="704"/>
			<point x="380" y="558"/>
		</contour>
		<contour>
			<point x="250" y="-8" type="curve"/>
			<point x="250" y="-4" type="line"/>
			<point x="158" y="-4"/>
			<point x="120" y="142"/>
			<point x="120" y="350" type="curve"/>
			<point x="10" y="350" type="line"/>
			<point x="10" y="174"/>
			<point x="77" y="-8"/>
		</contour>
		<contour>
			<point x="250" y="-4" type="curve"/>
			<point x="250" y="-8" type="line"/>
			<point x="423" y="-8"/>
			<point x="490" y="174"/>
			<point x="490" y="350" type="curve"/>
			<point x="380" y="350" type="line"/>
			<point x="380" y="142"/>
			<point x="342" y="-4"/>
		</contour>
		<contour>
			<point x="250" y="299" type="curve" smooth="yes"/>
			<point x="278" y="299"/>
			<point x="301" y="322"/>
			<point x="301" y="350" type="curve" smooth="yes"/>
			<point x="301" y="378"/>
			<point x="278" y="401"/>
			<point x="250" y="401" type="curve" smooth="yes"/>
			<point x="222" y="401"/>
			<point x="199" y="378"/>
			<point x="199" y="350" type="curve" smooth="yes"/>
			<point x="199" y="322"/>
			<point x="222" y="299"/>
		</contour>
		<contour>
			<point x="10" y="350" type="curve"/>
			<point x="120" y="350" type="line"/>
			<point x="120" y="558"/>
			<point x="158" y="704"/>
			<point x="250" y="704" type="curve"/>
			<point x="250" y="708" type="line"/>
			<point x="77" y="708"/>
			<point x="10" y="526"/>
		</contour>
	</outline>
</glyph>
<glyph name="O.ss04" format="2">
	<advance width="716"/>
	<anchor x="358" y="350" name="center"/>
	<anchor x="645" y="10" name="ogonek"/>
	<anchor x="358" y="700" name="top"/>
	<anchor x="697" y="700" name="topright"/>
	<anchor x="19" y="700" name="topleft"/>
	<anchor x="358" y="0" name="bottom"/>
	<outline>
		<contour>
			<point x="358" y="-8" type="curve"/>
			<point x="358" y="-4" type="line"/>
			<point x="215" y="-4"/>
			<point x="120" y="140"/>
			<point x="120" y="350" type="curve"/>
			<point x="10" y="350" type="line"/>
			<point x="10" y="135"/>
			<point x="149" y="-8"/>
		</contour>
		<contour>
			<point x="10" y="350" type="curve"/>
			<point x="120" y="350" type="line"/>
			<point x="120" y="560"/>
			<point x="215" y="704"/>
			<point x="358" y="704" type="curve"/>
			<point x="358" y="708" type="line"/>
			<point x="149" y="708"/>
			<point x="10" y="565"/>
		</contour>
		<contour>
			<point x="358" y="-4" type="curve"/>
			<point x="358" y="-8" type="line"/>
			<point x="567" y="-8"/>
			<point x="706" y="135"/>
			<point x="706" y="350" type="curve"/>
			<point x="596" y="350" type="line"/>
			<point x="596" y="140"/>
			<point x="501" y="-4"/>
		</contour>
		<contour>
			<point x="596" y="350" type="curve"/>
			<point x="706" y="350" type="line"/>
			<point x="706" y="565"/>
			<point x="567" y="708"/>
			<point x="358" y="708" type="curve"/>
			<point x="358" y="704" type="line"/>
			<point x="501" y="704"/>
			<point x="596" y="560"/>
		</contour>
	</outline>
</glyph>
<glyph name="Oslash.ss03" format="2">
	<advance width="466"/>
	<outline>
		<contour>
			<point x="53.5" y="-50" type="line"/>
			<point x="62.5" y="-50" type="line"/>
			<point x="448.5" y="750" type="line"/>
			<point x="439.5" y="750" type="line"/>
		</contour>
		<component base="O.ss03"/>
	</outline>
</glyph>
<glyph name="P.ss04" format="2">
	<advance width="430.5"/>
	<outline>
		<contour>
			<point x="168" y="492" type="line"/>
			<point x="190" y="492" type="line" smooth="yes"/>
			<point x="288.5" y="492"/>
			<point x="418.5" y="552.5"/>
			<point x="418.5" y="631.5" type="curve" smooth="yes"/>
			<point x="418.5" y="699"/>
			<point x="323.5" y="700"/>
			<point x="226" y="700" type="curve" smooth="yes"/>
			<point x="168" y="700" type="line"/>
			<point x="168" y="696" type="line"/>
			<point x="190" y="696" type="line" smooth="yes"/>
			<point x="270" y="696"/>
			<point x="322" y="693"/>
			<point x="322" y="628.5" type="curve" smooth="yes"/>
			<point x="322" y="563"/>
			<point x="267.5" y="498"/>
			<point x="190" y="498" type="curve" smooth="yes"/>
			<point x="168" y="498" type="line"/>
		</contour>
		<component base="_part.halfstemleft" xOffset="-2"/>
	</outline>
</glyph>
<glyph name="P.ss06" format="2">
	<advance width="456"/>
	<anchor x="223" y="700" name="top"/>
	<anchor x="223" y="0" name="bottom"/>
	<outline>
		<contour>
			<point x="349" y="500" type="curve"/>
			<point x="444" y="500" type="line"/>
			<point x="444" y="630"/>
			<point x="355" y="700"/>
			<point x="227" y="700" type="curve" smooth="yes"/>
			<point x="168" y="700" type="line"/>
			<point x="168" y="696" type="line"/>
			<point x="190" y="696" type="line" smooth="yes"/>
			<point x="277" y="696"/>
			<point x="349" y="638"/>
		</contour>
		<contour>
			<point x="168" y="305" type="line"/>
			<point x="227" y="305" type="line" smooth="yes"/>
			<point x="355" y="305"/>
			<point x="444" y="377"/>
			<point x="444" y="500" type="curve"/>
			<point x="349" y="500" type="line"/>
			<point x="349" y="382"/>
			<point x="285" y="309"/>
			<point x="190" y="309" type="curve" smooth="yes"/>
			<point x="168" y="309" type="line"/>
		</contour>
		<component base="_part.stemserifs" xOffset="-22"/>
	</outline>
</glyph>
<glyph name="Q.ss03" format="2">
	<advance width="506"/>
	<outline>
		<contour>
			<point x="369.5" y="-145" type="curve"/>
			<point x="369.5" y="-137" type="line"/>
			<point x="328.5" y="-137"/>
			<point x="318.5" y="-82"/>
			<point x="318.5" y="0" type="curve"/>
			<point x="223.5" y="0" type="line"/>
			<point x="223.5" y="-104.5"/>
			<point x="264.5" y="-145"/>
		</contour>
		<contour>
			<point x="172.5" y="145" type="curve"/>
			<point x="172.5" y="137" type="line"/>
			<point x="213.5" y="137"/>
			<point x="223.5" y="82"/>
			<point x="223.5" y="0" type="curve"/>
			<point x="318.5" y="0" type="line"/>
			<point x="318.5" y="104.5"/>
			<point x="277.5" y="145"/>
		</contour>
		<component base="O.ss03"/>
	</outline>
</glyph>
<glyph name="Q.ss04" format="2">
	<advance width="718"/>
	<outline>
		<contour>
			<point x="481" y="-100" type="curve" smooth="yes"/>
			<point x="527.5" y="-100"/>
			<point x="583.5" y="-72.5"/>
			<point x="621" y="-31" type="curve"/>
			<point x="617" y="-27" type="line"/>
			<point x="586" y="-59.5"/>
			<point x="541.5" y="-81"/>
			<point x="505" y="-81" type="curve" smooth="yes"/>
			<point x="429" y="-81"/>
			<point x="380.5" y="-41.5"/>
			<point x="340" y="75.5" type="curve" smooth="yes"/>
			<point x="309.5" y="164"/>
			<point x="292.5" y="186"/>
			<point x="256" y="186" type="curve" smooth="yes"/>
			<point x="232.5" y="186"/>
			<point x="194.5" y="161.5"/>
			<point x="161.5" y="125" type="curve"/>
			<point x="161.5" y="118" type="line"/>
			<point x="172.5" y="128"/>
			<point x="185.5" y="135"/>
			<point x="194" y="135" type="curve" smooth="yes"/>
			<point x="224" y="135"/>
			<point x="244" y="92"/>
			<point x="267" y="43" type="curve" smooth="yes"/>
			<point x="306.5" y="-43"/>
			<point x="392" y="-100"/>
		</contour>
		<component base="O.ss04"/>
	</outline>
</glyph>
<glyph name="Q.ss06" format="2">
	<advance width="470"/>
	<anchor x="293" y="700" name="top"/>
	<anchor x="293" y="0" name="bottom"/>
	<outline>
		<contour>
			<point x="295" y="-104" type="curve" smooth="yes"/>
			<point x="323" y="-104"/>
			<point x="352.5" y="-82"/>
			<point x="370" y="-49" type="curve"/>
			<point x="364.5" y="-49" type="line"/>
			<point x="359.5" y="-60"/>
			<point x="345.5" y="-74.5"/>
			<point x="330.5" y="-74.5" type="curve" smooth="yes"/>
			<point x="314.5" y="-74.5"/>
			<point x="306.5" y="-55.5"/>
			<point x="284.5" y="21.5" type="curve" smooth="yes"/>
			<point x="261" y="101.5"/>
			<point x="249.5" y="123"/>
			<point x="220" y="123" type="curve" smooth="yes"/>
			<point x="194" y="123"/>
			<point x="177" y="111"/>
			<point x="148" y="93" type="curve"/>
			<point x="149" y="89.5" type="line"/>
			<point x="156" y="94"/>
			<point x="161" y="96"/>
			<point x="165" y="96" type="curve" smooth="yes"/>
			<point x="187.5" y="96"/>
			<point x="198" y="78.5"/>
			<point x="218" y="12.5" type="curve" smooth="yes"/>
			<point x="246.5" y="-80"/>
			<point x="259.5" y="-104"/>
		</contour>
		<component base="O"/>
	</outline>
</glyph>
<glyph name="R.ss01" format="2">
	<advance width="457"/>
	<anchor x="228" y="700" name="top"/>
	<anchor x="278" y="0" name="bottom"/>
	<outline>
		<contour>
			<point x="455" y="-8" type="curve" smooth="yes"/>
			<point x="477" y="-8"/>
			<point x="497.5" y="-4.5"/>
			<point x="506" y="1" type="curve"/>
			<point x="503" y="6" type="line"/>
			<point x="500" y="5"/>
			<point x="495" y="4"/>
			<point x="492" y="4" type="curve" smooth="yes"/>
			<point x="380" y="4"/>
			<point x="413" y="44"/>
			<point x="354" y="144" type="curve" smooth="yes"/>
			<point x="322.5" y="199"/>
			<point x="257" y="213"/>
			<point x="170" y="213" type="curve"/>
			<point x="170" y="208" type="line"/>
			<point x="233" y="208"/>
			<point x="253.5" y="187.5"/>
			<point x="274.5" y="103" type="curve" smooth="yes"/>
			<point x="289" y="48.5"/>
			<point x="330" y="-8"/>
		</contour>
		<contour>
			<point x="168" y="208" type="line"/>
			<point x="227" y="208" type="line" smooth="yes"/>
			<point x="351" y="208"/>
			<point x="434" y="254"/>
			<point x="434" y="450" type="curve"/>
			<point x="339" y="450" type="line"/>
			<point x="339" y="308"/>
			<point x="309" y="213"/>
			<point x="190" y="213" type="curve" smooth="yes"/>
			<point x="168" y="213" type="line"/>
		</contour>
		<contour>
			<point x="339" y="450" type="curve"/>
			<point x="434" y="450" type="line"/>
			<point x="434" y="600"/>
			<point x="351" y="700"/>
			<point x="227" y="700" type="curve" smooth="yes"/>
			<point x="168" y="700" type="line"/>
			<point x="168" y="696" type="line"/>
			<point x="190" y="696" type="line" smooth="yes"/>
			<point x="279.5" y="696"/>
			<point x="339" y="595"/>
		</contour>
		<component base="_part.stemserifs" xOffset="-22"/>
	</outline>
</glyph>
<glyph name="R.ss03" format="2">
	<advance width="465"/>
	<anchor x="243" y="700" name="top"/>
	<anchor x="243" y="0" name="bottom"/>
	<outline>
		<contour>
			<point x="612" y="-109.5" type="curve"/>
			<point x="612" y="-105.5" type="line"/>
			<point x="599.5" y="-107.5"/>
			<point x="588" y="-108.5"/>
			<point x="577" y="-108.5" type="curve" smooth="yes"/>
			<point x="487" y="-108.5"/>
			<point x="451" y="-40"/>
			<point x="421" y="82" type="curve" smooth="yes"/>
			<point x="400.5" y="167"/>
			<point x="373.5" y="232"/>
			<point x="301" y="232" type="curve" smooth="yes"/>
			<point x="267.5" y="232"/>
			<point x="211.5" y="213"/>
			<point x="165" y="185" type="curve"/>
			<point x="165" y="184.5" type="line"/>
			<point x="267" y="235"/>
			<point x="291.5" y="164"/>
			<point x="323.5" y="59" type="curve" smooth="yes"/>
			<point x="338.5" y="9.5"/>
			<point x="354" y="-39.5"/>
			<point x="380.5" y="-68.5" type="curve" smooth="yes"/>
			<point x="427.5" y="-120"/>
			<point x="518.5" y="-137.5"/>
		</contour>
		<contour>
			<point x="165" y="185.5" type="curve"/>
			<point x="166" y="183.5" type="line"/>
			<point x="320" y="260"/>
			<point x="428" y="398"/>
			<point x="428" y="516.5" type="curve" smooth="yes"/>
			<point x="428" y="616.5"/>
			<point x="365" y="700"/>
			<point x="227" y="700" type="curve" smooth="yes"/>
			<point x="168" y="700" type="line"/>
			<point x="168" y="696" type="line"/>
			<point x="190" y="696" type="line" smooth="yes"/>
			<point x="289" y="696"/>
			<point x="333" y="615"/>
			<point x="333" y="516.5" type="curve" smooth="yes"/>
			<point x="333" y="387.5"/>
			<point x="268" y="252.5"/>
		</contour>
		<component base="_part.stemserifs" xOffset="-22"/>
	</outline>
</glyph>
<glyph name="R.ss06" format="2">
	<advance width="441"/>
	<anchor x="223" y="700" name="top"/>
	<anchor x="223" y="0" name="bottom"/>
	<outline>
		<contour>
			<point x="473" y="-8" type="curve" smooth="yes"/>
			<point x="496" y="-8"/>
			<point x="516" y="-4"/>
			<point x="524" y="1" type="curve"/>
			<point x="521" y="4" type="line"/>
			<point x="518" y="3"/>
			<point x="513" y="2"/>
			<point x="510" y="2" type="curve" smooth="yes"/>
			<point x="433" y="2"/>
			<point x="408.5" y="60.5"/>
			<point x="287" y="319.5" type="curve"/>
			<point x="192" y="305" type="line"/>
			<point x="306" y="54.5"/>
			<point x="346" y="-8"/>
		</contour>
		<contour>
			<point x="168" y="305" type="line"/>
			<point x="227" y="305" type="line" smooth="yes"/>
			<point x="345" y="305"/>
			<point x="434" y="377"/>
			<point x="434" y="500" type="curve"/>
			<point x="339" y="500" type="line"/>
			<point x="339" y="382"/>
			<point x="275" y="309"/>
			<point x="190" y="309" type="curve" smooth="yes"/>
			<point x="168" y="309" type="line"/>
		</contour>
		<contour>
			<point x="339" y="500" type="curve"/>
			<point x="434" y="500" type="line"/>
			<point x="434" y="630"/>
			<point x="345" y="700"/>
			<point x="227" y="700" type="curve" smooth="yes"/>
			<point x="168" y="700" type="line"/>
			<point x="168" y="696" type="line"/>
			<point x="190" y="696" type="line" smooth="yes"/>
			<point x="267" y="696"/>
			<point x="339" y="638"/>
		</contour>
		<component base="_part.stemserifs" xOffset="-22"/>
	</outline>
</glyph>
<glyph name="S.ss06" format="2">
	<advance width="404.5"/>
	<anchor x="195" y="700" name="top"/>
	<anchor x="195" y="0" name="bottom"/>
	<outline>
		<contour>
			<point x="195" y="-4" type="curve"/>
			<point x="195" y="-8" type="line"/>
			<point x="314.5" y="-8"/>
			<point x="393" y="76.5"/>
			<point x="393" y="203.5" type="curve" smooth="yes"/>
			<point x="393" y="290.5"/>
			<point x="327" y="344"/>
			<point x="282" y="389" type="curve" smooth="yes"/>
			<point x="237" y="434"/>
			<point x="134" y="504"/>
			<point x="134" y="612" type="curve" smooth="yes"/>
			<point x="134" y="660"/>
			<point x="169" y="700.5"/>
			<point x="220" y="700.5" type="curve" smooth="yes"/>
			<point x="305" y="700.5"/>
			<point x="321" y="605.5"/>
			<point x="312" y="506.5" type="curve" smooth="yes"/>
			<point x="309" y="473.5" type="line"/>
			<point x="312.5" y="473.5" type="line"/>
			<point x="379.5" y="699.5" type="line"/>
			<point x="374" y="701.5" type="line"/>
			<point x="364" y="675.5"/>
			<point x="355" y="663.5"/>
			<point x="339" y="663.5" type="curve" smooth="yes"/>
			<point x="316" y="663.5"/>
			<point x="277" y="704.5"/>
			<point x="220" y="704.5" type="curve" smooth="yes"/>
			<point x="121" y="704.5"/>
			<point x="52" y="630"/>
			<point x="52" y="538" type="curve" smooth="yes"/>
			<point x="52" y="433"/>
			<point x="149.5" y="357.5"/>
			<point x="200" y="318" type="curve" smooth="yes"/>
			<point x="245" y="282.5"/>
			<point x="311" y="218.5"/>
			<point x="311" y="131.5" type="curve" smooth="yes"/>
			<point x="311" y="50.5"/>
			<point x="264.5" y="-4"/>
		</contour>
		<contour>
			<point x="195" y="-8" type="curve"/>
			<point x="195" y="-4" type="line"/>
			<point x="107.5" y="-4"/>
			<point x="49.5" y="92.5"/>
			<point x="68" y="231" type="curve"/>
			<point x="62" y="233" type="line"/>
			<point x="13" y="20" type="line"/>
			<point x="19" y="18" type="line"/>
			<point x="24" y="26"/>
			<point x="38" y="32"/>
			<point x="52" y="32" type="curve" smooth="yes"/>
			<point x="91" y="32"/>
			<point x="127" y="-8"/>
		</contour>
	</outline>
</glyph>
<glyph name="T.ss01" format="2">
	<advance width="430"/>
	<anchor x="215" y="350" name="center"/>
	<anchor x="215" y="0" name="bottom"/>
	<anchor x="215" y="700" name="top"/>
	<outline>
		<contour>
			<point x="408.5" y="317" type="line"/>
			<point x="417" y="317" type="line"/>
			<point x="395" y="700" type="line"/>
			<point x="344.5" y="700" type="line"/>
		</contour>
		<contour>
			<point x="13" y="317" type="line"/>
			<point x="21.5" y="317" type="line"/>
			<point x="85.5" y="700" type="line"/>
			<point x="35" y="700" type="line"/>
		</contour>
		<contour>
			<point x="59" y="696" type="line"/>
			<point x="145" y="696" type="line"/>
			<point x="145" y="700" type="line"/>
			<point x="59" y="700" type="line"/>
		</contour>
		<contour>
			<point x="285" y="696" type="line"/>
			<point x="371" y="696" type="line"/>
			<point x="371" y="700" type="line"/>
			<point x="285" y="700" type="line"/>
		</contour>
		<component base="_part.stemserifs" xOffset="72"/>
	</outline>
</glyph>
<glyph name="W.ss03" format="2">
	<advance width="557"/>
	<anchor x="328" y="700" name="top"/>
	<anchor x="278" y="0" name="bottom"/>
	<outline>
		<contour>
			<point x="200.5" y="-37" type="line"/>
			<point x="252" y="187" type="line"/>
			<point x="133" y="700" type="line"/>
			<point x="31" y="700" type="line"/>
		</contour>
		<contour>
			<point x="200.5" y="-37" type="line"/>
			<point x="332" y="535" type="line"/>
			<point x="330.5" y="551" type="line"/>
			<point x="198.5" y="-24" type="line"/>
		</contour>
		<contour>
			<point x="363.5" y="-37" type="line"/>
			<point x="415" y="187" type="line"/>
			<point x="330.5" y="551" type="line"/>
			<point x="280.5" y="323" type="line"/>
		</contour>
		<contour>
			<point x="363.5" y="-37" type="line"/>
			<point x="533" y="700" type="line"/>
			<point x="528.5" y="700" type="line"/>
			<point x="361.5" y="-23" type="line"/>
		</contour>
		<component base="_part.longserif" xOffset="-60"/>
		<component base="_part.shortserif" xOffset="423"/>
	</outline>
</glyph>
<glyph name="X.ss04" format="2">
	<advance width="378.5"/>
	<anchor x="210" y="700" name="top"/>
	<anchor x="-27" y="700" name="topleft"/>
	<outline>
		<contour>
			<point x="249" y="0" type="line"/>
			<point x="351.5" y="0" type="line"/>
			<point x="238" y="540" type="line"/>
			<point x="156.5" y="500" type="line"/>
		</contour>
		<contour>
			<point x="55" y="0" type="line"/>
			<point x="59.5" y="0" type="line"/>
			<point x="167" y="540" type="line"/>
			<point x="162.5" y="540" type="line"/>
		</contour>
		<contour>
			<point x="156.5" y="500" type="line"/>
			<point x="238" y="540" type="line"/>
			<point x="126.5" y="700" type="line"/>
			<point x="26.5" y="700" type="line"/>
		</contour>
		<contour>
			<point x="228.5" y="523.5" type="line"/>
			<point x="236" y="528.5" type="line"/>
			<point x="348" y="700" type="line"/>
			<point x="343.5" y="700" type="line"/>
		</contour>
		<component base="_part.longserif" xScale="-1" yScale="-1" xOffset="443" yOffset="700"/>
		<component base="_part.longserif" xOffset="-64"/>
		<component base="_part.shortserif" xOffset="248"/>
		<component base="_part.shortserif" xOffset="-36" yOffset="-696"/>
	</outline>
</glyph>
<glyph name="Y.ss04" format="2">
	<advance width="390"/>
	<anchor x="223" y="700" name="top"/>
	<anchor x="193" y="0" name="bottom"/>
	<anchor x="-12" y="700" name="topleft"/>
	<outline>
		<contour>
			<point x="144.5" y="0" type="line"/>
			<point x="244.5" y="0" type="line"/>
			<point x="244.5" y="537" type="line"/>
			<point x="144.5" y="537" type="line"/>
		</contour>
		<contour>
			<point x="144.5" y="531.5" type="line"/>
			<point x="244.5" y="531.5" type="line"/>
			<point x="131" y="700" type="line"/>
			<point x="31" y="700" type="line"/>
		</contour>
		<contour>
			<point x="237" y="531.5" type="line"/>
			<point x="241.5" y="531.5" type="line"/>
			<point x="356.5" y="700" type="line"/>
			<point x="352" y="700" type="line"/>
		</contour>
		<component base="_part.longserif" xScale="-1" yScale="-1" xOffset="338" yOffset="700"/>
		<component base="_part.longserif" xOffset="-60"/>
		<component base="_part.shortserif" xOffset="256"/>
	</outline>
</glyph>
<glyph name="Z.ss01" format="2">
	<advance width="390.5"/>
	<guideline x="369" y="700" angle="90"/>
	<anchor x="200" y="350" name="center"/>
	<anchor x="200" y="0" name="bottom"/>
	<anchor x="200" y="700" name="top"/>
	<outline>
		<contour>
			<point x="13" y="0" type="line"/>
			<point x="114" y="0" type="line"/>
			<point x="369" y="700" type="line"/>
			<point x="268" y="700" type="line"/>
		</contour>
		<contour>
			<point x="79" y="0" type="line"/>
			<point x="315" y="0" type="line"/>
			<point x="315" y="4" type="line"/>
			<point x="79" y="4" type="line"/>
		</contour>
		<contour>
			<point x="62" y="696" type="line"/>
			<point x="289" y="696" type="line"/>
			<point x="289" y="700" type="line"/>
			<point x="62" y="700" type="line"/>
		</contour>
		<contour>
			<point x="13" y="317" type="line"/>
			<point x="21.5" y="317" type="line"/>
			<point x="85.5" y="700" type="line"/>
			<point x="35" y="700" type="line"/>
		</contour>
		<contour>
			<point x="377.5" y="383" type="line"/>
			<point x="369" y="383" type="line"/>
			<point x="305" y="0" type="line"/>
			<point x="355.5" y="0" type="line"/>
		</contour>
	</outline>
</glyph>
<glyph name="_part.longserif" format="2">
	<advance width="286"/>
	<outline>
		<contour>
			<point x="33" y="696" type="line"/>
			<point x="253" y="696" type="line"/>
			<point x="253" y="700" type="line"/>
			<point x="33" y="700" type="line"/>
		</contour>
	</outline>
</glyph>
<glyph name="_part.shortserif" format="2">
	<advance width="194"/>
	<outline>
		<contour>
			<point x="33" y="696" type="line"/>
			<point x="161" y="696" type="line"/>
			<point x="161" y="700" type="line"/>
			<point x="33" y="700" type="line"/>
		</contour>
	</outline>
</glyph>
<glyph name="_part.wavestrokehorizontal" format="2">
	<advance width="330.5"/>
	<outline>
		<contour>
			<point x="162" y="286" type="curve" smooth="yes"/>
			<point x="195.5" y="286"/>
			<point x="243.5" y="324"/>
			<point x="282.5" y="381" type="curve"/>
			<point x="279" y="385" type="line"/>
			<point x="265.5" y="366.5"/>
			<point x="251" y="358.5"/>
			<point x="236.5" y="358.5" type="curve" smooth="yes"/>
			<point x="200" y="358.5"/>
			<point x="183" y="403"/>
			<point x="146" y="403" type="curve" smooth="yes"/>
			<point x="112" y="403"/>
			<point x="73" y="373"/>
			<point x="48" y="325" type="curve"/>
			<point x="58" y="315" type="line"/>
			<point x="58" y="325"/>
			<point x="66" y="331"/>
			<point x="77" y="331" type="curve" smooth="yes"/>
			<point x="106" y="331"/>
			<point x="124" y="286"/>
		</contour>
	</outline>
</glyph>
<glyph name="ampersand.ss09" format="2">
	<advance width="755.5"/>
	<outline>
		<contour>
			<point x="588" y="-8" type="curve" smooth="yes"/>
			<point x="713.5" y="-7.5"/>
			<point x="798" y="55"/>
			<point x="798" y="148" type="curve" smooth="yes"/>
			<point x="798" y="214.5"/>
			<point x="739.5" y="256"/>
			<point x="652" y="256" type="curve"/>
			<point x="651" y="251" type="line"/>
			<point x="691" y="248.5"/>
			<point x="718" y="209.5"/>
			<point x="718" y="155.5" type="curve" smooth="yes"/>
			<point x="718" y="60.5"/>
			<point x="672" y="-3.5"/>
			<point x="602" y="-3.5" type="curve" smooth="yes"/>
			<point x="564" y="-3.5"/>
			<point x="521" y="30"/>
			<point x="472" y="97.5" type="curve" smooth="yes"/>
			<point x="417" y="173"/>
			<point x="353.5" y="287"/>
			<point x="287" y="421" type="curve" smooth="yes"/>
			<point x="253.5" y="489"/>
			<point x="227.5" y="561.5"/>
			<point x="227.5" y="615.5" type="curve" smooth="yes"/>
			<point x="227.5" y="674.5"/>
			<point x="274.5" y="704"/>
			<point x="317" y="704" type="curve"/>
			<point x="323.5" y="708" type="line"/>
			<point x="232.5" y="708"/>
			<point x="141" y="661"/>
			<point x="141" y="567.5" type="curve" smooth="yes"/>
			<point x="141" y="517"/>
			<point x="154.5" y="452"/>
			<point x="190" y="386.5" type="curve" smooth="yes"/>
			<point x="240" y="294.5"/>
			<point x="294.5" y="197"/>
			<point x="358" y="122.5" type="curve" smooth="yes"/>
			<point x="423" y="46"/>
			<point x="498" y="-8.5"/>
		</contour>
		<contour>
			<point x="237.5" y="397.5" type="curve"/>
			<point x="268.5" y="400.5" type="line"/>
			<point x="404" y="412.5"/>
			<point x="492.5" y="485"/>
			<point x="492.5" y="570.5" type="curve" smooth="yes"/>
			<point x="492.5" y="642.5"/>
			<point x="430" y="708"/>
			<point x="323.5" y="708" type="curve"/>
			<point x="317" y="704" type="line"/>
			<point x="366" y="704"/>
			<point x="402.5" y="649"/>
			<point x="402.5" y="588.5" type="curve" smooth="yes"/>
			<point x="402.5" y="508.5"/>
			<point x="342.5" y="410"/>
		</contour>
		<contour>
			<point x="13" y="173.5" type="curve" smooth="yes"/>
			<point x="13" y="64.5"/>
			<point x="118.5" y="-8"/>
			<point x="276.5" y="-8" type="curve" smooth="yes"/>
			<point x="356.5" y="-8"/>
			<point x="422" y="19.5"/>
			<point x="478" y="69.5" type="curve" smooth="yes"/>
			<point x="549" y="132"/>
			<point x="605.5" y="229"/>
			<point x="658" y="350" type="curve" smooth="yes"/>
			<point x="738.5" y="535"/>
			<point x="776.5" y="654"/>
			<point x="921.5" y="654" type="curve" smooth="yes"/>
			<point x="1035" y="654"/>
			<point x="1112" y="578.5"/>
			<point x="1112" y="469" type="curve" smooth="yes"/>
			<point x="1112" y="320"/>
			<point x="823.5" y="323"/>
			<point x="823.5" y="156.5" type="curve" smooth="yes"/>
			<point x="823.5" y="70"/>
			<point x="919.5" y="-8"/>
			<point x="1084" y="-8" type="curve" smooth="yes"/>
			<point x="1179.5" y="-8"/>
			<point x="1243" y="26.5"/>
			<point x="1243" y="78.5" type="curve" smooth="yes"/>
			<point x="1243" y="100.5"/>
			<point x="1231.5" y="127"/>
			<point x="1213.5" y="159.5" type="curve" smooth="yes"/>
			<point x="1197.5" y="187.5"/>
			<point x="1181" y="216"/>
			<point x="1181" y="255.5" type="curve" smooth="yes"/>
			<point x="1181" y="324.5"/>
			<point x="1235.5" y="380.5"/>
			<point x="1295" y="380.5" type="curve" smooth="yes"/>
			<point x="1345.5" y="380.5"/>
			<point x="1396" y="321.5"/>
			<point x="1396" y="226" type="curve" smooth="yes"/>
			<point x="1396" y="162.5"/>
			<point x="1346" y="150"/>
			<point x="1311.5" y="129" type="curve" smooth="yes"/>
			<point x="1287.5" y="114.5"/>
			<point x="1280.5" y="93"/>
			<point x="1280.5" y="77" type="curve" smooth="yes"/>
			<point x="1280.5" y="18.5"/>
			<point x="1335.5" y="-8.5"/>
			<point x="1396.5" y="-8.5" type="curve" smooth="yes"/>
			<point x="1473" y="-8.5"/>
			<point x="1557.5" y="33"/>
			<point x="1557.5" y="109" type="curve" smooth="yes"/>
			<point x="1557.5" y="146.5"/>
			<point x="1542" y="202.5"/>
			<point x="1524.5" y="249.5" type="curve"/>
			<point x="1519.5" y="246" type="line"/>
			<point x="1527.5" y="228"/>
			<point x="1531" y="211.5"/>
			<point x="1531" y="196.5" type="curve" smooth="yes"/>
			<point x="1531" y="129.5"/>
			<point x="1436" y="85.5"/>
			<point x="1377.5" y="85.5" type="curve" smooth="yes"/>
			<point x="1351" y="85.5"/>
			<point x="1332" y="94.5"/>
			<point x="1332" y="114" type="curve" smooth="yes"/>
			<point x="1332" y="126.5"/>
			<point x="1342" y="141"/>
			<point x="1361.5" y="153.5" type="curve" smooth="yes"/>
			<point x="1404.5" y="180.5"/>
			<point x="1480" y="198"/>
			<point x="1480" y="266.5" type="curve" smooth="yes"/>
			<point x="1480" y="321.5"/>
			<point x="1437.5" y="384.5"/>
			<point x="1295" y="384.5" type="curve" smooth="yes"/>
			<point x="1176" y="384.5"/>
			<point x="1094" y="327.5"/>
			<point x="1094" y="234.5" type="curve" smooth="yes"/>
			<point x="1094" y="203.5"/>
			<point x="1101.5" y="174"/>
			<point x="1117" y="136" type="curve" smooth="yes"/>
			<point x="1131.5" y="99"/>
			<point x="1145" y="63"/>
			<point x="1145" y="38.5" type="curve" smooth="yes"/>
			<point x="1145" y="13.5"/>
			<point x="1122" y="-4"/>
			<point x="1087.5" y="-4" type="curve" smooth="yes"/>
			<point x="1024" y="-4"/>
			<point x="931.5" y="54.5"/>
			<point x="931.5" y="146" type="curve" smooth="yes"/>
			<point x="931.5" y="279.5"/>
			<point x="1116" y="335.5"/>
			<point x="1116" y="469" type="curve" smooth="yes"/>
			<point x="1116" y="611"/>
			<point x="1015.5" y="708"/>
			<point x="860" y="708" type="curve" smooth="yes"/>
			<point x="691.5" y="708"/>
			<point x="644" y="594"/>
			<point x="589.5" y="414" type="curve" smooth="yes"/>
			<point x="535" y="233.5"/>
			<point x="464.5" y="-4"/>
			<point x="276.5" y="-4" type="curve" smooth="yes"/>
			<point x="178.5" y="-4"/>
			<point x="113" y="83.5"/>
			<point x="113" y="208.5" type="curve" smooth="yes"/>
			<point x="113" y="295"/>
			<point x="153.5" y="387"/>
			<point x="237.5" y="418.5" type="curve"/>
			<point x="211" y="407.5" type="line"/>
			<point x="90.5" y="369.5"/>
			<point x="13" y="276.5"/>
		</contour>
	</outline>
</glyph>
<glyph name="bullet.ss06" format="2">
	<advance width="216"/>
	<guideline x="91.5" y="380" angle="0"/>
	<guideline x="6.5" y="295" angle="90"/>
	<outline>
		<contour>
			<point x="23" y="294" type="line"/>
			<point x="107" y="210" type="line"/>
			<point x="109" y="210" type="line"/>
			<point x="193" y="294" type="line"/>
			<point x="193" y="296" type="line"/>
			<point x="109" y="380" type="line"/>
			<point x="107" y="380" type="line"/>
			<point x="23" y="296" type="line"/>
		</contour>
	</outline>
</glyph>
<glyph name="dagger.ss06" format="2">
	<advance width="256"/>
	<outline>
		<contour>
			<point x="10" y="545.5" type="line"/>
			<point x="71.5" y="514" type="line"/>
			<point x="126" y="544.5" type="line"/>
			<point x="95.5" y="465" type="line"/>
			<point x="127" y="283.5" type="line"/>
			<point x="129" y="283.5" type="line"/>
			<point x="160.5" y="465" type="line"/>
			<point x="130" y="544.5" type="line"/>
			<point x="184.5" y="514" type="line"/>
			<point x="246" y="545.5" type="line"/>
			<point x="246" y="547.5" type="line"/>
			<point x="184.5" y="579" type="line"/>
			<point x="130" y="548.5" type="line"/>
			<point x="160.5" y="628" type="line"/>
			<point x="129" y="709.5" type="line"/>
			<point x="127" y="709.5" type="line"/>
			<point x="95.5" y="628" type="line"/>
			<point x="126" y="548.5" type="line"/>
			<point x="71.5" y="579" type="line"/>
			<point x="10" y="547.5" type="line"/>
		</contour>
	</outline>
</glyph>
<glyph name="quotedblleft.ss08" format="2">
	<advance width="249"/>
	<outline>
		<contour>
			<point x="128" y="500" type="line"/>
			<point x="198" y="500" type="line"/>
			<point x="226.5" y="750" type="line"/>
			<point x="219.5" y="750" type="line"/>
		</contour>
		<contour>
			<point x="23" y="500" type="line"/>
			<point x="93" y="500" type="line"/>
			<point x="121.5" y="750" type="line"/>
			<point x="114.5" y="750" type="line"/>
		</contour>
	</outline>
</glyph>
<glyph name="quotedblright.ss08" format="2">
	<advance width="249"/>
	<outline>
		<contour>
			<point x="128" y="450" type="line"/>
			<point x="135" y="450" type="line"/>
			<point x="226.5" y="700" type="line"/>
			<point x="156.5" y="700" type="line"/>
		</contour>
		<contour>
			<point x="23" y="450" type="line"/>
			<point x="30" y="450" type="line"/>
			<point x="121.5" y="700" type="line"/>
			<point x="51.5" y="700" type="line"/>
		</contour>
	</outline>
</glyph>
<glyph name="uni0304.narrow" format="2">
	<advance width="0"/>
	<anchor x="-108" y="800" name="top"/>
	<anchor x="-108" y="700" name="_top"/>
	<outline>
		<contour>
			<point x="-193" y="794" type="line"/>
			<point x="-23" y="794" type="line"/>
			<point x="-23" y="800" type="line"/>
			<point x="-193" y="800" type="line"/>
		</contour>
	</outline>
</glyph>
<glyph name="uni1E9E.ss01" format="2">
	<advance width="551"/>
	<outline>
		<contour>
			<point x="-32" y="296.5" type="curve" smooth="yes"/>
			<point x="-32" y="106"/>
			<point x="166.5" y="-9.5"/>
			<point x="329.5" y="-9.5" type="curve" smooth="yes"/>
			<point x="454.5" y="-9.5"/>
			<point x="538" y="62.5"/>
			<point x="538" y="170.5" type="curve" smooth="yes"/>
			<point x="538" y="271"/>
			<point x="468.5" y="354.5"/>
			<point x="361" y="390" type="curve"/>
			<point x="334" y="399.5" type="line"/>
			<point x="405.5" y="372.5"/>
			<point x="453.5" y="296"/>
			<point x="453.5" y="208.5" type="curve" smooth="yes"/>
			<point x="453.5" y="67.5"/>
			<point x="378.5" y="4"/>
			<point x="292.5" y="4" type="curve" smooth="yes"/>
			<point x="182.5" y="4"/>
			<point x="38" y="113.5"/>
			<point x="38" y="321.5" type="curve" smooth="yes"/>
			<point x="38" y="370"/>
			<point x="58" y="403"/>
			<point x="106" y="403" type="curve"/>
			<point x="106" y="407" type="line"/>
			<point x="9.5" y="407"/>
			<point x="-32" y="362"/>
		</contour>
		<contour>
			<point x="38" y="0" type="line"/>
			<point x="293" y="0" type="line"/>
			<point x="293" y="8" type="line"/>
			<point x="38" y="8" type="line"/>
		</contour>
		<contour>
			<point x="98" y="0" type="line"/>
			<point x="198" y="0" type="line"/>
			<point x="198" y="571.5" type="line"/>
			<point x="98" y="568.5" type="line"/>
		</contour>
		<contour>
			<point x="452" y="161" type="curve"/>
			<point x="457" y="165.5" type="line"/>
			<point x="398" y="213.5"/>
			<point x="353.5" y="285.5"/>
			<point x="353.5" y="335" type="curve" smooth="yes"/>
			<point x="353.5" y="373"/>
			<point x="383" y="405"/>
			<point x="411.5" y="443.5" type="curve" smooth="yes"/>
			<point x="446" y="489.5"/>
			<point x="467" y="534.5"/>
			<point x="467" y="574" type="curve" smooth="yes"/>
			<point x="467" y="652"/>
			<point x="398.5" y="708"/>
			<point x="287" y="708" type="curve" smooth="yes"/>
			<point x="136" y="708"/>
			<point x="98" y="680"/>
			<point x="98" y="568.5" type="curve"/>
			<point x="198" y="571.5" type="line"/>
			<point x="200" y="678.5"/>
			<point x="217.5" y="704"/>
			<point x="287" y="704" type="curve" smooth="yes"/>
			<point x="340" y="704"/>
			<point x="413.5" y="681.5"/>
			<point x="413.5" y="635" type="curve" smooth="yes"/>
			<point x="413.5" y="547.5"/>
			<point x="267.5" y="489.5"/>
			<point x="267.5" y="396" type="curve" smooth="yes"/>
			<point x="267.5" y="303.5"/>
			<point x="361" y="221.5"/>
		</contour>
	</outline>
</glyph>
<glyph name="uni2E4B.ss06" format="2">
	<advance width="256"/>
	<outline>
		<contour>
			<point x="10" y="249.5" type="line"/>
			<point x="71.5" y="218" type="line"/>
			<point x="126" y="248.5" type="line"/>
			<point x="95.5" y="169" type="line"/>
			<point x="127" y="87.5" type="line"/>
			<point x="129" y="87.5" type="line"/>
			<point x="160.5" y="169" type="line"/>
			<point x="130" y="248.5" type="line"/>
			<point x="184.5" y="218" type="line"/>
			<point x="246" y="249.5" type="line"/>
			<point x="246" y="251.5" type="line"/>
			<point x="184.5" y="283" type="line"/>
			<point x="130" y="252.5" type="line"/>
			<point x="160.5" y="317" type="line"/>
			<point x="130" y="396.5" type="line"/>
			<point x="184.5" y="366" type="line"/>
			<point x="246" y="397.5" type="line"/>
			<point x="246" y="399.5" type="line"/>
			<point x="184.5" y="431" type="line"/>
			<point x="130" y="400.5" type="line"/>
			<point x="160.5" y="480" type="line"/>
			<point x="130" y="544.5" type="line"/>
			<point x="184.5" y="514" type="line"/>
			<point x="246" y="545.5" type="line"/>
			<point x="246" y="547.5" type="line"/>
			<point x="184.5" y="579" type="line"/>
			<point x="130" y="548.5" type="line"/>
			<point x="160.5" y="628" type="line"/>
			<point x="129" y="709.5" type="line"/>
			<point x="127" y="709.5" type="line"/>
			<point x="95.5" y="628" type="line"/>
			<point x="126" y="548.5" type="line"/>
			<point x="71.5" y="579" type="line"/>
			<point x="10" y="547.5" type="line"/>
			<point x="10" y="545.5" type="line"/>
			<point x="71.5" y="514" type="line"/>
			<point x="126" y="544.5" type="line"/>
			<point x="95.5" y="480" type="line"/>
			<point x="126" y="400.5" type="line"/>
			<point x="71.5" y="431" type="line"/>
			<point x="10" y="399.5" type="line"/>
			<point x="10" y="397.5" type="line"/>
			<point x="71.5" y="366" type="line"/>
			<point x="126" y="396.5" type="line"/>
			<point x="95.5" y="317" type="line"/>
			<point x="126" y="252.5" type="line"/>
			<point x="71.5" y="283" type="line"/>
			<point x="10" y="251.5" type="line"/>
		</contour>
	</outline>
</glyph>
